<svg width="128" height="128" viewBox="0 0 128 128" fill="none" xmlns="http://www.w3.org/2000/svg">
<path d="M78.4933 117.493L14.4713 53.4713C13.3779 52.3779 13.886 50.5101 15.3828 50.1214L49.353 41.2979C50.0602 41.1142 50.8114 41.3309 51.3122 41.863L56.1275 46.9792C57.1823 48.0999 56.6289 49.9423 55.1311 50.2963L34.4257 55.1903C32.9154 55.5473 32.3694 57.4136 33.4492 58.5283L45.6732 71.1465C46.1828 71.6726 46.9392 71.878 47.645 71.682L61.2157 67.9123C62.6872 67.5036 64.0553 68.8282 63.6944 70.312L60.2708 84.3868C60.103 85.0764 60.3133 85.8032 60.8233 86.2967L73.0343 98.1138C74.1354 99.1794 75.9766 98.6618 76.3611 97.1785L81.6224 76.8849C82.0106 75.3876 83.8789 74.8789 84.9726 75.9726L89.7021 80.7021C90.1974 81.1974 90.3975 81.9155 90.2297 82.5955L81.8493 116.558C81.4762 118.07 79.5945 118.594 78.4933 117.493Z" stroke="#92C131" stroke-width="3"/>
<path d="M82.6562 47.1562C83.2031 47.7812 83.2031 48.7969 82.6562 49.4219L80 52L82.6562 54.6562C83.2031 55.2812 83.2031 56.2969 82.6562 56.9219C82.3438 57.2344 81.9531 57.3125 81.5625 57.3125C81.0938 57.3125 80.7031 57.2344 80.3906 56.9219L76.6406 53.1719C76.0938 52.5469 76.0938 51.5312 76.6406 50.9062L80.3906 47.1562C81.0156 46.5312 82.0312 46.5312 82.6562 47.1562ZM98.5156 34.3438C99.4531 35.2812 100 36.5312 100 37.8594V62C100 64.8125 97.7344 67 95 67H75C72.1875 67 70 64.8125 70 62V32C70 29.2656 72.1875 27 75 27H89.1406C90.4688 27 91.7188 27.5469 92.6562 28.4844L98.5156 34.3438ZM96.25 62H96.1719V39.5H90C88.5938 39.5 87.5 38.4062 87.5 37V30.8281H75C74.2969 30.8281 73.75 31.375 73.75 32.0781V62C73.75 62.7031 74.2969 63.25 75 63.25H95C95.625 63.25 96.25 62.7031 96.25 62ZM87.2656 47.1562C87.8906 46.5312 88.9062 46.5312 89.5312 47.1562L93.2812 50.9062C93.8281 51.5312 93.8281 52.5469 93.2812 53.1719L89.5312 56.9219C89.2188 57.2344 88.8281 57.3125 88.4375 57.3125C87.9688 57.3125 87.5781 57.2344 87.2656 56.9219C86.7188 56.2969 86.7188 55.2812 87.2656 54.6562L89.9219 52L87.2656 49.4219C86.7188 48.7969 86.7188 47.7812 87.2656 47.1562Z" fill="#7E85FF"/>
<path d="M93 31H105" stroke="#87FFF5" stroke-width="2" stroke-linecap="round"/>
<path d="M99 37V25" stroke="#87FFF5" stroke-width="2" stroke-linecap="round"/>
</svg>
