<svg width="331" height="231" viewBox="0 0 331 231" fill="none" xmlns="http://www.w3.org/2000/svg">
<g clip-path="url(#clip0_90_30)">
<rect width="331" height="231" fill="#252525"/>
<path d="M54.9688 38.2812V55.1562C54.9688 56.6481 54.3761 58.0788 53.3212 59.1337C52.2663 60.1886 50.8356 60.7812 49.3438 60.7812H29.6562C28.1644 60.7812 26.7337 60.1886 25.6788 59.1337C24.6239 58.0788 24.0312 56.6481 24.0312 55.1562V29.8438C24.0312 26.75 26.5625 24.2188 29.6562 24.2188H40.9344M54.9688 38.2812L40.9062 24.2188V35.4688C40.9062 36.2147 41.2026 36.93 41.73 37.4575C42.2575 37.9849 42.9728 38.2812 43.7188 38.2812H54.9688Z" stroke="#CDD6F4" stroke-linecap="round" stroke-linejoin="round"/>
<path d="M71.46 48.32V37.04H74.4V38H72.54V47.36H74.4V48.32H71.46ZM77.2993 47V38.24H78.3793V40.4V41.66H78.6073L78.3793 41.912C78.3793 41.392 78.5353 40.992 78.8473 40.712C79.1593 40.424 79.5913 40.28 80.1433 40.28C80.8073 40.28 81.3353 40.484 81.7273 40.892C82.1193 41.3 82.3153 41.856 82.3153 42.56V47H81.2353V42.68C81.2353 42.208 81.1073 41.844 80.8513 41.588C80.6033 41.324 80.2633 41.192 79.8313 41.192C79.3833 41.192 79.0273 41.332 78.7633 41.612C78.5073 41.892 78.3793 42.288 78.3793 42.8V47H77.2993ZM87.7106 47C87.1426 47 86.6986 46.848 86.3786 46.544C86.0666 46.24 85.9106 45.812 85.9106 45.26V41.384H84.0506V40.4H85.9106V38.54H86.9906V40.4H89.6306V41.384H86.9906V45.26C86.9906 45.764 87.2306 46.016 87.7106 46.016H89.5106V47H87.7106ZM91.3779 47V40.4H92.3259V41.192H92.5419L92.3739 41.48C92.3739 41.112 92.4699 40.82 92.6619 40.604C92.8619 40.388 93.1299 40.28 93.4659 40.28C93.8339 40.28 94.1179 40.416 94.3179 40.688C94.5179 40.96 94.6179 41.344 94.6179 41.84L94.2939 41.192H94.7979L94.5699 41.48C94.5699 41.112 94.6699 40.82 94.8699 40.604C95.0779 40.388 95.3499 40.28 95.6859 40.28C96.1019 40.28 96.4219 40.436 96.6459 40.748C96.8779 41.06 96.9939 41.472 96.9939 41.984V47H95.9979V41.972C95.9979 41.7 95.9379 41.488 95.8179 41.336C95.7059 41.184 95.5379 41.108 95.3139 41.108C95.0979 41.108 94.9259 41.184 94.7979 41.336C94.6779 41.48 94.6179 41.688 94.6179 41.96V47H93.7539V41.972C93.7539 41.692 93.6899 41.48 93.5619 41.336C93.4419 41.184 93.2699 41.108 93.0459 41.108C92.8219 41.108 92.6539 41.184 92.5419 41.336C92.4299 41.48 92.3739 41.688 92.3739 41.96V47H91.3779ZM102.281 47C101.897 47 101.561 46.924 101.273 46.772C100.985 46.62 100.761 46.404 100.601 46.124C100.441 45.844 100.361 45.516 100.361 45.14V39.224H98.1413V38.24H101.441V45.14C101.441 45.412 101.517 45.628 101.669 45.788C101.821 45.94 102.025 46.016 102.281 46.016H104.381V47H102.281ZM106.777 48.32V47.36H108.637V38H106.777V37.04H109.717V48.32H106.777Z" fill="#FF6188"/>
<path d="M9 86.5H323" stroke="#484848" stroke-linecap="round"/>
<path d="M167 65C167 64.4477 166.552 64 166 64C165.448 64 165 64.4477 165 65L167 65ZM165.293 108.707C165.683 109.098 166.317 109.098 166.707 108.707L173.071 102.343C173.462 101.953 173.462 101.319 173.071 100.929C172.681 100.538 172.047 100.538 171.657 100.929L166 106.586L160.343 100.929C159.953 100.538 159.319 100.538 158.929 100.929C158.538 101.319 158.538 101.953 158.929 102.343L165.293 108.707ZM165 65L165 108L167 108L167 65L165 65Z" fill="white"/>
<path d="M19.8125 115.812H44.1875L41.375 137.375L32 141.125L22.625 137.375L19.8125 115.812Z" stroke="#FAB387" stroke-linecap="round" stroke-linejoin="round"/>
<path d="M37.625 121.438H26.375L26.8438 127.062H37.1562L36.6875 132.688L32 134.562L27.3125 132.688L27.1625 130.812" stroke="#CDD6F4" stroke-linecap="round" stroke-linejoin="round"/>
<path d="M61.02 131V130.016H63.36V125.384H61.32V124.4H64.44V130.016H66.66V131H61.02ZM63.78 123.212C63.516 123.212 63.308 123.144 63.156 123.008C63.004 122.872 62.928 122.688 62.928 122.456C62.928 122.216 63.004 122.028 63.156 121.892C63.308 121.748 63.516 121.676 63.78 121.676C64.044 121.676 64.252 121.748 64.404 121.892C64.556 122.028 64.632 122.216 64.632 122.456C64.632 122.688 64.556 122.872 64.404 123.008C64.252 123.144 64.044 123.212 63.78 123.212ZM68.2993 131V124.4H69.3793V125.66H69.6073L69.3793 125.912C69.3793 125.392 69.5353 124.992 69.8473 124.712C70.1593 124.424 70.5913 124.28 71.1433 124.28C71.8073 124.28 72.3353 124.484 72.7273 124.892C73.1193 125.3 73.3153 125.856 73.3153 126.56V131H72.2353V126.68C72.2353 126.208 72.1073 125.848 71.8513 125.6C71.6033 125.344 71.2633 125.216 70.8313 125.216C70.3833 125.216 70.0273 125.352 69.7633 125.624C69.5073 125.896 69.3793 126.288 69.3793 126.8V131H68.2993ZM77.6066 131.12C76.9506 131.12 76.4186 130.9 76.0106 130.46C75.6106 130.02 75.4106 129.424 75.4106 128.672V126.74C75.4106 125.98 75.6106 125.38 76.0106 124.94C76.4106 124.5 76.9426 124.28 77.6066 124.28C78.1506 124.28 78.5866 124.428 78.9146 124.724C79.2426 125.02 79.4066 125.416 79.4066 125.912L79.1906 125.66H79.4306L79.4066 124.16V122.24H80.4866V131H79.4066V129.74H79.1906L79.4066 129.488C79.4066 129.992 79.2426 130.392 78.9146 130.688C78.5866 130.976 78.1506 131.12 77.6066 131.12ZM77.9666 130.184C78.4146 130.184 78.7666 130.044 79.0226 129.764C79.2786 129.484 79.4066 129.096 79.4066 128.6V126.8C79.4066 126.304 79.2786 125.916 79.0226 125.636C78.7666 125.356 78.4146 125.216 77.9666 125.216C77.5106 125.216 77.1506 125.352 76.8866 125.624C76.6226 125.896 76.4906 126.288 76.4906 126.8V128.6C76.4906 129.112 76.6226 129.504 76.8866 129.776C77.1506 130.048 77.5106 130.184 77.9666 130.184ZM85.1859 131.12C84.6659 131.12 84.2099 131.016 83.8179 130.808C83.4339 130.6 83.1339 130.308 82.9179 129.932C82.7099 129.548 82.6059 129.104 82.6059 128.6V126.8C82.6059 126.288 82.7099 125.844 82.9179 125.468C83.1339 125.092 83.4339 124.8 83.8179 124.592C84.2099 124.384 84.6659 124.28 85.1859 124.28C85.7059 124.28 86.1579 124.384 86.5419 124.592C86.9339 124.8 87.2339 125.092 87.4419 125.468C87.6579 125.844 87.7659 126.288 87.7659 126.8V127.964H83.6619V128.6C83.6619 129.12 83.7939 129.52 84.0579 129.8C84.3219 130.072 84.6979 130.208 85.1859 130.208C85.6019 130.208 85.9379 130.136 86.1939 129.992C86.4499 129.84 86.6059 129.616 86.6619 129.32H87.7419C87.6699 129.872 87.3979 130.312 86.9259 130.64C86.4619 130.96 85.8819 131.12 85.1859 131.12ZM86.7099 127.244V126.8C86.7099 126.28 86.5779 125.88 86.3139 125.6C86.0579 125.32 85.6819 125.18 85.1859 125.18C84.6979 125.18 84.3219 125.32 84.0579 125.6C83.7939 125.88 83.6619 126.28 83.6619 126.8V127.148H86.7939L86.7099 127.244ZM89.3813 131L91.7213 127.604L89.5253 124.4H90.7973L92.1053 126.44C92.1613 126.528 92.2133 126.624 92.2613 126.728C92.3173 126.832 92.3613 126.916 92.3933 126.98C92.4173 126.916 92.4533 126.832 92.5013 126.728C92.5573 126.624 92.6133 126.528 92.6693 126.44L93.9893 124.4H95.2493L93.0533 127.616L95.3813 131H94.1093L92.6933 128.84C92.6373 128.752 92.5813 128.652 92.5253 128.54C92.4773 128.42 92.4333 128.324 92.3933 128.252C92.3613 128.324 92.3133 128.42 92.2493 128.54C92.1933 128.652 92.1333 128.752 92.0693 128.84L90.6413 131H89.3813ZM99.5766 131.12C99.2726 131.12 99.0286 131.032 98.8446 130.856C98.6686 130.68 98.5806 130.444 98.5806 130.148C98.5806 129.836 98.6686 129.588 98.8446 129.404C99.0286 129.22 99.2726 129.128 99.5766 129.128C99.8806 129.128 100.121 129.22 100.297 129.404C100.481 129.588 100.573 129.836 100.573 130.148C100.573 130.444 100.481 130.68 100.297 130.856C100.121 131.032 99.8806 131.12 99.5766 131.12ZM104.276 131V122.24H105.356V124.4V125.66H105.584L105.356 125.912C105.356 125.392 105.512 124.992 105.824 124.712C106.136 124.424 106.568 124.28 107.12 124.28C107.784 124.28 108.312 124.484 108.704 124.892C109.096 125.3 109.292 125.856 109.292 126.56V131H108.212V126.68C108.212 126.208 108.084 125.844 107.828 125.588C107.58 125.324 107.24 125.192 106.808 125.192C106.36 125.192 106.004 125.332 105.74 125.612C105.484 125.892 105.356 126.288 105.356 126.8V131H104.276ZM114.687 131C114.119 131 113.675 130.848 113.355 130.544C113.043 130.24 112.887 129.812 112.887 129.26V125.384H111.027V124.4H112.887V122.54H113.967V124.4H116.607V125.384H113.967V129.26C113.967 129.764 114.207 130.016 114.687 130.016H116.487V131H114.687ZM118.354 131V124.4H119.303V125.192H119.519L119.351 125.48C119.351 125.112 119.447 124.82 119.639 124.604C119.839 124.388 120.107 124.28 120.443 124.28C120.811 124.28 121.095 124.416 121.295 124.688C121.495 124.96 121.595 125.344 121.595 125.84L121.271 125.192H121.775L121.547 125.48C121.547 125.112 121.647 124.82 121.847 124.604C122.055 124.388 122.327 124.28 122.663 124.28C123.079 124.28 123.399 124.436 123.622 124.748C123.855 125.06 123.971 125.472 123.971 125.984V131H122.975V125.972C122.975 125.7 122.915 125.488 122.795 125.336C122.683 125.184 122.515 125.108 122.291 125.108C122.075 125.108 121.903 125.184 121.775 125.336C121.655 125.48 121.595 125.688 121.595 125.96V131H120.73V125.972C120.73 125.692 120.667 125.48 120.539 125.336C120.419 125.184 120.247 125.108 120.023 125.108C119.799 125.108 119.631 125.184 119.519 125.336C119.407 125.48 119.351 125.688 119.351 125.96V131H118.354ZM129.258 131C128.874 131 128.538 130.924 128.25 130.772C127.962 130.62 127.738 130.404 127.578 130.124C127.418 129.844 127.338 129.516 127.338 129.14V123.224H125.118V122.24H128.418V129.14C128.418 129.412 128.494 129.628 128.646 129.788C128.798 129.94 129.002 130.016 129.258 130.016H131.358V131H129.258Z" fill="#FAB387"/>
<path d="M63.396 165.096C62.948 165.096 62.556 165.028 62.22 164.892C61.892 164.748 61.628 164.548 61.428 164.292C61.236 164.036 61.12 163.732 61.08 163.38H62.16C62.208 163.612 62.336 163.796 62.544 163.932C62.76 164.068 63.044 164.136 63.396 164.136H63.9C64.324 164.136 64.64 164.052 64.848 163.884C65.056 163.708 65.16 163.476 65.16 163.188C65.16 162.908 65.064 162.688 64.872 162.528C64.688 162.36 64.412 162.248 64.044 162.192L63.156 162.048C62.508 161.936 62.024 161.736 61.704 161.448C61.392 161.152 61.236 160.724 61.236 160.164C61.236 159.572 61.424 159.116 61.8 158.796C62.176 158.468 62.74 158.304 63.492 158.304H63.948C64.58 158.304 65.088 158.452 65.472 158.748C65.856 159.044 66.088 159.444 66.168 159.948H65.088C65.04 159.74 64.92 159.576 64.728 159.456C64.536 159.328 64.276 159.264 63.948 159.264H63.492C63.084 159.264 62.784 159.34 62.592 159.492C62.408 159.644 62.316 159.872 62.316 160.176C62.316 160.448 62.396 160.648 62.556 160.776C62.716 160.904 62.968 160.996 63.312 161.052L64.2 161.196C64.912 161.308 65.428 161.516 65.748 161.82C66.076 162.124 66.24 162.564 66.24 163.14C66.24 163.748 66.044 164.228 65.652 164.58C65.268 164.924 64.684 165.096 63.9 165.096H63.396ZM71.5153 165C70.9473 165 70.5033 164.848 70.1833 164.544C69.8713 164.24 69.7153 163.812 69.7153 163.26V159.384H67.8553V158.4H69.7153V156.54H70.7953V158.4H73.4353V159.384H70.7953V163.26C70.7953 163.764 71.0353 164.016 71.5153 164.016H73.3153V165H71.5153ZM76.5266 167.16L77.4986 164.592L75.0506 158.4H76.2506L77.7866 162.48C77.8426 162.616 77.8946 162.78 77.9426 162.972C77.9906 163.156 78.0306 163.312 78.0626 163.44C78.0946 163.312 78.1346 163.156 78.1826 162.972C78.2306 162.78 78.2786 162.616 78.3266 162.48L79.7666 158.4H80.9306L77.6786 167.16H76.5266ZM86.0859 165C85.7019 165 85.3659 164.924 85.0779 164.772C84.7899 164.62 84.5659 164.404 84.4059 164.124C84.2459 163.844 84.1659 163.516 84.1659 163.14V157.224H81.9459V156.24H85.2459V163.14C85.2459 163.412 85.3219 163.628 85.4739 163.788C85.6259 163.94 85.8299 164.016 86.0859 164.016H88.1859V165H86.0859ZM92.3813 165.12C91.8613 165.12 91.4053 165.016 91.0133 164.808C90.6293 164.6 90.3293 164.308 90.1133 163.932C89.9053 163.548 89.8013 163.104 89.8013 162.6V160.8C89.8013 160.288 89.9053 159.844 90.1133 159.468C90.3293 159.092 90.6293 158.8 91.0133 158.592C91.4053 158.384 91.8613 158.28 92.3813 158.28C92.9013 158.28 93.3533 158.384 93.7373 158.592C94.1293 158.8 94.4293 159.092 94.6373 159.468C94.8533 159.844 94.9613 160.288 94.9613 160.8V161.964H90.8573V162.6C90.8573 163.12 90.9893 163.52 91.2533 163.8C91.5173 164.072 91.8933 164.208 92.3813 164.208C92.7973 164.208 93.1333 164.136 93.3893 163.992C93.6453 163.84 93.8013 163.616 93.8573 163.32H94.9373C94.8653 163.872 94.5933 164.312 94.1213 164.64C93.6573 164.96 93.0773 165.12 92.3813 165.12ZM93.9053 161.244V160.8C93.9053 160.28 93.7733 159.88 93.5093 159.6C93.2533 159.32 92.8773 159.18 92.3813 159.18C91.8933 159.18 91.5173 159.32 91.2533 159.6C90.9893 159.88 90.8573 160.28 90.8573 160.8V161.148H93.9893L93.9053 161.244ZM99.5766 165.12C99.2726 165.12 99.0286 165.032 98.8446 164.856C98.6686 164.68 98.5806 164.444 98.5806 164.148C98.5806 163.836 98.6686 163.588 98.8446 163.404C99.0286 163.22 99.2726 163.128 99.5766 163.128C99.8806 163.128 100.121 163.22 100.297 163.404C100.481 163.588 100.573 163.836 100.573 164.148C100.573 164.444 100.481 164.68 100.297 164.856C100.121 165.032 99.8806 165.12 99.5766 165.12ZM106.82 165.12C106.292 165.12 105.828 165.02 105.428 164.82C105.036 164.62 104.732 164.332 104.516 163.956C104.3 163.572 104.192 163.12 104.192 162.6V160.8C104.192 160.272 104.3 159.82 104.516 159.444C104.732 159.068 105.036 158.78 105.428 158.58C105.828 158.38 106.292 158.28 106.82 158.28C107.58 158.28 108.192 158.484 108.656 158.892C109.12 159.3 109.364 159.856 109.388 160.56H108.308C108.284 160.136 108.14 159.812 107.876 159.588C107.62 159.356 107.268 159.24 106.82 159.24C106.348 159.24 105.972 159.376 105.692 159.648C105.412 159.912 105.272 160.292 105.272 160.788V162.6C105.272 163.096 105.412 163.48 105.692 163.752C105.972 164.024 106.348 164.16 106.82 164.16C107.268 164.16 107.62 164.044 107.876 163.812C108.14 163.58 108.284 163.256 108.308 162.84H109.388C109.364 163.544 109.12 164.1 108.656 164.508C108.192 164.916 107.58 165.12 106.82 165.12ZM113.763 165.096C113.315 165.096 112.923 165.028 112.587 164.892C112.259 164.748 111.995 164.548 111.795 164.292C111.603 164.036 111.487 163.732 111.447 163.38H112.527C112.575 163.612 112.703 163.796 112.911 163.932C113.127 164.068 113.411 164.136 113.763 164.136H114.267C114.691 164.136 115.007 164.052 115.215 163.884C115.423 163.708 115.527 163.476 115.527 163.188C115.527 162.908 115.431 162.688 115.239 162.528C115.055 162.36 114.779 162.248 114.411 162.192L113.523 162.048C112.875 161.936 112.391 161.736 112.071 161.448C111.759 161.152 111.603 160.724 111.603 160.164C111.603 159.572 111.791 159.116 112.167 158.796C112.543 158.468 113.107 158.304 113.859 158.304H114.315C114.947 158.304 115.455 158.452 115.839 158.748C116.223 159.044 116.455 159.444 116.535 159.948H115.455C115.407 159.74 115.287 159.576 115.095 159.456C114.903 159.328 114.643 159.264 114.315 159.264H113.859C113.451 159.264 113.151 159.34 112.959 159.492C112.775 159.644 112.683 159.872 112.683 160.176C112.683 160.448 112.763 160.648 112.923 160.776C113.083 160.904 113.335 160.996 113.679 161.052L114.567 161.196C115.279 161.308 115.795 161.516 116.115 161.82C116.443 162.124 116.607 162.564 116.607 163.14C116.607 163.748 116.411 164.228 116.019 164.58C115.635 164.924 115.051 165.096 114.267 165.096H113.763ZM120.959 165.096C120.511 165.096 120.119 165.028 119.783 164.892C119.455 164.748 119.191 164.548 118.991 164.292C118.799 164.036 118.683 163.732 118.643 163.38H119.723C119.771 163.612 119.899 163.796 120.107 163.932C120.323 164.068 120.607 164.136 120.959 164.136H121.463C121.887 164.136 122.203 164.052 122.411 163.884C122.619 163.708 122.723 163.476 122.723 163.188C122.723 162.908 122.627 162.688 122.435 162.528C122.251 162.36 121.975 162.248 121.607 162.192L120.719 162.048C120.071 161.936 119.587 161.736 119.267 161.448C118.955 161.152 118.799 160.724 118.799 160.164C118.799 159.572 118.987 159.116 119.363 158.796C119.739 158.468 120.303 158.304 121.055 158.304H121.511C122.143 158.304 122.651 158.452 123.035 158.748C123.419 159.044 123.651 159.444 123.73 159.948H122.651C122.603 159.74 122.483 159.576 122.291 159.456C122.099 159.328 121.839 159.264 121.511 159.264H121.055C120.647 159.264 120.347 159.34 120.155 159.492C119.971 159.644 119.879 159.872 119.879 160.176C119.879 160.448 119.959 160.648 120.119 160.776C120.279 160.904 120.531 160.996 120.875 161.052L121.763 161.196C122.475 161.308 122.991 161.516 123.311 161.82C123.639 162.124 123.803 162.564 123.803 163.14C123.803 163.748 123.607 164.228 123.215 164.58C122.831 164.924 122.247 165.096 121.463 165.096H120.959Z" fill="#CDD6F4"/>
<path d="M19.8125 148.812H44.1875L41.375 170.375L32 174.125L22.625 170.375L19.8125 148.812Z" stroke="#89B4FA" stroke-linecap="round" stroke-linejoin="round"/>
<path d="M26.375 154.438H37.625L36.6875 165.688L32 167.562L27.3125 165.688L27.1625 163.812M29.1875 160.062H36.6875" stroke="#CDD6F4" stroke-linecap="round" stroke-linejoin="round"/>
<path d="M62.792 198V191.4H63.74V192.192H63.956L63.788 192.48C63.788 192.112 63.884 191.82 64.076 191.604C64.276 191.388 64.544 191.28 64.88 191.28C65.248 191.28 65.532 191.416 65.732 191.688C65.932 191.96 66.032 192.344 66.032 192.84L65.708 192.192H66.212L65.984 192.48C65.984 192.112 66.084 191.82 66.284 191.604C66.492 191.388 66.764 191.28 67.1 191.28C67.516 191.28 67.836 191.436 68.06 191.748C68.292 192.06 68.408 192.472 68.408 192.984V198H67.412V192.972C67.412 192.7 67.352 192.488 67.232 192.336C67.12 192.184 66.952 192.108 66.728 192.108C66.512 192.108 66.34 192.184 66.212 192.336C66.092 192.48 66.032 192.688 66.032 192.96V198H65.168V192.972C65.168 192.692 65.104 192.48 64.976 192.336C64.856 192.184 64.684 192.108 64.46 192.108C64.236 192.108 64.068 192.184 63.956 192.336C63.844 192.48 63.788 192.688 63.788 192.96V198H62.792ZM72.2193 198.12C71.5233 198.12 70.9753 197.944 70.5753 197.592C70.1753 197.232 69.9753 196.748 69.9753 196.14C69.9753 195.524 70.1753 195.04 70.5753 194.688C70.9753 194.336 71.5153 194.16 72.1953 194.16H74.2353V193.5C74.2353 193.092 74.1113 192.78 73.8633 192.564C73.6233 192.34 73.2793 192.228 72.8313 192.228C72.4393 192.228 72.1113 192.312 71.8473 192.48C71.5833 192.64 71.4313 192.86 71.3913 193.14H70.3113C70.3833 192.572 70.6513 192.12 71.1153 191.784C71.5793 191.448 72.1593 191.28 72.8553 191.28C73.6153 191.28 74.2153 191.476 74.6553 191.868C75.0953 192.26 75.3153 192.792 75.3153 193.464V198H74.2593V196.74H74.0793L74.2593 196.56C74.2593 197.04 74.0713 197.42 73.6953 197.7C73.3273 197.98 72.8353 198.12 72.2193 198.12ZM72.4833 197.268C72.9953 197.268 73.4153 197.14 73.7433 196.884C74.0713 196.628 74.2353 196.3 74.2353 195.9V194.964H72.2193C71.8593 194.964 71.5753 195.064 71.3673 195.264C71.1593 195.464 71.0553 195.736 71.0553 196.08C71.0553 196.448 71.1793 196.74 71.4273 196.956C71.6833 197.164 72.0353 197.268 72.4833 197.268ZM77.4106 198V197.016H79.7506V192.384H77.7106V191.4H80.8306V197.016H83.0506V198H77.4106ZM80.1706 190.212C79.9066 190.212 79.6986 190.144 79.5466 190.008C79.3946 189.872 79.3186 189.688 79.3186 189.456C79.3186 189.216 79.3946 189.028 79.5466 188.892C79.6986 188.748 79.9066 188.676 80.1706 188.676C80.4346 188.676 80.6426 188.748 80.7946 188.892C80.9466 189.028 81.0226 189.216 81.0226 189.456C81.0226 189.688 80.9466 189.872 80.7946 190.008C80.6426 190.144 80.4346 190.212 80.1706 190.212ZM84.6899 198V191.4H85.7699V192.66H85.9979L85.7699 192.912C85.7699 192.392 85.9259 191.992 86.2379 191.712C86.5499 191.424 86.9819 191.28 87.5339 191.28C88.1979 191.28 88.7259 191.484 89.1179 191.892C89.5099 192.3 89.7059 192.856 89.7059 193.56V198H88.6259V193.68C88.6259 193.208 88.4979 192.848 88.2419 192.6C87.9939 192.344 87.6539 192.216 87.2219 192.216C86.7739 192.216 86.4179 192.352 86.1539 192.624C85.8979 192.896 85.7699 193.288 85.7699 193.8V198H84.6899ZM94.3813 198.12C94.0773 198.12 93.8333 198.032 93.6493 197.856C93.4733 197.68 93.3853 197.444 93.3853 197.148C93.3853 196.836 93.4733 196.588 93.6493 196.404C93.8333 196.22 94.0773 196.128 94.3813 196.128C94.6853 196.128 94.9253 196.22 95.1013 196.404C95.2853 196.588 95.3773 196.836 95.3773 197.148C95.3773 197.444 95.2853 197.68 95.1013 197.856C94.9253 198.032 94.6853 198.12 94.3813 198.12ZM98.9966 200.16V199.164H100.545C101.041 199.164 101.425 199.028 101.697 198.756C101.977 198.492 102.117 198.116 102.117 197.628V192.384H99.3566V191.4H103.197V197.628C103.197 198.404 102.957 199.02 102.477 199.476C101.997 199.932 101.353 200.16 100.545 200.16H98.9966ZM102.597 190.212C102.333 190.212 102.125 190.144 101.973 190.008C101.821 189.872 101.745 189.688 101.745 189.456C101.745 189.216 101.821 189.028 101.973 188.892C102.125 188.748 102.333 188.676 102.597 188.676C102.861 188.676 103.069 188.748 103.221 188.892C103.373 189.028 103.449 189.216 103.449 189.456C103.449 189.688 103.373 189.872 103.221 190.008C103.069 190.144 102.861 190.212 102.597 190.212ZM108.568 198.096C108.12 198.096 107.728 198.028 107.392 197.892C107.064 197.748 106.8 197.548 106.6 197.292C106.408 197.036 106.292 196.732 106.252 196.38H107.332C107.38 196.612 107.508 196.796 107.716 196.932C107.932 197.068 108.216 197.136 108.568 197.136H109.072C109.496 197.136 109.812 197.052 110.02 196.884C110.228 196.708 110.332 196.476 110.332 196.188C110.332 195.908 110.236 195.688 110.044 195.528C109.86 195.36 109.584 195.248 109.216 195.192L108.328 195.048C107.68 194.936 107.196 194.736 106.876 194.448C106.564 194.152 106.408 193.724 106.408 193.164C106.408 192.572 106.596 192.116 106.972 191.796C107.348 191.468 107.912 191.304 108.664 191.304H109.12C109.752 191.304 110.26 191.452 110.644 191.748C111.028 192.044 111.26 192.444 111.34 192.948H110.26C110.212 192.74 110.092 192.576 109.9 192.456C109.708 192.328 109.448 192.264 109.12 192.264H108.664C108.256 192.264 107.956 192.34 107.764 192.492C107.58 192.644 107.488 192.872 107.488 193.176C107.488 193.448 107.568 193.648 107.728 193.776C107.888 193.904 108.14 193.996 108.484 194.052L109.372 194.196C110.084 194.308 110.6 194.516 110.92 194.82C111.248 195.124 111.412 195.564 111.412 196.14C111.412 196.748 111.216 197.228 110.824 197.58C110.44 197.924 109.856 198.096 109.072 198.096H108.568Z" fill="#F9E2AF"/>
<path d="M25.4375 199.625C25.4375 201.178 26.6967 202.438 28.25 202.438C29.8033 202.438 31.0625 201.178 31.0625 199.625V193.062M40.4375 195.406C40.4375 194.112 39.4301 193.062 38.1875 193.062H37.0625C35.8199 193.062 34.8125 194.112 34.8125 195.406C34.8125 196.701 35.8199 197.75 37.0625 197.75H38.1875C39.4301 197.75 40.4375 198.799 40.4375 200.094C40.4375 201.388 39.4301 202.438 38.1875 202.438H37.0625C35.8199 202.438 34.8125 201.388 34.8125 200.094" stroke="#F9E2AF" stroke-linecap="round" stroke-linejoin="round"/>
<path d="M24.5 181.812H39.5C42.0969 181.812 44.1875 183.903 44.1875 186.5V201.5C44.1875 204.097 42.0969 206.188 39.5 206.188H24.5C21.9031 206.188 19.8125 204.097 19.8125 201.5V186.5C19.8125 183.903 21.9031 181.812 24.5 181.812Z" stroke="#F9E2AF" stroke-linecap="round" stroke-linejoin="round"/>
</g>
<defs>
<clipPath id="clip0_90_30">
<rect width="331" height="231" fill="white"/>
</clipPath>
</defs>
</svg>
