<svg width="331" height="231" viewBox="0 0 331 231" fill="none" xmlns="http://www.w3.org/2000/svg">
<g clip-path="url(#clip0_80_55)">
<rect width="331" height="231" fill="#252525"/>
<path d="M54.9688 38.2812V55.1562C54.9688 56.6481 54.3761 58.0788 53.3212 59.1337C52.2663 60.1886 50.8356 60.7812 49.3438 60.7812H29.6562C28.1644 60.7812 26.7337 60.1886 25.6788 59.1337C24.6239 58.0788 24.0312 56.6481 24.0312 55.1562V29.8438C24.0312 26.75 26.5625 24.2188 29.6562 24.2188H40.9344M54.9688 38.2812L40.9062 24.2188V35.4688C40.9062 36.2147 41.2026 36.93 41.73 37.4575C42.2575 37.9849 42.9728 38.2812 43.7188 38.2812H54.9688Z" stroke="#CDD6F4" stroke-linecap="round" stroke-linejoin="round"/>
<path d="M70.104 47V38.24H71.184V40.4V41.66H71.412L71.184 41.912C71.184 41.392 71.34 40.992 71.652 40.712C71.964 40.424 72.396 40.28 72.948 40.28C73.612 40.28 74.14 40.484 74.532 40.892C74.924 41.3 75.12 41.856 75.12 42.56V47H74.04V42.68C74.04 42.208 73.912 41.844 73.656 41.588C73.408 41.324 73.068 41.192 72.636 41.192C72.188 41.192 71.832 41.332 71.568 41.612C71.312 41.892 71.184 42.288 71.184 42.8V47H70.104ZM79.7953 47.12C79.2753 47.12 78.8193 47.016 78.4273 46.808C78.0433 46.6 77.7433 46.308 77.5273 45.932C77.3193 45.548 77.2153 45.104 77.2153 44.6V42.8C77.2153 42.288 77.3193 41.844 77.5273 41.468C77.7433 41.092 78.0433 40.8 78.4273 40.592C78.8193 40.384 79.2753 40.28 79.7953 40.28C80.3153 40.28 80.7673 40.384 81.1513 40.592C81.5433 40.8 81.8433 41.092 82.0513 41.468C82.2673 41.844 82.3753 42.288 82.3753 42.8V43.964H78.2713V44.6C78.2713 45.12 78.4033 45.52 78.6673 45.8C78.9313 46.072 79.3073 46.208 79.7953 46.208C80.2113 46.208 80.5473 46.136 80.8033 45.992C81.0593 45.84 81.2153 45.616 81.2713 45.32H82.3513C82.2793 45.872 82.0073 46.312 81.5353 46.64C81.0713 46.96 80.4913 47.12 79.7953 47.12ZM81.3193 43.244V42.8C81.3193 42.28 81.1873 41.88 80.9233 41.6C80.6673 41.32 80.2913 41.18 79.7953 41.18C79.3073 41.18 78.9313 41.32 78.6673 41.6C78.4033 41.88 78.2713 42.28 78.2713 42.8V43.148H81.4033L81.3193 43.244ZM87.8906 47C87.5066 47 87.1706 46.924 86.8826 46.772C86.5946 46.62 86.3706 46.404 86.2106 46.124C86.0506 45.844 85.9706 45.516 85.9706 45.14V39.224H83.7506V38.24H87.0506V45.14C87.0506 45.412 87.1266 45.628 87.2786 45.788C87.4306 45.94 87.6346 46.016 87.8906 46.016H89.9906V47H87.8906ZM95.0859 47C94.7019 47 94.3659 46.924 94.0779 46.772C93.7899 46.62 93.5659 46.404 93.4059 46.124C93.2459 45.844 93.1659 45.516 93.1659 45.14V39.224H90.9459V38.24H94.2459V45.14C94.2459 45.412 94.3219 45.628 94.4739 45.788C94.6259 45.94 94.8299 46.016 95.0859 46.016H97.1859V47H95.0859ZM101.381 47.096C100.853 47.096 100.397 46.996 100.013 46.796C99.6293 46.596 99.3293 46.308 99.1133 45.932C98.9053 45.548 98.8013 45.096 98.8013 44.576V42.824C98.8013 42.296 98.9053 41.844 99.1133 41.468C99.3293 41.092 99.6293 40.804 100.013 40.604C100.397 40.404 100.853 40.304 101.381 40.304C101.909 40.304 102.365 40.404 102.749 40.604C103.133 40.804 103.429 41.092 103.637 41.468C103.853 41.844 103.961 42.292 103.961 42.812V44.576C103.961 45.096 103.853 45.548 103.637 45.932C103.429 46.308 103.133 46.596 102.749 46.796C102.365 46.996 101.909 47.096 101.381 47.096ZM101.381 46.136C101.853 46.136 102.221 46.004 102.485 45.74C102.749 45.476 102.881 45.088 102.881 44.576V42.824C102.881 42.312 102.749 41.924 102.485 41.66C102.221 41.396 101.853 41.264 101.381 41.264C100.917 41.264 100.549 41.396 100.277 41.66C100.013 41.924 99.8813 42.312 99.8813 42.824V44.576C99.8813 45.088 100.013 45.476 100.277 45.74C100.549 46.004 100.917 46.136 101.381 46.136ZM115.772 47.12C115.468 47.12 115.224 47.032 115.04 46.856C114.864 46.68 114.776 46.444 114.776 46.148C114.776 45.836 114.864 45.588 115.04 45.404C115.224 45.22 115.468 45.128 115.772 45.128C116.076 45.128 116.316 45.22 116.492 45.404C116.676 45.588 116.768 45.836 116.768 46.148C116.768 46.444 116.676 46.68 116.492 46.856C116.316 47.032 116.076 47.12 115.772 47.12ZM120.471 47V38.24H121.551V40.4V41.66H121.779L121.551 41.912C121.551 41.392 121.707 40.992 122.019 40.712C122.331 40.424 122.763 40.28 123.315 40.28C123.979 40.28 124.507 40.484 124.899 40.892C125.291 41.3 125.487 41.856 125.487 42.56V47H124.407V42.68C124.407 42.208 124.279 41.844 124.023 41.588C123.775 41.324 123.435 41.192 123.003 41.192C122.555 41.192 122.199 41.332 121.935 41.612C121.679 41.892 121.551 42.288 121.551 42.8V47H120.471ZM130.883 47C130.315 47 129.871 46.848 129.551 46.544C129.239 46.24 129.083 45.812 129.083 45.26V41.384H127.223V40.4H129.083V38.54H130.163V40.4H132.803V41.384H130.163V45.26C130.163 45.764 130.403 46.016 130.883 46.016H132.683V47H130.883ZM134.55 47V40.4H135.498V41.192H135.714L135.546 41.48C135.546 41.112 135.642 40.82 135.834 40.604C136.034 40.388 136.302 40.28 136.638 40.28C137.006 40.28 137.29 40.416 137.49 40.688C137.69 40.96 137.79 41.344 137.79 41.84L137.466 41.192H137.97L137.742 41.48C137.742 41.112 137.842 40.82 138.042 40.604C138.25 40.388 138.522 40.28 138.858 40.28C139.274 40.28 139.594 40.436 139.818 40.748C140.05 41.06 140.166 41.472 140.166 41.984V47H139.17V41.972C139.17 41.7 139.11 41.488 138.99 41.336C138.878 41.184 138.71 41.108 138.486 41.108C138.27 41.108 138.098 41.184 137.97 41.336C137.85 41.48 137.79 41.688 137.79 41.96V47H136.926V41.972C136.926 41.692 136.862 41.48 136.734 41.336C136.614 41.184 136.442 41.108 136.218 41.108C135.994 41.108 135.826 41.184 135.714 41.336C135.602 41.48 135.546 41.688 135.546 41.96V47H134.55ZM145.453 47C145.069 47 144.733 46.924 144.445 46.772C144.157 46.62 143.933 46.404 143.773 46.124C143.613 45.844 143.533 45.516 143.533 45.14V39.224H141.313V38.24H144.613V45.14C144.613 45.412 144.689 45.628 144.841 45.788C144.993 45.94 145.197 46.016 145.453 46.016H147.553V47H145.453Z" fill="#FAB387"/>
<path d="M108.277 48.68V47.108C107.525 47.044 106.933 46.804 106.501 46.388C106.077 45.964 105.857 45.408 105.841 44.72H106.921C106.921 45.112 107.037 45.432 107.269 45.68C107.509 45.928 107.845 46.08 108.277 46.136V42.992L107.953 42.896C107.353 42.712 106.889 42.404 106.561 41.972C106.241 41.54 106.081 41.032 106.081 40.448C106.081 39.808 106.277 39.28 106.669 38.864C107.069 38.448 107.605 38.208 108.277 38.144V36.56H108.997V38.132C109.661 38.196 110.193 38.436 110.593 38.852C110.993 39.268 111.197 39.804 111.205 40.46H110.125C110.125 40.084 110.025 39.78 109.825 39.548C109.633 39.308 109.357 39.16 108.997 39.104V42.08L109.477 42.236C110.061 42.42 110.513 42.732 110.833 43.172C111.153 43.612 111.313 44.128 111.313 44.72C111.313 45.376 111.101 45.92 110.677 46.352C110.261 46.784 109.701 47.036 108.997 47.108V48.68H108.277ZM108.997 46.136C109.389 46.072 109.693 45.92 109.909 45.68C110.125 45.44 110.233 45.128 110.233 44.744C110.233 44.392 110.137 44.084 109.945 43.82C109.761 43.556 109.493 43.372 109.141 43.268L108.997 43.22V46.136ZM108.277 42.332V39.104C107.925 39.16 107.649 39.296 107.449 39.512C107.257 39.728 107.161 40.008 107.161 40.352C107.161 40.768 107.289 41.12 107.545 41.408C107.801 41.688 108.169 41.864 108.649 41.936L108.277 42.332ZM153.788 48.32C153.316 48.32 152.908 48.24 152.564 48.08C152.228 47.928 151.972 47.7 151.796 47.396C151.62 47.1 151.544 46.744 151.568 46.328L151.688 44.36C151.712 43.936 151.648 43.632 151.496 43.448C151.344 43.256 151.008 43.16 150.488 43.16H149.168V42.2H150.488C151.008 42.2 151.344 42.108 151.496 41.924C151.648 41.732 151.712 41.424 151.688 41L151.568 39.032C151.544 38.608 151.62 38.248 151.796 37.952C151.972 37.656 152.228 37.432 152.564 37.28C152.908 37.12 153.316 37.04 153.788 37.04H154.328V38H153.788C153.412 38 153.124 38.088 152.924 38.264C152.724 38.432 152.632 38.688 152.648 39.032L152.768 41C152.8 41.52 152.676 41.936 152.396 42.248C152.116 42.552 151.72 42.704 151.208 42.704V42.644C151.712 42.644 152.104 42.8 152.384 43.112C152.672 43.424 152.8 43.84 152.768 44.36L152.648 46.328C152.632 46.672 152.724 46.928 152.924 47.096C153.124 47.272 153.412 47.36 153.788 47.36H154.328V48.32H153.788ZM158.644 48.68V47.108C157.892 47.044 157.3 46.804 156.868 46.388C156.444 45.964 156.224 45.408 156.208 44.72H157.288C157.288 45.112 157.404 45.432 157.636 45.68C157.876 45.928 158.212 46.08 158.644 46.136V42.992L158.32 42.896C157.72 42.712 157.256 42.404 156.928 41.972C156.608 41.54 156.448 41.032 156.448 40.448C156.448 39.808 156.644 39.28 157.036 38.864C157.436 38.448 157.972 38.208 158.644 38.144V36.56H159.364V38.132C160.028 38.196 160.56 38.436 160.96 38.852C161.36 39.268 161.564 39.804 161.572 40.46H160.492C160.492 40.084 160.392 39.78 160.192 39.548C160 39.308 159.724 39.16 159.364 39.104V42.08L159.844 42.236C160.428 42.42 160.88 42.732 161.2 43.172C161.52 43.612 161.68 44.128 161.68 44.72C161.68 45.376 161.468 45.92 161.044 46.352C160.628 46.784 160.068 47.036 159.364 47.108V48.68H158.644ZM159.364 46.136C159.756 46.072 160.06 45.92 160.276 45.68C160.492 45.44 160.6 45.128 160.6 44.744C160.6 44.392 160.504 44.084 160.312 43.82C160.128 43.556 159.86 43.372 159.508 43.268L159.364 43.22V46.136ZM158.644 42.332V39.104C158.292 39.16 158.016 39.296 157.816 39.512C157.624 39.728 157.528 40.008 157.528 40.352C157.528 40.768 157.656 41.12 157.912 41.408C158.168 41.688 158.536 41.864 159.016 41.936L158.644 42.332ZM165.839 48.68V47.108C165.087 47.044 164.495 46.804 164.063 46.388C163.639 45.964 163.419 45.408 163.403 44.72H164.483C164.483 45.112 164.599 45.432 164.831 45.68C165.071 45.928 165.407 46.08 165.839 46.136V42.992L165.515 42.896C164.915 42.712 164.451 42.404 164.123 41.972C163.803 41.54 163.643 41.032 163.643 40.448C163.643 39.808 163.839 39.28 164.231 38.864C164.631 38.448 165.167 38.208 165.839 38.144V36.56H166.559V38.132C167.223 38.196 167.755 38.436 168.155 38.852C168.555 39.268 168.759 39.804 168.767 40.46H167.687C167.687 40.084 167.587 39.78 167.387 39.548C167.195 39.308 166.919 39.16 166.559 39.104V42.08L167.039 42.236C167.623 42.42 168.075 42.732 168.395 43.172C168.715 43.612 168.875 44.128 168.875 44.72C168.875 45.376 168.663 45.92 168.239 46.352C167.823 46.784 167.263 47.036 166.559 47.108V48.68H165.839ZM166.559 46.136C166.951 46.072 167.255 45.92 167.471 45.68C167.687 45.44 167.795 45.128 167.795 44.744C167.795 44.392 167.699 44.084 167.507 43.82C167.323 43.556 167.055 43.372 166.703 43.268L166.559 43.22V46.136ZM165.839 42.332V39.104C165.487 39.16 165.211 39.296 165.011 39.512C164.819 39.728 164.723 40.008 164.723 40.352C164.723 40.768 164.851 41.12 165.107 41.408C165.363 41.688 165.731 41.864 166.211 41.936L165.839 42.332ZM173.034 48.68V47.108C172.282 47.044 171.69 46.804 171.258 46.388C170.834 45.964 170.614 45.408 170.598 44.72H171.678C171.678 45.112 171.794 45.432 172.026 45.68C172.266 45.928 172.602 46.08 173.034 46.136V42.992L172.71 42.896C172.11 42.712 171.646 42.404 171.318 41.972C170.998 41.54 170.838 41.032 170.838 40.448C170.838 39.808 171.034 39.28 171.426 38.864C171.826 38.448 172.362 38.208 173.034 38.144V36.56H173.754V38.132C174.418 38.196 174.95 38.436 175.35 38.852C175.75 39.268 175.954 39.804 175.962 40.46H174.882C174.882 40.084 174.782 39.78 174.582 39.548C174.39 39.308 174.114 39.16 173.754 39.104V42.08L174.234 42.236C174.818 42.42 175.27 42.732 175.59 43.172C175.91 43.612 176.07 44.128 176.07 44.72C176.07 45.376 175.858 45.92 175.434 46.352C175.018 46.784 174.458 47.036 173.754 47.108V48.68H173.034ZM173.754 46.136C174.146 46.072 174.45 45.92 174.666 45.68C174.882 45.44 174.99 45.128 174.99 44.744C174.99 44.392 174.894 44.084 174.702 43.82C174.518 43.556 174.25 43.372 173.898 43.268L173.754 43.22V46.136ZM173.034 42.332V39.104C172.682 39.16 172.406 39.296 172.206 39.512C172.014 39.728 171.918 40.008 171.918 40.352C171.918 40.768 172.046 41.12 172.302 41.408C172.558 41.688 172.926 41.864 173.406 41.936L173.034 42.332ZM177.95 48.32V47.36H178.49C178.866 47.36 179.154 47.272 179.354 47.096C179.554 46.928 179.646 46.672 179.63 46.328L179.51 44.36C179.478 43.84 179.602 43.424 179.882 43.112C180.17 42.8 180.566 42.644 181.07 42.644V42.704C180.558 42.704 180.162 42.552 179.882 42.248C179.602 41.936 179.478 41.52 179.51 41L179.63 39.032C179.646 38.688 179.554 38.432 179.354 38.264C179.154 38.088 178.866 38 178.49 38H177.95V37.04H178.49C178.962 37.04 179.366 37.12 179.702 37.28C180.046 37.432 180.306 37.656 180.482 37.952C180.658 38.248 180.734 38.608 180.71 39.032L180.59 41C180.566 41.424 180.63 41.732 180.782 41.924C180.934 42.108 181.27 42.2 181.79 42.2H183.11V43.16H181.79C181.278 43.16 180.942 43.256 180.782 43.448C180.63 43.632 180.566 43.936 180.59 44.36L180.71 46.328C180.734 46.744 180.658 47.1 180.482 47.396C180.306 47.7 180.046 47.928 179.702 48.08C179.366 48.24 178.962 48.32 178.49 48.32H177.95ZM185.085 42.92L187.233 38.24H188.241L190.365 42.92H189.393L188.049 39.824C187.985 39.664 187.925 39.512 187.869 39.368C187.821 39.216 187.785 39.1 187.761 39.02C187.729 39.1 187.685 39.216 187.629 39.368C187.573 39.512 187.509 39.664 187.437 39.824L186.057 42.92H185.085ZM202.416 49.16C201.736 49.16 201.144 49.016 200.64 48.728C200.136 48.448 199.744 48.044 199.464 47.516C199.192 46.996 199.056 46.384 199.056 45.68V41.6C199.056 40.88 199.184 40.26 199.44 39.74C199.704 39.22 200.076 38.82 200.556 38.54C201.044 38.26 201.624 38.12 202.296 38.12C202.904 38.12 203.428 38.24 203.868 38.48C204.308 38.712 204.644 39.048 204.876 39.488C205.116 39.928 205.236 40.452 205.236 41.06V46.22H204.384V45.56H204.048L204.276 45.32C204.276 45.624 204.16 45.872 203.928 46.064C203.696 46.248 203.388 46.34 203.004 46.34C202.484 46.34 202.084 46.184 201.804 45.872C201.532 45.552 201.396 45.088 201.396 44.48V43.04C201.396 42.432 201.532 41.972 201.804 41.66C202.084 41.34 202.484 41.18 203.004 41.18C203.388 41.18 203.696 41.276 203.928 41.468C204.16 41.652 204.276 41.9 204.276 42.212L204.108 41.96H204.396L204.276 41.12V41.06C204.276 40.604 204.2 40.22 204.048 39.908C203.896 39.596 203.672 39.36 203.376 39.2C203.088 39.04 202.728 38.96 202.296 38.96C201.576 38.96 201.016 39.192 200.616 39.656C200.216 40.12 200.016 40.768 200.016 41.6V45.68C200.016 46.48 200.228 47.108 200.652 47.564C201.084 48.028 201.672 48.26 202.416 48.26H203.256V49.16H202.416ZM203.316 45.584C203.644 45.584 203.884 45.484 204.036 45.284C204.196 45.084 204.276 44.776 204.276 44.36V43.028C204.276 42.652 204.196 42.376 204.036 42.2C203.884 42.024 203.644 41.936 203.316 41.936C202.996 41.936 202.756 42.028 202.596 42.212C202.436 42.388 202.356 42.664 202.356 43.04V44.48C202.356 44.856 202.436 45.136 202.596 45.32C202.756 45.496 202.996 45.584 203.316 45.584ZM214.886 48.92L215.846 45.188H217.406L215.846 48.92H214.886Z" fill="#FF6188"/>
<path d="M194.896 47.12C194.184 47.12 193.6 46.936 193.144 46.568C192.688 46.2 192.42 45.704 192.34 45.08H193.42C193.46 45.424 193.608 45.692 193.864 45.884C194.12 46.068 194.468 46.16 194.908 46.16C195.412 46.16 195.788 46.024 196.036 45.752C196.292 45.48 196.42 45.096 196.42 44.6V43.748C196.42 43.252 196.292 42.868 196.036 42.596C195.788 42.324 195.416 42.188 194.92 42.188C194.608 42.188 194.336 42.272 194.104 42.44C193.872 42.6 193.704 42.816 193.6 43.088H192.52L192.58 38.24H197.188V39.224H193.624L193.588 42.14H193.924L193.588 42.452C193.588 42.076 193.736 41.78 194.032 41.564C194.336 41.348 194.74 41.24 195.244 41.24C195.956 41.232 196.508 41.452 196.9 41.9C197.3 42.34 197.5 42.956 197.5 43.748V44.6C197.5 45.376 197.272 45.992 196.816 46.448C196.36 46.896 195.72 47.12 194.896 47.12Z" fill="#74C7EC"/>
<path d="M206.815 47V45.896L209.491 43.052C209.947 42.564 210.279 42.132 210.487 41.756C210.695 41.372 210.799 41.004 210.799 40.652C210.799 40.164 210.663 39.78 210.391 39.5C210.127 39.22 209.763 39.08 209.299 39.08C208.787 39.08 208.383 39.224 208.087 39.512C207.799 39.8 207.655 40.196 207.655 40.7H206.575C206.591 40.172 206.711 39.716 206.935 39.332C207.167 38.94 207.483 38.64 207.883 38.432C208.291 38.224 208.763 38.12 209.299 38.12C209.827 38.12 210.283 38.224 210.667 38.432C211.059 38.632 211.359 38.92 211.567 39.296C211.775 39.672 211.879 40.12 211.879 40.64C211.879 41.136 211.747 41.628 211.483 42.116C211.219 42.604 210.787 43.16 210.187 43.784L208.027 46.016H212.023V47H206.815ZM221.206 47V45.896L223.882 43.052C224.338 42.564 224.67 42.132 224.878 41.756C225.086 41.372 225.19 41.004 225.19 40.652C225.19 40.164 225.054 39.78 224.782 39.5C224.518 39.22 224.154 39.08 223.69 39.08C223.178 39.08 222.774 39.224 222.478 39.512C222.19 39.8 222.046 40.196 222.046 40.7H220.966C220.982 40.172 221.102 39.716 221.326 39.332C221.558 38.94 221.874 38.64 222.274 38.432C222.682 38.224 223.154 38.12 223.69 38.12C224.218 38.12 224.674 38.224 225.058 38.432C225.45 38.632 225.75 38.92 225.958 39.296C226.166 39.672 226.27 40.12 226.27 40.64C226.27 41.136 226.138 41.628 225.874 42.116C225.61 42.604 225.178 43.16 224.578 43.784L222.418 46.016H226.414V47H221.206Z" fill="#42C5FF"/>
<path d="M9 86.5H323" stroke="#484848" stroke-linecap="round"/>
<path d="M167 65C167 64.4477 166.552 64 166 64C165.448 64 165 64.4477 165 65L167 65ZM165.293 108.707C165.683 109.098 166.317 109.098 166.707 108.707L173.071 102.343C173.462 101.953 173.462 101.319 173.071 100.929C172.681 100.538 172.047 100.538 171.657 100.929L166 106.586L160.343 100.929C159.953 100.538 159.319 100.538 158.929 100.929C158.538 101.319 158.538 101.953 158.929 102.343L165.293 108.707ZM165 65L165 108L167 108L167 65L165 65Z" fill="white"/>
<path d="M26.8125 106.812H51.1875L48.375 128.375L39 132.125L29.625 128.375L26.8125 106.812Z" stroke="#FAB387" stroke-linecap="round" stroke-linejoin="round"/>
<path d="M44.625 112.438H33.375L33.8438 118.062H44.1562L43.6875 123.688L39 125.562L34.3125 123.688L34.1625 121.812" stroke="#CDD6F4" stroke-linecap="round" stroke-linejoin="round"/>
<path d="M26.8125 169.812H51.1875L48.375 191.375L39 195.125L29.625 191.375L26.8125 169.812Z" stroke="#FAB387" stroke-linecap="round" stroke-linejoin="round"/>
<path d="M44.625 175.438H33.375L33.8438 181.062H44.1562L43.6875 186.688L39 188.562L34.3125 186.688L34.1625 184.812" stroke="#CDD6F4" stroke-linecap="round" stroke-linejoin="round"/>
<path d="M68.104 122V113.24H69.184V115.4V116.66H69.412L69.184 116.912C69.184 116.392 69.34 115.992 69.652 115.712C69.964 115.424 70.396 115.28 70.948 115.28C71.612 115.28 72.14 115.484 72.532 115.892C72.924 116.3 73.12 116.856 73.12 117.56V122H72.04V117.68C72.04 117.208 71.912 116.844 71.656 116.588C71.408 116.324 71.068 116.192 70.636 116.192C70.188 116.192 69.832 116.332 69.568 116.612C69.312 116.892 69.184 117.288 69.184 117.8V122H68.104ZM77.7953 122.12C77.2753 122.12 76.8193 122.016 76.4273 121.808C76.0433 121.6 75.7433 121.308 75.5273 120.932C75.3193 120.548 75.2153 120.104 75.2153 119.6V117.8C75.2153 117.288 75.3193 116.844 75.5273 116.468C75.7433 116.092 76.0433 115.8 76.4273 115.592C76.8193 115.384 77.2753 115.28 77.7953 115.28C78.3153 115.28 78.7673 115.384 79.1513 115.592C79.5433 115.8 79.8433 116.092 80.0513 116.468C80.2673 116.844 80.3753 117.288 80.3753 117.8V118.964H76.2713V119.6C76.2713 120.12 76.4033 120.52 76.6673 120.8C76.9313 121.072 77.3073 121.208 77.7953 121.208C78.2113 121.208 78.5473 121.136 78.8033 120.992C79.0593 120.84 79.2153 120.616 79.2713 120.32H80.3513C80.2793 120.872 80.0073 121.312 79.5353 121.64C79.0713 121.96 78.4913 122.12 77.7953 122.12ZM79.3193 118.244V117.8C79.3193 117.28 79.1873 116.88 78.9233 116.6C78.6673 116.32 78.2913 116.18 77.7953 116.18C77.3073 116.18 76.9313 116.32 76.6673 116.6C76.4033 116.88 76.2713 117.28 76.2713 117.8V118.148H79.4033L79.3193 118.244ZM85.8906 122C85.5066 122 85.1706 121.924 84.8826 121.772C84.5946 121.62 84.3706 121.404 84.2106 121.124C84.0506 120.844 83.9706 120.516 83.9706 120.14V114.224H81.7506V113.24H85.0506V120.14C85.0506 120.412 85.1266 120.628 85.2786 120.788C85.4306 120.94 85.6346 121.016 85.8906 121.016H87.9906V122H85.8906ZM93.0859 122C92.7019 122 92.3659 121.924 92.0779 121.772C91.7899 121.62 91.5659 121.404 91.4059 121.124C91.2459 120.844 91.1659 120.516 91.1659 120.14V114.224H88.9459V113.24H92.2459V120.14C92.2459 120.412 92.3219 120.628 92.4739 120.788C92.6259 120.94 92.8299 121.016 93.0859 121.016H95.1859V122H93.0859ZM99.3813 122.096C98.8533 122.096 98.3973 121.996 98.0133 121.796C97.6293 121.596 97.3293 121.308 97.1133 120.932C96.9053 120.548 96.8013 120.096 96.8013 119.576V117.824C96.8013 117.296 96.9053 116.844 97.1133 116.468C97.3293 116.092 97.6293 115.804 98.0133 115.604C98.3973 115.404 98.8533 115.304 99.3813 115.304C99.9093 115.304 100.365 115.404 100.749 115.604C101.133 115.804 101.429 116.092 101.637 116.468C101.853 116.844 101.961 117.292 101.961 117.812V119.576C101.961 120.096 101.853 120.548 101.637 120.932C101.429 121.308 101.133 121.596 100.749 121.796C100.365 121.996 99.9093 122.096 99.3813 122.096ZM99.3813 121.136C99.8533 121.136 100.221 121.004 100.485 120.74C100.749 120.476 100.881 120.088 100.881 119.576V117.824C100.881 117.312 100.749 116.924 100.485 116.66C100.221 116.396 99.8533 116.264 99.3813 116.264C98.9173 116.264 98.5493 116.396 98.2773 116.66C98.0133 116.924 97.8813 117.312 97.8813 117.824V119.576C97.8813 120.088 98.0133 120.476 98.2773 120.74C98.5493 121.004 98.9173 121.136 99.3813 121.136ZM104.081 122V120.896L106.757 118.052C107.213 117.564 107.545 117.132 107.753 116.756C107.961 116.372 108.065 116.004 108.065 115.652C108.065 115.164 107.929 114.78 107.657 114.5C107.393 114.22 107.029 114.08 106.565 114.08C106.053 114.08 105.649 114.224 105.353 114.512C105.065 114.8 104.921 115.196 104.921 115.7H103.841C103.857 115.172 103.977 114.716 104.201 114.332C104.433 113.94 104.749 113.64 105.149 113.432C105.557 113.224 106.029 113.12 106.565 113.12C107.093 113.12 107.549 113.224 107.933 113.432C108.325 113.632 108.625 113.92 108.833 114.296C109.041 114.672 109.145 115.12 109.145 115.64C109.145 116.136 109.013 116.628 108.749 117.116C108.485 117.604 108.053 118.16 107.453 118.784L105.293 121.016H109.289V122H104.081ZM113.772 122.12C113.468 122.12 113.224 122.032 113.04 121.856C112.864 121.68 112.776 121.444 112.776 121.148C112.776 120.836 112.864 120.588 113.04 120.404C113.224 120.22 113.468 120.128 113.772 120.128C114.076 120.128 114.316 120.22 114.492 120.404C114.676 120.588 114.768 120.836 114.768 121.148C114.768 121.444 114.676 121.68 114.492 121.856C114.316 122.032 114.076 122.12 113.772 122.12ZM118.471 122V113.24H119.551V115.4V116.66H119.779L119.551 116.912C119.551 116.392 119.707 115.992 120.019 115.712C120.331 115.424 120.763 115.28 121.315 115.28C121.979 115.28 122.507 115.484 122.899 115.892C123.291 116.3 123.487 116.856 123.487 117.56V122H122.407V117.68C122.407 117.208 122.279 116.844 122.023 116.588C121.775 116.324 121.435 116.192 121.003 116.192C120.555 116.192 120.199 116.332 119.935 116.612C119.679 116.892 119.551 117.288 119.551 117.8V122H118.471ZM128.883 122C128.315 122 127.871 121.848 127.551 121.544C127.239 121.24 127.083 120.812 127.083 120.26V116.384H125.223V115.4H127.083V113.54H128.163V115.4H130.803V116.384H128.163V120.26C128.163 120.764 128.403 121.016 128.883 121.016H130.683V122H128.883ZM132.55 122V115.4H133.498V116.192H133.714L133.546 116.48C133.546 116.112 133.642 115.82 133.834 115.604C134.034 115.388 134.302 115.28 134.638 115.28C135.006 115.28 135.29 115.416 135.49 115.688C135.69 115.96 135.79 116.344 135.79 116.84L135.466 116.192H135.97L135.742 116.48C135.742 116.112 135.842 115.82 136.042 115.604C136.25 115.388 136.522 115.28 136.858 115.28C137.274 115.28 137.594 115.436 137.818 115.748C138.05 116.06 138.166 116.472 138.166 116.984V122H137.17V116.972C137.17 116.7 137.11 116.488 136.99 116.336C136.878 116.184 136.71 116.108 136.486 116.108C136.27 116.108 136.098 116.184 135.97 116.336C135.85 116.48 135.79 116.688 135.79 116.96V122H134.926V116.972C134.926 116.692 134.862 116.48 134.734 116.336C134.614 116.184 134.442 116.108 134.218 116.108C133.994 116.108 133.826 116.184 133.714 116.336C133.602 116.48 133.546 116.688 133.546 116.96V122H132.55ZM143.453 122C143.069 122 142.733 121.924 142.445 121.772C142.157 121.62 141.933 121.404 141.773 121.124C141.613 120.844 141.533 120.516 141.533 120.14V114.224H139.313V113.24H142.613V120.14C142.613 120.412 142.689 120.628 142.841 120.788C142.993 120.94 143.197 121.016 143.453 121.016H145.553V122H143.453Z" fill="#FAB387"/>
<path d="M68.104 185V176.24H69.184V178.4V179.66H69.412L69.184 179.912C69.184 179.392 69.34 178.992 69.652 178.712C69.964 178.424 70.396 178.28 70.948 178.28C71.612 178.28 72.14 178.484 72.532 178.892C72.924 179.3 73.12 179.856 73.12 180.56V185H72.04V180.68C72.04 180.208 71.912 179.844 71.656 179.588C71.408 179.324 71.068 179.192 70.636 179.192C70.188 179.192 69.832 179.332 69.568 179.612C69.312 179.892 69.184 180.288 69.184 180.8V185H68.104ZM77.7953 185.12C77.2753 185.12 76.8193 185.016 76.4273 184.808C76.0433 184.6 75.7433 184.308 75.5273 183.932C75.3193 183.548 75.2153 183.104 75.2153 182.6V180.8C75.2153 180.288 75.3193 179.844 75.5273 179.468C75.7433 179.092 76.0433 178.8 76.4273 178.592C76.8193 178.384 77.2753 178.28 77.7953 178.28C78.3153 178.28 78.7673 178.384 79.1513 178.592C79.5433 178.8 79.8433 179.092 80.0513 179.468C80.2673 179.844 80.3753 180.288 80.3753 180.8V181.964H76.2713V182.6C76.2713 183.12 76.4033 183.52 76.6673 183.8C76.9313 184.072 77.3073 184.208 77.7953 184.208C78.2113 184.208 78.5473 184.136 78.8033 183.992C79.0593 183.84 79.2153 183.616 79.2713 183.32H80.3513C80.2793 183.872 80.0073 184.312 79.5353 184.64C79.0713 184.96 78.4913 185.12 77.7953 185.12ZM79.3193 181.244V180.8C79.3193 180.28 79.1873 179.88 78.9233 179.6C78.6673 179.32 78.2913 179.18 77.7953 179.18C77.3073 179.18 76.9313 179.32 76.6673 179.6C76.4033 179.88 76.2713 180.28 76.2713 180.8V181.148H79.4033L79.3193 181.244ZM85.8906 185C85.5066 185 85.1706 184.924 84.8826 184.772C84.5946 184.62 84.3706 184.404 84.2106 184.124C84.0506 183.844 83.9706 183.516 83.9706 183.14V177.224H81.7506V176.24H85.0506V183.14C85.0506 183.412 85.1266 183.628 85.2786 183.788C85.4306 183.94 85.6346 184.016 85.8906 184.016H87.9906V185H85.8906ZM93.0859 185C92.7019 185 92.3659 184.924 92.0779 184.772C91.7899 184.62 91.5659 184.404 91.4059 184.124C91.2459 183.844 91.1659 183.516 91.1659 183.14V177.224H88.9459V176.24H92.2459V183.14C92.2459 183.412 92.3219 183.628 92.4739 183.788C92.6259 183.94 92.8299 184.016 93.0859 184.016H95.1859V185H93.0859ZM99.3813 185.096C98.8533 185.096 98.3973 184.996 98.0133 184.796C97.6293 184.596 97.3293 184.308 97.1133 183.932C96.9053 183.548 96.8013 183.096 96.8013 182.576V180.824C96.8013 180.296 96.9053 179.844 97.1133 179.468C97.3293 179.092 97.6293 178.804 98.0133 178.604C98.3973 178.404 98.8533 178.304 99.3813 178.304C99.9093 178.304 100.365 178.404 100.749 178.604C101.133 178.804 101.429 179.092 101.637 179.468C101.853 179.844 101.961 180.292 101.961 180.812V182.576C101.961 183.096 101.853 183.548 101.637 183.932C101.429 184.308 101.133 184.596 100.749 184.796C100.365 184.996 99.9093 185.096 99.3813 185.096ZM99.3813 184.136C99.8533 184.136 100.221 184.004 100.485 183.74C100.749 183.476 100.881 183.088 100.881 182.576V180.824C100.881 180.312 100.749 179.924 100.485 179.66C100.221 179.396 99.8533 179.264 99.3813 179.264C98.9173 179.264 98.5493 179.396 98.2773 179.66C98.0133 179.924 97.8813 180.312 97.8813 180.824V182.576C97.8813 183.088 98.0133 183.476 98.2773 183.74C98.5493 184.004 98.9173 184.136 99.3813 184.136ZM107.897 185V183.08H103.937V181.388L107.405 176.24H108.581L105.017 181.616V182.096H107.897V179.96H108.977V185H107.897ZM113.772 185.12C113.468 185.12 113.224 185.032 113.04 184.856C112.864 184.68 112.776 184.444 112.776 184.148C112.776 183.836 112.864 183.588 113.04 183.404C113.224 183.22 113.468 183.128 113.772 183.128C114.076 183.128 114.316 183.22 114.492 183.404C114.676 183.588 114.768 183.836 114.768 184.148C114.768 184.444 114.676 184.68 114.492 184.856C114.316 185.032 114.076 185.12 113.772 185.12ZM118.471 185V176.24H119.551V178.4V179.66H119.779L119.551 179.912C119.551 179.392 119.707 178.992 120.019 178.712C120.331 178.424 120.763 178.28 121.315 178.28C121.979 178.28 122.507 178.484 122.899 178.892C123.291 179.3 123.487 179.856 123.487 180.56V185H122.407V180.68C122.407 180.208 122.279 179.844 122.023 179.588C121.775 179.324 121.435 179.192 121.003 179.192C120.555 179.192 120.199 179.332 119.935 179.612C119.679 179.892 119.551 180.288 119.551 180.8V185H118.471ZM128.883 185C128.315 185 127.871 184.848 127.551 184.544C127.239 184.24 127.083 183.812 127.083 183.26V179.384H125.223V178.4H127.083V176.54H128.163V178.4H130.803V179.384H128.163V183.26C128.163 183.764 128.403 184.016 128.883 184.016H130.683V185H128.883ZM132.55 185V178.4H133.498V179.192H133.714L133.546 179.48C133.546 179.112 133.642 178.82 133.834 178.604C134.034 178.388 134.302 178.28 134.638 178.28C135.006 178.28 135.29 178.416 135.49 178.688C135.69 178.96 135.79 179.344 135.79 179.84L135.466 179.192H135.97L135.742 179.48C135.742 179.112 135.842 178.82 136.042 178.604C136.25 178.388 136.522 178.28 136.858 178.28C137.274 178.28 137.594 178.436 137.818 178.748C138.05 179.06 138.166 179.472 138.166 179.984V185H137.17V179.972C137.17 179.7 137.11 179.488 136.99 179.336C136.878 179.184 136.71 179.108 136.486 179.108C136.27 179.108 136.098 179.184 135.97 179.336C135.85 179.48 135.79 179.688 135.79 179.96V185H134.926V179.972C134.926 179.692 134.862 179.48 134.734 179.336C134.614 179.184 134.442 179.108 134.218 179.108C133.994 179.108 133.826 179.184 133.714 179.336C133.602 179.48 133.546 179.688 133.546 179.96V185H132.55ZM143.453 185C143.069 185 142.733 184.924 142.445 184.772C142.157 184.62 141.933 184.404 141.773 184.124C141.613 183.844 141.533 183.516 141.533 183.14V177.224H139.313V176.24H142.613V183.14C142.613 183.412 142.689 183.628 142.841 183.788C142.993 183.94 143.197 184.016 143.453 184.016H145.553V185H143.453Z" fill="#FAB387"/>
<path d="M70.144 160.12C69.352 160.12 68.76 159.896 68.368 159.448C67.976 158.992 67.84 158.376 67.96 157.6L68.584 153.64C68.72 152.84 69.044 152.22 69.556 151.78C70.076 151.34 70.748 151.12 71.572 151.12C72.084 151.12 72.516 151.228 72.868 151.444C73.22 151.652 73.472 151.944 73.624 152.32C73.784 152.696 73.824 153.136 73.744 153.64H72.664C72.736 153.168 72.66 152.792 72.436 152.512C72.212 152.232 71.872 152.092 71.416 152.092C70.952 152.092 70.56 152.232 70.24 152.512C69.928 152.792 69.736 153.168 69.664 153.64L69.04 157.6C68.968 158.072 69.044 158.448 69.268 158.728C69.492 159.008 69.836 159.148 70.3 159.148C70.764 159.148 71.152 159.008 71.464 158.728C71.776 158.448 71.968 158.072 72.04 157.6H73.12C72.992 158.4 72.668 159.02 72.148 159.46C71.628 159.9 70.96 160.12 70.144 160.12ZM77.2433 160.12C76.4673 160.12 75.8873 159.896 75.5033 159.448C75.1193 158.992 74.9873 158.376 75.1073 157.6L75.3833 155.8C75.5033 155 75.8193 154.38 76.3313 153.94C76.8513 153.5 77.5193 153.28 78.3353 153.28C79.1113 153.28 79.6913 153.508 80.0753 153.964C80.4673 154.412 80.6033 155.02 80.4833 155.788L80.1953 157.6C80.0673 158.4 79.7433 159.02 79.2233 159.46C78.7113 159.9 78.0513 160.12 77.2433 160.12ZM77.3993 159.16C77.8713 159.16 78.2553 159.028 78.5513 158.764C78.8473 158.5 79.0353 158.112 79.1153 157.6L79.3913 155.8C79.4713 155.288 79.4073 154.9 79.1993 154.636C78.9913 154.372 78.6513 154.24 78.1793 154.24C77.7153 154.24 77.3313 154.372 77.0273 154.636C76.7313 154.9 76.5433 155.288 76.4633 155.8L76.1873 157.6C76.1073 158.112 76.1713 158.5 76.3793 158.764C76.5953 159.028 76.9353 159.16 77.3993 159.16ZM81.9666 160L83.0106 153.4H84.0906L83.8866 154.66H83.9106C84.0306 154.22 84.2626 153.88 84.6066 153.64C84.9506 153.4 85.3746 153.28 85.8786 153.28C86.5426 153.28 87.0386 153.484 87.3666 153.892C87.6946 154.3 87.8026 154.856 87.6906 155.56L86.9826 160H85.9026L86.5746 155.752C86.6546 155.248 86.5906 154.864 86.3826 154.6C86.1746 154.328 85.8546 154.192 85.4226 154.192C84.9746 154.192 84.5986 154.332 84.2946 154.612C83.9906 154.892 83.7946 155.288 83.7066 155.8L83.0466 160H81.9666ZM92.3179 160C91.7739 160 91.3619 159.844 91.0819 159.532C90.8099 159.212 90.7139 158.788 90.7939 158.26L91.4059 154.384H89.5099L89.6659 153.4H91.5619L91.8619 151.54H92.9419L92.6419 153.4H95.3419L95.1859 154.384H92.4859L91.8739 158.26C91.8419 158.484 91.8779 158.668 91.9819 158.812C92.0939 158.948 92.2579 159.016 92.4739 159.016H94.3939L94.2379 160H92.3179ZM98.8293 160.12C98.0533 160.12 97.4653 159.888 97.0653 159.424C96.6653 158.952 96.5293 158.304 96.6573 157.48L96.9093 155.92C97.0453 155.08 97.3733 154.432 97.8933 153.976C98.4213 153.512 99.0973 153.28 99.9213 153.28C100.425 153.28 100.857 153.372 101.217 153.556C101.577 153.74 101.841 153.992 102.009 154.312C102.185 154.632 102.241 155 102.177 155.416C102.097 155.936 101.885 156.332 101.541 156.604C101.205 156.868 100.765 157 100.221 157H97.7973L97.7013 157.6C97.6213 158.088 97.6973 158.476 97.9293 158.764C98.1693 159.044 98.5213 159.184 98.9853 159.184C99.3853 159.184 99.7253 159.108 100.005 158.956C100.293 158.796 100.485 158.584 100.581 158.32H101.661C101.501 158.888 101.173 159.332 100.677 159.652C100.181 159.964 99.5653 160.12 98.8293 160.12ZM97.9293 156.136H100.341C100.533 156.136 100.693 156.08 100.821 155.968C100.957 155.856 101.045 155.672 101.085 155.416C101.149 155.04 101.057 154.74 100.809 154.516C100.569 154.284 100.225 154.168 99.7773 154.168C99.2893 154.168 98.8853 154.312 98.5653 154.6C98.2533 154.88 98.0573 155.28 97.9773 155.8L97.9293 156.136ZM103.553 160L104.597 153.4H105.677L105.473 154.66H105.497C105.617 154.22 105.849 153.88 106.193 153.64C106.537 153.4 106.961 153.28 107.465 153.28C108.129 153.28 108.625 153.484 108.953 153.892C109.281 154.3 109.389 154.856 109.277 155.56L108.569 160H107.489L108.161 155.752C108.241 155.248 108.177 154.864 107.969 154.6C107.761 154.328 107.441 154.192 107.009 154.192C106.561 154.192 106.185 154.332 105.881 154.612C105.577 154.892 105.381 155.288 105.293 155.8L104.633 160H103.553ZM113.904 160C113.36 160 112.948 159.844 112.668 159.532C112.396 159.212 112.3 158.788 112.38 158.26L112.992 154.384H111.096L111.252 153.4H113.148L113.448 151.54H114.528L114.228 153.4H116.928L116.772 154.384H114.072L113.46 158.26C113.428 158.484 113.464 158.668 113.568 158.812C113.68 158.948 113.844 159.016 114.06 159.016H115.98L115.824 160H113.904ZM121.219 155.08C120.923 155.08 120.695 155 120.535 154.84C120.383 154.672 120.327 154.452 120.367 154.18C120.407 153.908 120.531 153.692 120.739 153.532C120.955 153.364 121.211 153.28 121.507 153.28C121.811 153.28 122.039 153.364 122.191 153.532C122.343 153.692 122.399 153.908 122.359 154.18C122.319 154.452 122.195 154.672 121.987 154.84C121.779 155 121.523 155.08 121.219 155.08ZM120.415 160.12C120.119 160.12 119.891 160.04 119.731 159.88C119.579 159.712 119.523 159.492 119.563 159.22C119.603 158.948 119.727 158.732 119.935 158.572C120.151 158.404 120.407 158.32 120.703 158.32C121.007 158.32 121.235 158.404 121.387 158.572C121.539 158.732 121.595 158.948 121.555 159.22C121.515 159.492 121.391 159.712 121.183 159.88C120.975 160.04 120.719 160.12 120.415 160.12ZM134.806 160.12C133.998 160.12 133.394 159.888 132.994 159.424C132.594 158.952 132.454 158.324 132.574 157.54L133.186 153.7C133.322 152.876 133.654 152.24 134.182 151.792C134.71 151.344 135.394 151.12 136.234 151.12C137.042 151.12 137.646 151.356 138.046 151.828C138.454 152.292 138.594 152.916 138.466 153.7L137.854 157.54C137.726 158.364 137.398 159 136.87 159.448C136.342 159.896 135.654 160.12 134.806 160.12ZM134.962 159.196C135.442 159.196 135.85 159.044 136.186 158.74C136.53 158.428 136.738 158.028 136.81 157.54L137.422 153.7C137.502 153.212 137.418 152.816 137.17 152.512C136.93 152.2 136.57 152.044 136.09 152.044C135.61 152.044 135.198 152.2 134.854 152.512C134.518 152.816 134.31 153.212 134.23 153.7L133.618 157.54C133.546 158.028 133.63 158.428 133.87 158.74C134.118 159.044 134.482 159.196 134.962 159.196ZM135.418 156.28C135.202 156.28 135.038 156.22 134.926 156.1C134.814 155.98 134.774 155.808 134.806 155.584C134.846 155.368 134.938 155.204 135.082 155.092C135.234 154.972 135.418 154.912 135.634 154.912C135.85 154.912 136.014 154.972 136.126 155.092C136.246 155.204 136.286 155.368 136.246 155.584C136.214 155.808 136.122 155.98 135.97 156.1C135.818 156.22 135.634 156.28 135.418 156.28ZM142.001 160.12C141.193 160.12 140.589 159.888 140.189 159.424C139.789 158.952 139.649 158.324 139.769 157.54L140.381 153.7C140.517 152.876 140.849 152.24 141.377 151.792C141.905 151.344 142.589 151.12 143.429 151.12C144.237 151.12 144.841 151.356 145.241 151.828C145.649 152.292 145.789 152.916 145.661 153.7L145.049 157.54C144.921 158.364 144.593 159 144.065 159.448C143.537 159.896 142.849 160.12 142.001 160.12ZM142.157 159.196C142.637 159.196 143.045 159.044 143.381 158.74C143.725 158.428 143.933 158.028 144.005 157.54L144.617 153.7C144.697 153.212 144.613 152.816 144.365 152.512C144.125 152.2 143.765 152.044 143.285 152.044C142.805 152.044 142.393 152.2 142.049 152.512C141.713 152.816 141.505 153.212 141.425 153.7L140.813 157.54C140.741 158.028 140.825 158.428 141.065 158.74C141.313 159.044 141.677 159.196 142.157 159.196ZM142.613 156.28C142.397 156.28 142.233 156.22 142.121 156.1C142.009 155.98 141.969 155.808 142.001 155.584C142.041 155.368 142.133 155.204 142.277 155.092C142.429 154.972 142.613 154.912 142.829 154.912C143.045 154.912 143.209 154.972 143.321 155.092C143.441 155.204 143.481 155.368 143.441 155.584C143.409 155.808 143.317 155.98 143.165 156.1C143.013 156.22 142.829 156.28 142.613 156.28ZM146.652 160L146.808 159.004L150.216 155.884C150.704 155.436 151.064 155.036 151.296 154.684C151.536 154.332 151.684 153.988 151.74 153.652C151.812 153.172 151.732 152.792 151.5 152.512C151.276 152.224 150.928 152.08 150.456 152.08C149.968 152.08 149.556 152.228 149.22 152.524C148.892 152.812 148.688 153.204 148.608 153.7H147.528C147.688 152.876 148.032 152.24 148.56 151.792C149.096 151.344 149.776 151.12 150.6 151.12C151.408 151.12 152.012 151.348 152.412 151.804C152.82 152.26 152.964 152.88 152.844 153.664C152.78 154.08 152.604 154.52 152.316 154.984C152.028 155.448 151.564 155.968 150.924 156.544L148.176 159.016H152.1L151.944 160H146.652Z" fill="#868686"/>
<path d="M70.144 223.12C69.352 223.12 68.76 222.896 68.368 222.448C67.976 221.992 67.84 221.376 67.96 220.6L68.584 216.64C68.72 215.84 69.044 215.22 69.556 214.78C70.076 214.34 70.748 214.12 71.572 214.12C72.084 214.12 72.516 214.228 72.868 214.444C73.22 214.652 73.472 214.944 73.624 215.32C73.784 215.696 73.824 216.136 73.744 216.64H72.664C72.736 216.168 72.66 215.792 72.436 215.512C72.212 215.232 71.872 215.092 71.416 215.092C70.952 215.092 70.56 215.232 70.24 215.512C69.928 215.792 69.736 216.168 69.664 216.64L69.04 220.6C68.968 221.072 69.044 221.448 69.268 221.728C69.492 222.008 69.836 222.148 70.3 222.148C70.764 222.148 71.152 222.008 71.464 221.728C71.776 221.448 71.968 221.072 72.04 220.6H73.12C72.992 221.4 72.668 222.02 72.148 222.46C71.628 222.9 70.96 223.12 70.144 223.12ZM77.2433 223.12C76.4673 223.12 75.8873 222.896 75.5033 222.448C75.1193 221.992 74.9873 221.376 75.1073 220.6L75.3833 218.8C75.5033 218 75.8193 217.38 76.3313 216.94C76.8513 216.5 77.5193 216.28 78.3353 216.28C79.1113 216.28 79.6913 216.508 80.0753 216.964C80.4673 217.412 80.6033 218.02 80.4833 218.788L80.1953 220.6C80.0673 221.4 79.7433 222.02 79.2233 222.46C78.7113 222.9 78.0513 223.12 77.2433 223.12ZM77.3993 222.16C77.8713 222.16 78.2553 222.028 78.5513 221.764C78.8473 221.5 79.0353 221.112 79.1153 220.6L79.3913 218.8C79.4713 218.288 79.4073 217.9 79.1993 217.636C78.9913 217.372 78.6513 217.24 78.1793 217.24C77.7153 217.24 77.3313 217.372 77.0273 217.636C76.7313 217.9 76.5433 218.288 76.4633 218.8L76.1873 220.6C76.1073 221.112 76.1713 221.5 76.3793 221.764C76.5953 222.028 76.9353 222.16 77.3993 222.16ZM81.9666 223L83.0106 216.4H84.0906L83.8866 217.66H83.9106C84.0306 217.22 84.2626 216.88 84.6066 216.64C84.9506 216.4 85.3746 216.28 85.8786 216.28C86.5426 216.28 87.0386 216.484 87.3666 216.892C87.6946 217.3 87.8026 217.856 87.6906 218.56L86.9826 223H85.9026L86.5746 218.752C86.6546 218.248 86.5906 217.864 86.3826 217.6C86.1746 217.328 85.8546 217.192 85.4226 217.192C84.9746 217.192 84.5986 217.332 84.2946 217.612C83.9906 217.892 83.7946 218.288 83.7066 218.8L83.0466 223H81.9666ZM92.3179 223C91.7739 223 91.3619 222.844 91.0819 222.532C90.8099 222.212 90.7139 221.788 90.7939 221.26L91.4059 217.384H89.5099L89.6659 216.4H91.5619L91.8619 214.54H92.9419L92.6419 216.4H95.3419L95.1859 217.384H92.4859L91.8739 221.26C91.8419 221.484 91.8779 221.668 91.9819 221.812C92.0939 221.948 92.2579 222.016 92.4739 222.016H94.3939L94.2379 223H92.3179ZM98.8293 223.12C98.0533 223.12 97.4653 222.888 97.0653 222.424C96.6653 221.952 96.5293 221.304 96.6573 220.48L96.9093 218.92C97.0453 218.08 97.3733 217.432 97.8933 216.976C98.4213 216.512 99.0973 216.28 99.9213 216.28C100.425 216.28 100.857 216.372 101.217 216.556C101.577 216.74 101.841 216.992 102.009 217.312C102.185 217.632 102.241 218 102.177 218.416C102.097 218.936 101.885 219.332 101.541 219.604C101.205 219.868 100.765 220 100.221 220H97.7973L97.7013 220.6C97.6213 221.088 97.6973 221.476 97.9293 221.764C98.1693 222.044 98.5213 222.184 98.9853 222.184C99.3853 222.184 99.7253 222.108 100.005 221.956C100.293 221.796 100.485 221.584 100.581 221.32H101.661C101.501 221.888 101.173 222.332 100.677 222.652C100.181 222.964 99.5653 223.12 98.8293 223.12ZM97.9293 219.136H100.341C100.533 219.136 100.693 219.08 100.821 218.968C100.957 218.856 101.045 218.672 101.085 218.416C101.149 218.04 101.057 217.74 100.809 217.516C100.569 217.284 100.225 217.168 99.7773 217.168C99.2893 217.168 98.8853 217.312 98.5653 217.6C98.2533 217.88 98.0573 218.28 97.9773 218.8L97.9293 219.136ZM103.553 223L104.597 216.4H105.677L105.473 217.66H105.497C105.617 217.22 105.849 216.88 106.193 216.64C106.537 216.4 106.961 216.28 107.465 216.28C108.129 216.28 108.625 216.484 108.953 216.892C109.281 217.3 109.389 217.856 109.277 218.56L108.569 223H107.489L108.161 218.752C108.241 218.248 108.177 217.864 107.969 217.6C107.761 217.328 107.441 217.192 107.009 217.192C106.561 217.192 106.185 217.332 105.881 217.612C105.577 217.892 105.381 218.288 105.293 218.8L104.633 223H103.553ZM113.904 223C113.36 223 112.948 222.844 112.668 222.532C112.396 222.212 112.3 221.788 112.38 221.26L112.992 217.384H111.096L111.252 216.4H113.148L113.448 214.54H114.528L114.228 216.4H116.928L116.772 217.384H114.072L113.46 221.26C113.428 221.484 113.464 221.668 113.568 221.812C113.68 221.948 113.844 222.016 114.06 222.016H115.98L115.824 223H113.904ZM121.219 218.08C120.923 218.08 120.695 218 120.535 217.84C120.383 217.672 120.327 217.452 120.367 217.18C120.407 216.908 120.531 216.692 120.739 216.532C120.955 216.364 121.211 216.28 121.507 216.28C121.811 216.28 122.039 216.364 122.191 216.532C122.343 216.692 122.399 216.908 122.359 217.18C122.319 217.452 122.195 217.672 121.987 217.84C121.779 218 121.523 218.08 121.219 218.08ZM120.415 223.12C120.119 223.12 119.891 223.04 119.731 222.88C119.579 222.712 119.523 222.492 119.563 222.22C119.603 221.948 119.727 221.732 119.935 221.572C120.151 221.404 120.407 221.32 120.703 221.32C121.007 221.32 121.235 221.404 121.387 221.572C121.539 221.732 121.595 221.948 121.555 222.22C121.515 222.492 121.391 222.712 121.183 222.88C120.975 223.04 120.719 223.12 120.415 223.12ZM134.806 223.12C133.998 223.12 133.394 222.888 132.994 222.424C132.594 221.952 132.454 221.324 132.574 220.54L133.186 216.7C133.322 215.876 133.654 215.24 134.182 214.792C134.71 214.344 135.394 214.12 136.234 214.12C137.042 214.12 137.646 214.356 138.046 214.828C138.454 215.292 138.594 215.916 138.466 216.7L137.854 220.54C137.726 221.364 137.398 222 136.87 222.448C136.342 222.896 135.654 223.12 134.806 223.12ZM134.962 222.196C135.442 222.196 135.85 222.044 136.186 221.74C136.53 221.428 136.738 221.028 136.81 220.54L137.422 216.7C137.502 216.212 137.418 215.816 137.17 215.512C136.93 215.2 136.57 215.044 136.09 215.044C135.61 215.044 135.198 215.2 134.854 215.512C134.518 215.816 134.31 216.212 134.23 216.7L133.618 220.54C133.546 221.028 133.63 221.428 133.87 221.74C134.118 222.044 134.482 222.196 134.962 222.196ZM135.418 219.28C135.202 219.28 135.038 219.22 134.926 219.1C134.814 218.98 134.774 218.808 134.806 218.584C134.846 218.368 134.938 218.204 135.082 218.092C135.234 217.972 135.418 217.912 135.634 217.912C135.85 217.912 136.014 217.972 136.126 218.092C136.246 218.204 136.286 218.368 136.246 218.584C136.214 218.808 136.122 218.98 135.97 219.1C135.818 219.22 135.634 219.28 135.418 219.28ZM142.001 223.12C141.193 223.12 140.589 222.888 140.189 222.424C139.789 221.952 139.649 221.324 139.769 220.54L140.381 216.7C140.517 215.876 140.849 215.24 141.377 214.792C141.905 214.344 142.589 214.12 143.429 214.12C144.237 214.12 144.841 214.356 145.241 214.828C145.649 215.292 145.789 215.916 145.661 216.7L145.049 220.54C144.921 221.364 144.593 222 144.065 222.448C143.537 222.896 142.849 223.12 142.001 223.12ZM142.157 222.196C142.637 222.196 143.045 222.044 143.381 221.74C143.725 221.428 143.933 221.028 144.005 220.54L144.617 216.7C144.697 216.212 144.613 215.816 144.365 215.512C144.125 215.2 143.765 215.044 143.285 215.044C142.805 215.044 142.393 215.2 142.049 215.512C141.713 215.816 141.505 216.212 141.425 216.7L140.813 220.54C140.741 221.028 140.825 221.428 141.065 221.74C141.313 222.044 141.677 222.196 142.157 222.196ZM142.613 219.28C142.397 219.28 142.233 219.22 142.121 219.1C142.009 218.98 141.969 218.808 142.001 218.584C142.041 218.368 142.133 218.204 142.277 218.092C142.429 217.972 142.613 217.912 142.829 217.912C143.045 217.912 143.209 217.972 143.321 218.092C143.441 218.204 143.481 218.368 143.441 218.584C143.409 218.808 143.317 218.98 143.165 219.1C143.013 219.22 142.829 219.28 142.613 219.28ZM150.42 223L150.72 221.08H146.76L147.036 219.388L151.044 214.24H152.316L148.068 219.688L147.996 220.096H150.876L151.224 217.96H152.304L151.5 223H150.42Z" fill="#868686"/>
<path d="M37.2882 145L37.2882 153.576C37.2882 156.89 39.9745 159.576 43.2882 159.576L51.8647 159.576" stroke="#545454" stroke-linecap="round"/>
<path d="M37.2882 208L37.2882 216.576C37.2882 219.89 39.9745 222.576 43.2882 222.576L51.8647 222.576" stroke="#545454" stroke-linecap="round"/>
</g>
<defs>
<clipPath id="clip0_80_55">
<rect width="331" height="231" fill="white"/>
</clipPath>
</defs>
</svg>
