<svg width="331" height="231" viewBox="0 0 331 231" fill="none" xmlns="http://www.w3.org/2000/svg">
<g clip-path="url(#clip0_68_73)">
<rect width="331" height="231" fill="#252525"/>
<path d="M54.9688 38.2812V55.1562C54.9688 56.6481 54.3761 58.0788 53.3212 59.1337C52.2663 60.1886 50.8356 60.7812 49.3438 60.7812H29.6562C28.1644 60.7812 26.7337 60.1886 25.6788 59.1337C24.6239 58.0788 24.0312 56.6481 24.0312 55.1562V29.8438C24.0312 26.75 26.5625 24.2188 29.6562 24.2188H40.9344M54.9688 38.2812L40.9062 24.2188V35.4688C40.9062 36.2147 41.2026 36.93 41.73 37.4575C42.2575 37.9849 42.9728 38.2812 43.7188 38.2812H54.9688Z" stroke="#CDD6F4" stroke-linecap="round" stroke-linejoin="round"/>
<path d="M72.648 47.12C72.12 47.12 71.656 47.02 71.256 46.82C70.864 46.62 70.56 46.332 70.344 45.956C70.128 45.572 70.02 45.12 70.02 44.6V42.8C70.02 42.272 70.128 41.82 70.344 41.444C70.56 41.068 70.864 40.78 71.256 40.58C71.656 40.38 72.12 40.28 72.648 40.28C73.408 40.28 74.02 40.484 74.484 40.892C74.948 41.3 75.192 41.856 75.216 42.56H74.136C74.112 42.136 73.968 41.812 73.704 41.588C73.448 41.356 73.096 41.24 72.648 41.24C72.176 41.24 71.8 41.376 71.52 41.648C71.24 41.912 71.1 42.292 71.1 42.788V44.6C71.1 45.096 71.24 45.48 71.52 45.752C71.8 46.024 72.176 46.16 72.648 46.16C73.096 46.16 73.448 46.044 73.704 45.812C73.968 45.58 74.112 45.256 74.136 44.84H75.216C75.192 45.544 74.948 46.1 74.484 46.508C74.02 46.916 73.408 47.12 72.648 47.12ZM79.7953 47.096C79.2673 47.096 78.8113 46.996 78.4273 46.796C78.0433 46.596 77.7433 46.308 77.5273 45.932C77.3193 45.548 77.2153 45.096 77.2153 44.576V42.824C77.2153 42.296 77.3193 41.844 77.5273 41.468C77.7433 41.092 78.0433 40.804 78.4273 40.604C78.8113 40.404 79.2673 40.304 79.7953 40.304C80.3233 40.304 80.7793 40.404 81.1633 40.604C81.5473 40.804 81.8433 41.092 82.0513 41.468C82.2673 41.844 82.3753 42.292 82.3753 42.812V44.576C82.3753 45.096 82.2673 45.548 82.0513 45.932C81.8433 46.308 81.5473 46.596 81.1633 46.796C80.7793 46.996 80.3233 47.096 79.7953 47.096ZM79.7953 46.136C80.2673 46.136 80.6353 46.004 80.8993 45.74C81.1633 45.476 81.2953 45.088 81.2953 44.576V42.824C81.2953 42.312 81.1633 41.924 80.8993 41.66C80.6353 41.396 80.2673 41.264 79.7953 41.264C79.3313 41.264 78.9633 41.396 78.6913 41.66C78.4273 41.924 78.2953 42.312 78.2953 42.824V44.576C78.2953 45.088 78.4273 45.476 78.6913 45.74C78.9633 46.004 79.3313 46.136 79.7953 46.136ZM84.1826 47V40.4H85.1306V41.192H85.3466L85.1786 41.48C85.1786 41.112 85.2746 40.82 85.4666 40.604C85.6666 40.388 85.9346 40.28 86.2706 40.28C86.6386 40.28 86.9226 40.416 87.1226 40.688C87.3226 40.96 87.4226 41.344 87.4226 41.84L87.0986 41.192H87.6026L87.3746 41.48C87.3746 41.112 87.4746 40.82 87.6746 40.604C87.8826 40.388 88.1546 40.28 88.4906 40.28C88.9066 40.28 89.2266 40.436 89.4506 40.748C89.6826 41.06 89.7986 41.472 89.7986 41.984V47H88.8026V41.972C88.8026 41.7 88.7426 41.488 88.6226 41.336C88.5106 41.184 88.3426 41.108 88.1186 41.108C87.9026 41.108 87.7306 41.184 87.6026 41.336C87.4826 41.48 87.4226 41.688 87.4226 41.96V47H86.5586V41.972C86.5586 41.692 86.4946 41.48 86.3666 41.336C86.2466 41.184 86.0746 41.108 85.8506 41.108C85.6266 41.108 85.4586 41.184 85.3466 41.336C85.2346 41.48 85.1786 41.688 85.1786 41.96V47H84.1826ZM91.6899 49.16V40.4H92.7699V41.66H92.9859L92.7699 41.912C92.7699 41.408 92.9339 41.012 93.2619 40.724C93.5979 40.428 94.0379 40.28 94.5819 40.28C95.2459 40.28 95.7739 40.5 96.1659 40.94C96.5659 41.372 96.7659 41.968 96.7659 42.728V44.66C96.7659 45.164 96.6739 45.6 96.4899 45.968C96.3139 46.336 96.0619 46.62 95.7339 46.82C95.4139 47.02 95.0299 47.12 94.5819 47.12C94.0459 47.12 93.6099 46.972 93.2739 46.676C92.9379 46.38 92.7699 45.984 92.7699 45.488L92.9859 45.74H92.7459L92.7699 47.24V49.16H91.6899ZM94.2219 46.184C94.6779 46.184 95.0339 46.048 95.2899 45.776C95.5539 45.504 95.6859 45.112 95.6859 44.6V42.8C95.6859 42.288 95.5539 41.896 95.2899 41.624C95.0339 41.352 94.6779 41.216 94.2219 41.216C93.7819 41.216 93.4299 41.356 93.1659 41.636C92.9019 41.916 92.7699 42.304 92.7699 42.8V44.6C92.7699 45.096 92.9019 45.484 93.1659 45.764C93.4299 46.044 93.7819 46.184 94.2219 46.184ZM101.381 47.096C100.853 47.096 100.397 46.996 100.013 46.796C99.6293 46.596 99.3293 46.308 99.1133 45.932C98.9053 45.548 98.8013 45.096 98.8013 44.576V42.824C98.8013 42.296 98.9053 41.844 99.1133 41.468C99.3293 41.092 99.6293 40.804 100.013 40.604C100.397 40.404 100.853 40.304 101.381 40.304C101.909 40.304 102.365 40.404 102.749 40.604C103.133 40.804 103.429 41.092 103.637 41.468C103.853 41.844 103.961 42.292 103.961 42.812V44.576C103.961 45.096 103.853 45.548 103.637 45.932C103.429 46.308 103.133 46.596 102.749 46.796C102.365 46.996 101.909 47.096 101.381 47.096ZM101.381 46.136C101.853 46.136 102.221 46.004 102.485 45.74C102.749 45.476 102.881 45.088 102.881 44.576V42.824C102.881 42.312 102.749 41.924 102.485 41.66C102.221 41.396 101.853 41.264 101.381 41.264C100.917 41.264 100.549 41.396 100.277 41.66C100.013 41.924 99.8813 42.312 99.8813 42.824V44.576C99.8813 45.088 100.013 45.476 100.277 45.74C100.549 46.004 100.917 46.136 101.381 46.136ZM106.081 47V40.4H107.161V41.66H107.389L107.161 41.912C107.161 41.392 107.317 40.992 107.629 40.712C107.941 40.424 108.373 40.28 108.925 40.28C109.589 40.28 110.117 40.484 110.509 40.892C110.901 41.3 111.097 41.856 111.097 42.56V47H110.017V42.68C110.017 42.208 109.889 41.848 109.633 41.6C109.385 41.344 109.045 41.216 108.613 41.216C108.165 41.216 107.809 41.352 107.545 41.624C107.289 41.896 107.161 42.288 107.161 42.8V47H106.081ZM115.772 47.12C115.252 47.12 114.796 47.016 114.404 46.808C114.02 46.6 113.72 46.308 113.504 45.932C113.296 45.548 113.192 45.104 113.192 44.6V42.8C113.192 42.288 113.296 41.844 113.504 41.468C113.72 41.092 114.02 40.8 114.404 40.592C114.796 40.384 115.252 40.28 115.772 40.28C116.292 40.28 116.744 40.384 117.128 40.592C117.52 40.8 117.82 41.092 118.028 41.468C118.244 41.844 118.352 42.288 118.352 42.8V43.964H114.248V44.6C114.248 45.12 114.38 45.52 114.644 45.8C114.908 46.072 115.284 46.208 115.772 46.208C116.188 46.208 116.524 46.136 116.78 45.992C117.036 45.84 117.192 45.616 117.248 45.32H118.328C118.256 45.872 117.984 46.312 117.512 46.64C117.048 46.96 116.468 47.12 115.772 47.12ZM117.296 43.244V42.8C117.296 42.28 117.164 41.88 116.9 41.6C116.644 41.32 116.268 41.18 115.772 41.18C115.284 41.18 114.908 41.32 114.644 41.6C114.38 41.88 114.248 42.28 114.248 42.8V43.148H117.38L117.296 43.244ZM120.471 47V40.4H121.551V41.66H121.779L121.551 41.912C121.551 41.392 121.707 40.992 122.019 40.712C122.331 40.424 122.763 40.28 123.315 40.28C123.979 40.28 124.507 40.484 124.899 40.892C125.291 41.3 125.487 41.856 125.487 42.56V47H124.407V42.68C124.407 42.208 124.279 41.848 124.023 41.6C123.775 41.344 123.435 41.216 123.003 41.216C122.555 41.216 122.199 41.352 121.935 41.624C121.679 41.896 121.551 42.288 121.551 42.8V47H120.471ZM130.883 47C130.315 47 129.871 46.848 129.551 46.544C129.239 46.24 129.083 45.812 129.083 45.26V41.384H127.223V40.4H129.083V38.54H130.163V40.4H132.803V41.384H130.163V45.26C130.163 45.764 130.403 46.016 130.883 46.016H132.683V47H130.883ZM137.154 47.096C136.706 47.096 136.314 47.028 135.978 46.892C135.65 46.748 135.386 46.548 135.186 46.292C134.994 46.036 134.878 45.732 134.838 45.38H135.918C135.966 45.612 136.094 45.796 136.302 45.932C136.518 46.068 136.802 46.136 137.154 46.136H137.658C138.082 46.136 138.398 46.052 138.606 45.884C138.814 45.708 138.918 45.476 138.918 45.188C138.918 44.908 138.822 44.688 138.63 44.528C138.446 44.36 138.17 44.248 137.802 44.192L136.914 44.048C136.266 43.936 135.782 43.736 135.462 43.448C135.15 43.152 134.994 42.724 134.994 42.164C134.994 41.572 135.182 41.116 135.558 40.796C135.934 40.468 136.498 40.304 137.25 40.304H137.706C138.338 40.304 138.846 40.452 139.23 40.748C139.614 41.044 139.846 41.444 139.926 41.948H138.846C138.798 41.74 138.678 41.576 138.486 41.456C138.294 41.328 138.034 41.264 137.706 41.264H137.25C136.842 41.264 136.542 41.34 136.35 41.492C136.166 41.644 136.074 41.872 136.074 42.176C136.074 42.448 136.154 42.648 136.314 42.776C136.474 42.904 136.726 42.996 137.07 43.052L137.958 43.196C138.67 43.308 139.186 43.516 139.506 43.82C139.834 44.124 139.998 44.564 139.998 45.14C139.998 45.748 139.802 46.228 139.41 46.58C139.026 46.924 138.442 47.096 137.658 47.096H137.154Z" fill="#DCFF95"/>
<path d="M144.169 44.42L143.917 39.68V38.24H145.189V39.68L144.937 44.42H144.169ZM144.373 47.06C144.165 47.06 143.993 46.992 143.857 46.856C143.721 46.72 143.653 46.548 143.653 46.34C143.653 46.132 143.721 45.96 143.857 45.824C143.993 45.688 144.165 45.62 144.373 45.62H144.733C144.965 45.62 145.141 45.688 145.261 45.824C145.389 45.952 145.453 46.12 145.453 46.328C145.453 46.536 145.385 46.712 145.249 46.856C145.113 46.992 144.941 47.06 144.733 47.06H144.373ZM153.968 48.44C152.832 48.16 151.948 47.608 151.316 46.784C150.684 45.96 150.368 44.952 150.368 43.76V41.6C150.368 40.816 150.512 40.108 150.8 39.476C151.096 38.836 151.512 38.296 152.048 37.856C152.592 37.416 153.232 37.104 153.968 36.92V37.94C153.456 38.06 153.012 38.292 152.636 38.636C152.26 38.972 151.968 39.392 151.76 39.896C151.552 40.4 151.448 40.968 151.448 41.6V43.76C151.448 44.376 151.548 44.936 151.748 45.44C151.956 45.944 152.248 46.364 152.624 46.7C153.008 47.028 153.456 47.252 153.968 47.372V48.44ZM215.978 45.86V43.52H213.686V42.56H215.978V40.22H217.034V42.56H219.326V43.52H217.034V45.86H215.978ZM286.239 48.44V47.372C286.759 47.252 287.207 47.028 287.583 46.7C287.959 46.364 288.247 45.944 288.447 45.44C288.655 44.936 288.759 44.376 288.759 43.76V41.6C288.759 40.968 288.655 40.4 288.447 39.896C288.239 39.392 287.947 38.972 287.571 38.636C287.195 38.292 286.751 38.06 286.239 37.94V36.92C286.983 37.104 287.623 37.416 288.159 37.856C288.695 38.296 289.107 38.836 289.395 39.476C289.691 40.108 289.839 40.816 289.839 41.6V43.76C289.839 44.952 289.523 45.96 288.891 46.784C288.259 47.608 287.375 48.16 286.239 48.44Z" fill="#FF6188"/>
<path d="M156.46 47V38.24H157.54V41.984H160.348V38.24H161.428V47H160.348V42.968H157.54V47H156.46ZM166.139 47.096C165.611 47.096 165.155 46.996 164.771 46.796C164.387 46.596 164.087 46.308 163.871 45.932C163.663 45.548 163.559 45.096 163.559 44.576V42.824C163.559 42.296 163.663 41.844 163.871 41.468C164.087 41.092 164.387 40.804 164.771 40.604C165.155 40.404 165.611 40.304 166.139 40.304C166.667 40.304 167.123 40.404 167.507 40.604C167.891 40.804 168.187 41.092 168.395 41.468C168.611 41.844 168.719 42.292 168.719 42.812V44.576C168.719 45.096 168.611 45.548 168.395 45.932C168.187 46.308 167.891 46.596 167.507 46.796C167.123 46.996 166.667 47.096 166.139 47.096ZM166.139 46.136C166.611 46.136 166.979 46.004 167.243 45.74C167.507 45.476 167.639 45.088 167.639 44.576V42.824C167.639 42.312 167.507 41.924 167.243 41.66C166.979 41.396 166.611 41.264 166.139 41.264C165.675 41.264 165.307 41.396 165.035 41.66C164.771 41.924 164.639 42.312 164.639 42.824V44.576C164.639 45.088 164.771 45.476 165.035 45.74C165.307 46.004 165.675 46.136 166.139 46.136ZM170.526 47V40.4H171.474V41.192H171.69L171.522 41.48C171.522 41.112 171.618 40.82 171.81 40.604C172.01 40.388 172.278 40.28 172.614 40.28C172.982 40.28 173.266 40.416 173.466 40.688C173.666 40.96 173.766 41.344 173.766 41.84L173.442 41.192H173.946L173.718 41.48C173.718 41.112 173.818 40.82 174.018 40.604C174.226 40.388 174.498 40.28 174.834 40.28C175.25 40.28 175.57 40.436 175.794 40.748C176.026 41.06 176.142 41.472 176.142 41.984V47H175.146V41.972C175.146 41.7 175.086 41.488 174.966 41.336C174.854 41.184 174.686 41.108 174.462 41.108C174.246 41.108 174.074 41.184 173.946 41.336C173.826 41.48 173.766 41.688 173.766 41.96V47H172.902V41.972C172.902 41.692 172.838 41.48 172.71 41.336C172.59 41.184 172.418 41.108 172.194 41.108C171.97 41.108 171.802 41.184 171.69 41.336C171.578 41.48 171.522 41.688 171.522 41.96V47H170.526ZM180.53 47.12C180.01 47.12 179.554 47.016 179.162 46.808C178.778 46.6 178.478 46.308 178.262 45.932C178.054 45.548 177.95 45.104 177.95 44.6V42.8C177.95 42.288 178.054 41.844 178.262 41.468C178.478 41.092 178.778 40.8 179.162 40.592C179.554 40.384 180.01 40.28 180.53 40.28C181.05 40.28 181.502 40.384 181.886 40.592C182.278 40.8 182.578 41.092 182.786 41.468C183.002 41.844 183.11 42.288 183.11 42.8V43.964H179.006V44.6C179.006 45.12 179.138 45.52 179.402 45.8C179.666 46.072 180.042 46.208 180.53 46.208C180.946 46.208 181.282 46.136 181.538 45.992C181.794 45.84 181.95 45.616 182.006 45.32H183.086C183.014 45.872 182.742 46.312 182.27 46.64C181.806 46.96 181.226 47.12 180.53 47.12ZM182.054 43.244V42.8C182.054 42.28 181.922 41.88 181.658 41.6C181.402 41.32 181.026 41.18 180.53 41.18C180.042 41.18 179.666 41.32 179.402 41.6C179.138 41.88 179.006 42.28 179.006 42.8V43.148H182.138L182.054 43.244ZM187.725 47.12C187.421 47.12 187.177 47.032 186.993 46.856C186.817 46.68 186.729 46.444 186.729 46.148C186.729 45.836 186.817 45.588 186.993 45.404C187.177 45.22 187.421 45.128 187.725 45.128C188.029 45.128 188.269 45.22 188.445 45.404C188.629 45.588 188.721 45.836 188.721 46.148C188.721 46.444 188.629 46.68 188.445 46.856C188.269 47.032 188.029 47.12 187.725 47.12ZM194.188 47L191.98 40.4H193.084L194.548 44.84C194.636 45.104 194.716 45.36 194.788 45.608C194.86 45.848 194.912 46.036 194.944 46.172C194.984 46.036 195.04 45.848 195.112 45.608C195.184 45.36 195.26 45.104 195.34 44.84L196.768 40.4H197.86L195.652 47H194.188ZM202.104 47.12C201.344 47.12 200.736 46.896 200.28 46.448C199.824 45.992 199.596 45.376 199.596 44.6V40.4H200.676V44.6C200.676 45.096 200.804 45.484 201.06 45.764C201.316 46.036 201.664 46.172 202.104 46.172C202.552 46.172 202.904 46.036 203.16 45.764C203.424 45.484 203.556 45.096 203.556 44.6V40.4H204.636V44.6C204.636 45.376 204.404 45.992 203.94 46.448C203.476 46.896 202.864 47.12 202.104 47.12ZM209.311 47.12C208.791 47.12 208.335 47.016 207.943 46.808C207.559 46.6 207.259 46.308 207.043 45.932C206.835 45.548 206.731 45.104 206.731 44.6V42.8C206.731 42.288 206.835 41.844 207.043 41.468C207.259 41.092 207.559 40.8 207.943 40.592C208.335 40.384 208.791 40.28 209.311 40.28C209.831 40.28 210.283 40.384 210.667 40.592C211.059 40.8 211.359 41.092 211.567 41.468C211.783 41.844 211.891 42.288 211.891 42.8V43.964H207.787V44.6C207.787 45.12 207.919 45.52 208.183 45.8C208.447 46.072 208.823 46.208 209.311 46.208C209.727 46.208 210.063 46.136 210.319 45.992C210.575 45.84 210.731 45.616 210.787 45.32H211.867C211.795 45.872 211.523 46.312 211.051 46.64C210.587 46.96 210.007 47.12 209.311 47.12ZM210.835 43.244V42.8C210.835 42.28 210.703 41.88 210.439 41.6C210.183 41.32 209.807 41.18 209.311 41.18C208.823 41.18 208.447 41.32 208.183 41.6C207.919 41.88 207.787 42.28 207.787 42.8V43.148H210.919L210.835 43.244Z" fill="#9CFF8E"/>
<path d="M220.702 47L222.982 38.24H224.434L226.702 47H225.61L225.034 44.672H222.382L221.806 47H220.702ZM222.598 43.76H224.806L224.134 41.06C224.006 40.548 223.906 40.12 223.834 39.776C223.762 39.432 223.718 39.208 223.702 39.104C223.686 39.208 223.642 39.432 223.57 39.776C223.498 40.12 223.398 40.544 223.27 41.048L222.598 43.76ZM231.281 47.12C230.737 47.12 230.301 46.976 229.973 46.688C229.645 46.392 229.481 45.992 229.481 45.488L229.697 45.74H229.481V47H228.401V38.24H229.481V40.16L229.457 41.66H229.697L229.481 41.912C229.481 41.416 229.645 41.02 229.973 40.724C230.309 40.428 230.745 40.28 231.281 40.28C231.945 40.28 232.477 40.5 232.877 40.94C233.277 41.38 233.477 41.98 233.477 42.74V44.672C233.477 45.424 233.277 46.02 232.877 46.46C232.477 46.9 231.945 47.12 231.281 47.12ZM230.921 46.184C231.377 46.184 231.737 46.048 232.001 45.776C232.265 45.504 232.397 45.112 232.397 44.6V42.8C232.397 42.288 232.265 41.896 232.001 41.624C231.737 41.352 231.377 41.216 230.921 41.216C230.481 41.216 230.129 41.356 229.865 41.636C229.609 41.916 229.481 42.304 229.481 42.8V44.6C229.481 45.096 229.609 45.484 229.865 45.764C230.129 46.044 230.481 46.184 230.921 46.184ZM238.092 47.096C237.564 47.096 237.108 46.996 236.724 46.796C236.34 46.596 236.04 46.308 235.824 45.932C235.616 45.548 235.512 45.096 235.512 44.576V42.824C235.512 42.296 235.616 41.844 235.824 41.468C236.04 41.092 236.34 40.804 236.724 40.604C237.108 40.404 237.564 40.304 238.092 40.304C238.62 40.304 239.076 40.404 239.46 40.604C239.844 40.804 240.14 41.092 240.348 41.468C240.564 41.844 240.672 42.292 240.672 42.812V44.576C240.672 45.096 240.564 45.548 240.348 45.932C240.14 46.308 239.844 46.596 239.46 46.796C239.076 46.996 238.62 47.096 238.092 47.096ZM238.092 46.136C238.564 46.136 238.932 46.004 239.196 45.74C239.46 45.476 239.592 45.088 239.592 44.576V42.824C239.592 42.312 239.46 41.924 239.196 41.66C238.932 41.396 238.564 41.264 238.092 41.264C237.628 41.264 237.26 41.396 236.988 41.66C236.724 41.924 236.592 42.312 236.592 42.824V44.576C236.592 45.088 236.724 45.476 236.988 45.74C237.26 46.004 237.628 46.136 238.092 46.136ZM245.276 47.12C244.516 47.12 243.908 46.896 243.451 46.448C242.996 45.992 242.768 45.376 242.768 44.6V40.4H243.848V44.6C243.848 45.096 243.976 45.484 244.232 45.764C244.488 46.036 244.836 46.172 245.276 46.172C245.724 46.172 246.076 46.036 246.332 45.764C246.596 45.484 246.728 45.096 246.728 44.6V40.4H247.808V44.6C247.808 45.376 247.576 45.992 247.112 46.448C246.648 46.896 246.036 47.12 245.276 47.12ZM253.203 47C252.635 47 252.191 46.848 251.871 46.544C251.559 46.24 251.403 45.812 251.403 45.26V41.384H249.543V40.4H251.403V38.54H252.483V40.4H255.123V41.384H252.483V45.26C252.483 45.764 252.723 46.016 253.203 46.016H255.003V47H253.203ZM259.678 47.12C259.374 47.12 259.13 47.032 258.946 46.856C258.77 46.68 258.682 46.444 258.682 46.148C258.682 45.836 258.77 45.588 258.946 45.404C259.13 45.22 259.374 45.128 259.678 45.128C259.982 45.128 260.222 45.22 260.398 45.404C260.582 45.588 260.674 45.836 260.674 46.148C260.674 46.444 260.582 46.68 260.398 46.856C260.222 47.032 259.982 47.12 259.678 47.12ZM266.141 47L263.933 40.4H265.037L266.501 44.84C266.589 45.104 266.669 45.36 266.741 45.608C266.813 45.848 266.865 46.036 266.897 46.172C266.937 46.036 266.993 45.848 267.065 45.608C267.137 45.36 267.213 45.104 267.293 44.84L268.721 40.4H269.813L267.605 47H266.141ZM274.057 47.12C273.297 47.12 272.689 46.896 272.233 46.448C271.777 45.992 271.549 45.376 271.549 44.6V40.4H272.629V44.6C272.629 45.096 272.757 45.484 273.013 45.764C273.269 46.036 273.617 46.172 274.057 46.172C274.505 46.172 274.857 46.036 275.113 45.764C275.377 45.484 275.509 45.096 275.509 44.6V40.4H276.589V44.6C276.589 45.376 276.357 45.992 275.893 46.448C275.429 46.896 274.817 47.12 274.057 47.12ZM281.264 47.12C280.744 47.12 280.288 47.016 279.896 46.808C279.512 46.6 279.212 46.308 278.996 45.932C278.788 45.548 278.684 45.104 278.684 44.6V42.8C278.684 42.288 278.788 41.844 278.996 41.468C279.212 41.092 279.512 40.8 279.896 40.592C280.288 40.384 280.744 40.28 281.264 40.28C281.784 40.28 282.236 40.384 282.62 40.592C283.012 40.8 283.312 41.092 283.52 41.468C283.736 41.844 283.844 42.288 283.844 42.8V43.964H279.74V44.6C279.74 45.12 279.872 45.52 280.136 45.8C280.4 46.072 280.776 46.208 281.264 46.208C281.68 46.208 282.016 46.136 282.272 45.992C282.528 45.84 282.684 45.616 282.74 45.32H283.82C283.748 45.872 283.476 46.312 283.004 46.64C282.54 46.96 281.96 47.12 281.264 47.12ZM282.788 43.244V42.8C282.788 42.28 282.656 41.88 282.392 41.6C282.136 41.32 281.76 41.18 281.264 41.18C280.776 41.18 280.4 41.32 280.136 41.6C279.872 41.88 279.74 42.28 279.74 42.8V43.148H282.872L282.788 43.244Z" fill="#9BFF8E"/>
<path d="M70.648 124.12C70.12 124.12 69.656 124.02 69.256 123.82C68.864 123.62 68.56 123.332 68.344 122.956C68.128 122.572 68.02 122.12 68.02 121.6V119.8C68.02 119.272 68.128 118.82 68.344 118.444C68.56 118.068 68.864 117.78 69.256 117.58C69.656 117.38 70.12 117.28 70.648 117.28C71.408 117.28 72.02 117.484 72.484 117.892C72.948 118.3 73.192 118.856 73.216 119.56H72.136C72.112 119.136 71.968 118.812 71.704 118.588C71.448 118.356 71.096 118.24 70.648 118.24C70.176 118.24 69.8 118.376 69.52 118.648C69.24 118.912 69.1 119.292 69.1 119.788V121.6C69.1 122.096 69.24 122.48 69.52 122.752C69.8 123.024 70.176 123.16 70.648 123.16C71.096 123.16 71.448 123.044 71.704 122.812C71.968 122.58 72.112 122.256 72.136 121.84H73.216C73.192 122.544 72.948 123.1 72.484 123.508C72.02 123.916 71.408 124.12 70.648 124.12ZM77.7953 124.096C77.2673 124.096 76.8113 123.996 76.4273 123.796C76.0433 123.596 75.7433 123.308 75.5273 122.932C75.3193 122.548 75.2153 122.096 75.2153 121.576V119.824C75.2153 119.296 75.3193 118.844 75.5273 118.468C75.7433 118.092 76.0433 117.804 76.4273 117.604C76.8113 117.404 77.2673 117.304 77.7953 117.304C78.3233 117.304 78.7793 117.404 79.1633 117.604C79.5473 117.804 79.8433 118.092 80.0513 118.468C80.2673 118.844 80.3753 119.292 80.3753 119.812V121.576C80.3753 122.096 80.2673 122.548 80.0513 122.932C79.8433 123.308 79.5473 123.596 79.1633 123.796C78.7793 123.996 78.3233 124.096 77.7953 124.096ZM77.7953 123.136C78.2673 123.136 78.6353 123.004 78.8993 122.74C79.1633 122.476 79.2953 122.088 79.2953 121.576V119.824C79.2953 119.312 79.1633 118.924 78.8993 118.66C78.6353 118.396 78.2673 118.264 77.7953 118.264C77.3313 118.264 76.9633 118.396 76.6913 118.66C76.4273 118.924 76.2953 119.312 76.2953 119.824V121.576C76.2953 122.088 76.4273 122.476 76.6913 122.74C76.9633 123.004 77.3313 123.136 77.7953 123.136ZM82.1826 124V117.4H83.1306V118.192H83.3466L83.1786 118.48C83.1786 118.112 83.2746 117.82 83.4666 117.604C83.6666 117.388 83.9346 117.28 84.2706 117.28C84.6386 117.28 84.9226 117.416 85.1226 117.688C85.3226 117.96 85.4226 118.344 85.4226 118.84L85.0986 118.192H85.6026L85.3746 118.48C85.3746 118.112 85.4746 117.82 85.6746 117.604C85.8826 117.388 86.1546 117.28 86.4906 117.28C86.9066 117.28 87.2266 117.436 87.4506 117.748C87.6826 118.06 87.7986 118.472 87.7986 118.984V124H86.8026V118.972C86.8026 118.7 86.7426 118.488 86.6226 118.336C86.5106 118.184 86.3426 118.108 86.1186 118.108C85.9026 118.108 85.7306 118.184 85.6026 118.336C85.4826 118.48 85.4226 118.688 85.4226 118.96V124H84.5586V118.972C84.5586 118.692 84.4946 118.48 84.3666 118.336C84.2466 118.184 84.0746 118.108 83.8506 118.108C83.6266 118.108 83.4586 118.184 83.3466 118.336C83.2346 118.48 83.1786 118.688 83.1786 118.96V124H82.1826ZM89.6899 126.16V117.4H90.7699V118.66H90.9859L90.7699 118.912C90.7699 118.408 90.9339 118.012 91.2619 117.724C91.5979 117.428 92.0379 117.28 92.5819 117.28C93.2459 117.28 93.7739 117.5 94.1659 117.94C94.5659 118.372 94.7659 118.968 94.7659 119.728V121.66C94.7659 122.164 94.6739 122.6 94.4899 122.968C94.3139 123.336 94.0619 123.62 93.7339 123.82C93.4139 124.02 93.0299 124.12 92.5819 124.12C92.0459 124.12 91.6099 123.972 91.2739 123.676C90.9379 123.38 90.7699 122.984 90.7699 122.488L90.9859 122.74H90.7459L90.7699 124.24V126.16H89.6899ZM92.2219 123.184C92.6779 123.184 93.0339 123.048 93.2899 122.776C93.5539 122.504 93.6859 122.112 93.6859 121.6V119.8C93.6859 119.288 93.5539 118.896 93.2899 118.624C93.0339 118.352 92.6779 118.216 92.2219 118.216C91.7819 118.216 91.4299 118.356 91.1659 118.636C90.9019 118.916 90.7699 119.304 90.7699 119.8V121.6C90.7699 122.096 90.9019 122.484 91.1659 122.764C91.4299 123.044 91.7819 123.184 92.2219 123.184ZM99.3813 124.096C98.8533 124.096 98.3973 123.996 98.0133 123.796C97.6293 123.596 97.3293 123.308 97.1133 122.932C96.9053 122.548 96.8013 122.096 96.8013 121.576V119.824C96.8013 119.296 96.9053 118.844 97.1133 118.468C97.3293 118.092 97.6293 117.804 98.0133 117.604C98.3973 117.404 98.8533 117.304 99.3813 117.304C99.9093 117.304 100.365 117.404 100.749 117.604C101.133 117.804 101.429 118.092 101.637 118.468C101.853 118.844 101.961 119.292 101.961 119.812V121.576C101.961 122.096 101.853 122.548 101.637 122.932C101.429 123.308 101.133 123.596 100.749 123.796C100.365 123.996 99.9093 124.096 99.3813 124.096ZM99.3813 123.136C99.8533 123.136 100.221 123.004 100.485 122.74C100.749 122.476 100.881 122.088 100.881 121.576V119.824C100.881 119.312 100.749 118.924 100.485 118.66C100.221 118.396 99.8533 118.264 99.3813 118.264C98.9173 118.264 98.5493 118.396 98.2773 118.66C98.0133 118.924 97.8813 119.312 97.8813 119.824V121.576C97.8813 122.088 98.0133 122.476 98.2773 122.74C98.5493 123.004 98.9173 123.136 99.3813 123.136ZM104.081 124V117.4H105.161V118.66H105.389L105.161 118.912C105.161 118.392 105.317 117.992 105.629 117.712C105.941 117.424 106.373 117.28 106.925 117.28C107.589 117.28 108.117 117.484 108.509 117.892C108.901 118.3 109.097 118.856 109.097 119.56V124H108.017V119.68C108.017 119.208 107.889 118.848 107.633 118.6C107.385 118.344 107.045 118.216 106.613 118.216C106.165 118.216 105.809 118.352 105.545 118.624C105.289 118.896 105.161 119.288 105.161 119.8V124H104.081ZM113.772 124.12C113.252 124.12 112.796 124.016 112.404 123.808C112.02 123.6 111.72 123.308 111.504 122.932C111.296 122.548 111.192 122.104 111.192 121.6V119.8C111.192 119.288 111.296 118.844 111.504 118.468C111.72 118.092 112.02 117.8 112.404 117.592C112.796 117.384 113.252 117.28 113.772 117.28C114.292 117.28 114.744 117.384 115.128 117.592C115.52 117.8 115.82 118.092 116.028 118.468C116.244 118.844 116.352 119.288 116.352 119.8V120.964H112.248V121.6C112.248 122.12 112.38 122.52 112.644 122.8C112.908 123.072 113.284 123.208 113.772 123.208C114.188 123.208 114.524 123.136 114.78 122.992C115.036 122.84 115.192 122.616 115.248 122.32H116.328C116.256 122.872 115.984 123.312 115.512 123.64C115.048 123.96 114.468 124.12 113.772 124.12ZM115.296 120.244V119.8C115.296 119.28 115.164 118.88 114.9 118.6C114.644 118.32 114.268 118.18 113.772 118.18C113.284 118.18 112.908 118.32 112.644 118.6C112.38 118.88 112.248 119.28 112.248 119.8V120.148H115.38L115.296 120.244ZM118.471 124V117.4H119.551V118.66H119.779L119.551 118.912C119.551 118.392 119.707 117.992 120.019 117.712C120.331 117.424 120.763 117.28 121.315 117.28C121.979 117.28 122.507 117.484 122.899 117.892C123.291 118.3 123.487 118.856 123.487 119.56V124H122.407V119.68C122.407 119.208 122.279 118.848 122.023 118.6C121.775 118.344 121.435 118.216 121.003 118.216C120.555 118.216 120.199 118.352 119.935 118.624C119.679 118.896 119.551 119.288 119.551 119.8V124H118.471ZM128.883 124C128.315 124 127.871 123.848 127.551 123.544C127.239 123.24 127.083 122.812 127.083 122.26V118.384H125.223V117.4H127.083V115.54H128.163V117.4H130.803V118.384H128.163V122.26C128.163 122.764 128.403 123.016 128.883 123.016H130.683V124H128.883ZM135.154 124.096C134.706 124.096 134.314 124.028 133.978 123.892C133.65 123.748 133.386 123.548 133.186 123.292C132.994 123.036 132.878 122.732 132.838 122.38H133.918C133.966 122.612 134.094 122.796 134.302 122.932C134.518 123.068 134.802 123.136 135.154 123.136H135.658C136.082 123.136 136.398 123.052 136.606 122.884C136.814 122.708 136.918 122.476 136.918 122.188C136.918 121.908 136.822 121.688 136.63 121.528C136.446 121.36 136.17 121.248 135.802 121.192L134.914 121.048C134.266 120.936 133.782 120.736 133.462 120.448C133.15 120.152 132.994 119.724 132.994 119.164C132.994 118.572 133.182 118.116 133.558 117.796C133.934 117.468 134.498 117.304 135.25 117.304H135.706C136.338 117.304 136.846 117.452 137.23 117.748C137.614 118.044 137.846 118.444 137.926 118.948H136.846C136.798 118.74 136.678 118.576 136.486 118.456C136.294 118.328 136.034 118.264 135.706 118.264H135.25C134.842 118.264 134.542 118.34 134.35 118.492C134.166 118.644 134.074 118.872 134.074 119.176C134.074 119.448 134.154 119.648 134.314 119.776C134.474 119.904 134.726 119.996 135.07 120.052L135.958 120.196C136.67 120.308 137.186 120.516 137.506 120.82C137.834 121.124 137.998 121.564 137.998 122.14C137.998 122.748 137.802 123.228 137.41 123.58C137.026 123.924 136.442 124.096 135.658 124.096H135.154Z" fill="#DCFF95"/>
<path d="M95.116 163V154.24H96.196V157.984H99.004V154.24H100.084V163H99.004V158.968H96.196V163H95.116ZM104.795 163.096C104.267 163.096 103.811 162.996 103.427 162.796C103.043 162.596 102.743 162.308 102.527 161.932C102.319 161.548 102.215 161.096 102.215 160.576V158.824C102.215 158.296 102.319 157.844 102.527 157.468C102.743 157.092 103.043 156.804 103.427 156.604C103.811 156.404 104.267 156.304 104.795 156.304C105.323 156.304 105.779 156.404 106.163 156.604C106.547 156.804 106.843 157.092 107.051 157.468C107.267 157.844 107.375 158.292 107.375 158.812V160.576C107.375 161.096 107.267 161.548 107.051 161.932C106.843 162.308 106.547 162.596 106.163 162.796C105.779 162.996 105.323 163.096 104.795 163.096ZM104.795 162.136C105.267 162.136 105.635 162.004 105.899 161.74C106.163 161.476 106.295 161.088 106.295 160.576V158.824C106.295 158.312 106.163 157.924 105.899 157.66C105.635 157.396 105.267 157.264 104.795 157.264C104.331 157.264 103.963 157.396 103.691 157.66C103.427 157.924 103.295 158.312 103.295 158.824V160.576C103.295 161.088 103.427 161.476 103.691 161.74C103.963 162.004 104.331 162.136 104.795 162.136ZM109.183 163V156.4H110.131V157.192H110.347L110.179 157.48C110.179 157.112 110.275 156.82 110.467 156.604C110.667 156.388 110.935 156.28 111.271 156.28C111.639 156.28 111.923 156.416 112.123 156.688C112.323 156.96 112.423 157.344 112.423 157.84L112.099 157.192H112.603L112.375 157.48C112.375 157.112 112.475 156.82 112.675 156.604C112.883 156.388 113.155 156.28 113.491 156.28C113.907 156.28 114.227 156.436 114.451 156.748C114.683 157.06 114.799 157.472 114.799 157.984V163H113.803V157.972C113.803 157.7 113.743 157.488 113.623 157.336C113.511 157.184 113.343 157.108 113.119 157.108C112.903 157.108 112.731 157.184 112.603 157.336C112.483 157.48 112.423 157.688 112.423 157.96V163H111.559V157.972C111.559 157.692 111.495 157.48 111.367 157.336C111.247 157.184 111.075 157.108 110.851 157.108C110.627 157.108 110.459 157.184 110.347 157.336C110.235 157.48 110.179 157.688 110.179 157.96V163H109.183ZM119.186 163.12C118.666 163.12 118.21 163.016 117.818 162.808C117.434 162.6 117.134 162.308 116.918 161.932C116.71 161.548 116.606 161.104 116.606 160.6V158.8C116.606 158.288 116.71 157.844 116.918 157.468C117.134 157.092 117.434 156.8 117.818 156.592C118.21 156.384 118.666 156.28 119.186 156.28C119.706 156.28 120.158 156.384 120.542 156.592C120.934 156.8 121.234 157.092 121.442 157.468C121.658 157.844 121.766 158.288 121.766 158.8V159.964H117.662V160.6C117.662 161.12 117.794 161.52 118.058 161.8C118.322 162.072 118.698 162.208 119.186 162.208C119.602 162.208 119.938 162.136 120.194 161.992C120.45 161.84 120.606 161.616 120.662 161.32H121.742C121.67 161.872 121.398 162.312 120.926 162.64C120.462 162.96 119.882 163.12 119.186 163.12ZM120.71 159.244V158.8C120.71 158.28 120.578 157.88 120.314 157.6C120.058 157.32 119.682 157.18 119.186 157.18C118.698 157.18 118.322 157.32 118.058 157.6C117.794 157.88 117.662 158.28 117.662 158.8V159.148H120.794L120.71 159.244ZM126.381 163.12C126.077 163.12 125.833 163.032 125.649 162.856C125.473 162.68 125.385 162.444 125.385 162.148C125.385 161.836 125.473 161.588 125.649 161.404C125.833 161.22 126.077 161.128 126.381 161.128C126.685 161.128 126.925 161.22 127.101 161.404C127.285 161.588 127.377 161.836 127.377 162.148C127.377 162.444 127.285 162.68 127.101 162.856C126.925 163.032 126.685 163.12 126.381 163.12ZM132.845 163L130.637 156.4H131.741L133.205 160.84C133.293 161.104 133.373 161.36 133.445 161.608C133.517 161.848 133.569 162.036 133.601 162.172C133.641 162.036 133.697 161.848 133.769 161.608C133.841 161.36 133.917 161.104 133.997 160.84L135.425 156.4H136.517L134.309 163H132.845ZM140.76 163.12C140 163.12 139.392 162.896 138.936 162.448C138.48 161.992 138.252 161.376 138.252 160.6V156.4H139.332V160.6C139.332 161.096 139.46 161.484 139.716 161.764C139.972 162.036 140.32 162.172 140.76 162.172C141.208 162.172 141.56 162.036 141.816 161.764C142.08 161.484 142.212 161.096 142.212 160.6V156.4H143.292V160.6C143.292 161.376 143.06 161.992 142.596 162.448C142.132 162.896 141.52 163.12 140.76 163.12ZM147.967 163.12C147.447 163.12 146.991 163.016 146.599 162.808C146.215 162.6 145.915 162.308 145.699 161.932C145.491 161.548 145.387 161.104 145.387 160.6V158.8C145.387 158.288 145.491 157.844 145.699 157.468C145.915 157.092 146.215 156.8 146.599 156.592C146.991 156.384 147.447 156.28 147.967 156.28C148.487 156.28 148.939 156.384 149.323 156.592C149.715 156.8 150.015 157.092 150.223 157.468C150.439 157.844 150.547 158.288 150.547 158.8V159.964H146.443V160.6C146.443 161.12 146.575 161.52 146.839 161.8C147.103 162.072 147.479 162.208 147.967 162.208C148.383 162.208 148.719 162.136 148.975 161.992C149.231 161.84 149.387 161.616 149.443 161.32H150.523C150.451 161.872 150.179 162.312 149.707 162.64C149.243 162.96 148.663 163.12 147.967 163.12ZM149.491 159.244V158.8C149.491 158.28 149.359 157.88 149.095 157.6C148.839 157.32 148.463 157.18 147.967 157.18C147.479 157.18 147.103 157.32 146.839 157.6C146.575 157.88 146.443 158.28 146.443 158.8V159.148H149.575L149.491 159.244Z" fill="#9CFF8E"/>
<path d="M9 86.5H323" stroke="#484848" stroke-linecap="round"/>
<path d="M38 146L38 206" stroke="#656565" stroke-linecap="round"/>
<path d="M167 65C167 64.4477 166.552 64 166 64C165.448 64 165 64.4477 165 65L167 65ZM165.293 108.707C165.683 109.098 166.317 109.098 166.707 108.707L173.071 102.343C173.462 101.953 173.462 101.319 173.071 100.929C172.681 100.538 172.047 100.538 171.657 100.929L166 106.586L160.343 100.929C159.953 100.538 159.319 100.538 158.929 100.929C158.538 101.319 158.538 101.953 158.929 102.343L165.293 108.707ZM165 65L165 108L167 108L167 65L165 65Z" fill="white"/>
<path d="M32.4375 114.438H46.5C48.0562 114.438 49.3125 115.694 49.3125 117.25V118.188M35.25 131.312H27.75C27.0041 131.312 26.2887 131.016 25.7613 130.489C25.2338 129.961 24.9375 129.246 24.9375 128.5V112.562C24.9375 112.065 25.135 111.588 25.4867 111.237C25.8383 110.885 26.3152 110.688 26.8125 110.688H36.1875C36.6848 110.688 37.1617 110.885 37.5133 111.237C37.865 111.588 38.0625 112.065 38.0625 112.562V114.438" stroke="#CDD6F4" stroke-linecap="round" stroke-linejoin="round"/>
<path d="M41.7844 123.843L49.2244 131.283M41.7844 131.283L49.2244 123.843M46.1606 120.329L52.7363 126.904C52.8228 126.991 52.8914 127.093 52.9382 127.206C52.9851 127.319 53.0092 127.44 53.0092 127.563C53.0092 127.685 52.9851 127.806 52.9382 127.919C52.8914 128.032 52.8228 128.134 52.7363 128.221L46.1606 134.796C45.9863 134.97 45.7499 135.068 45.5034 135.068C45.257 135.068 45.0206 134.97 44.8463 134.796L38.2688 128.219C38.1822 128.132 38.1136 128.03 38.0668 127.917C38.02 127.804 37.9958 127.683 37.9958 127.561C37.9958 127.438 38.02 127.317 38.0668 127.204C38.1136 127.091 38.1822 126.989 38.2688 126.903L44.8444 120.327C45.0188 120.153 45.2551 120.055 45.5016 120.055C45.748 120.055 45.9844 120.153 46.1588 120.327L46.1606 120.329Z" stroke="#A6E3A1" stroke-linecap="round" stroke-linejoin="round"/>
<path d="M55.875 146.812H66.075L69 152.55L71.925 146.812H82.125L69.0188 171.188L55.875 146.812Z" stroke="#A6E3A1" stroke-linecap="round" stroke-linejoin="round"/>
<path d="M76.5938 147.244L69 161.4L61.4062 147.244" stroke="#A6E3A1" stroke-linecap="round" stroke-linejoin="round"/>
<path d="M94.6 199L96.88 190.24H98.332L100.6 199H99.508L98.932 196.672H96.28L95.704 199H94.6ZM96.496 195.76H98.704L98.032 193.06C97.904 192.548 97.804 192.12 97.732 191.776C97.66 191.432 97.616 191.208 97.6 191.104C97.584 191.208 97.54 191.432 97.468 191.776C97.396 192.12 97.296 192.544 97.168 193.048L96.496 195.76ZM105.179 199.12C104.635 199.12 104.199 198.976 103.871 198.688C103.543 198.392 103.379 197.992 103.379 197.488L103.595 197.74H103.379V199H102.299V190.24H103.379V192.16L103.355 193.66H103.595L103.379 193.912C103.379 193.416 103.543 193.02 103.871 192.724C104.207 192.428 104.643 192.28 105.179 192.28C105.843 192.28 106.375 192.5 106.775 192.94C107.175 193.38 107.375 193.98 107.375 194.74V196.672C107.375 197.424 107.175 198.02 106.775 198.46C106.375 198.9 105.843 199.12 105.179 199.12ZM104.819 198.184C105.275 198.184 105.635 198.048 105.899 197.776C106.163 197.504 106.295 197.112 106.295 196.6V194.8C106.295 194.288 106.163 193.896 105.899 193.624C105.635 193.352 105.275 193.216 104.819 193.216C104.379 193.216 104.027 193.356 103.763 193.636C103.507 193.916 103.379 194.304 103.379 194.8V196.6C103.379 197.096 103.507 197.484 103.763 197.764C104.027 198.044 104.379 198.184 104.819 198.184ZM111.991 199.096C111.463 199.096 111.007 198.996 110.623 198.796C110.239 198.596 109.939 198.308 109.723 197.932C109.515 197.548 109.411 197.096 109.411 196.576V194.824C109.411 194.296 109.515 193.844 109.723 193.468C109.939 193.092 110.239 192.804 110.623 192.604C111.007 192.404 111.463 192.304 111.991 192.304C112.519 192.304 112.975 192.404 113.359 192.604C113.743 192.804 114.039 193.092 114.247 193.468C114.463 193.844 114.571 194.292 114.571 194.812V196.576C114.571 197.096 114.463 197.548 114.247 197.932C114.039 198.308 113.743 198.596 113.359 198.796C112.975 198.996 112.519 199.096 111.991 199.096ZM111.991 198.136C112.463 198.136 112.831 198.004 113.095 197.74C113.359 197.476 113.491 197.088 113.491 196.576V194.824C113.491 194.312 113.359 193.924 113.095 193.66C112.831 193.396 112.463 193.264 111.991 193.264C111.527 193.264 111.159 193.396 110.887 193.66C110.623 193.924 110.491 194.312 110.491 194.824V196.576C110.491 197.088 110.623 197.476 110.887 197.74C111.159 198.004 111.527 198.136 111.991 198.136ZM119.174 199.12C118.414 199.12 117.806 198.896 117.35 198.448C116.894 197.992 116.666 197.376 116.666 196.6V192.4H117.746V196.6C117.746 197.096 117.874 197.484 118.13 197.764C118.386 198.036 118.734 198.172 119.174 198.172C119.622 198.172 119.974 198.036 120.23 197.764C120.494 197.484 120.626 197.096 120.626 196.6V192.4H121.706V196.6C121.706 197.376 121.474 197.992 121.01 198.448C120.546 198.896 119.934 199.12 119.174 199.12ZM127.101 199C126.533 199 126.089 198.848 125.769 198.544C125.457 198.24 125.301 197.812 125.301 197.26V193.384H123.441V192.4H125.301V190.54H126.381V192.4H129.021V193.384H126.381V197.26C126.381 197.764 126.621 198.016 127.101 198.016H128.901V199H127.101ZM133.577 199.12C133.273 199.12 133.029 199.032 132.845 198.856C132.669 198.68 132.581 198.444 132.581 198.148C132.581 197.836 132.669 197.588 132.845 197.404C133.029 197.22 133.273 197.128 133.577 197.128C133.881 197.128 134.121 197.22 134.297 197.404C134.481 197.588 134.573 197.836 134.573 198.148C134.573 198.444 134.481 198.68 134.297 198.856C134.121 199.032 133.881 199.12 133.577 199.12ZM140.04 199L137.832 192.4H138.936L140.4 196.84C140.488 197.104 140.568 197.36 140.64 197.608C140.712 197.848 140.764 198.036 140.796 198.172C140.836 198.036 140.892 197.848 140.964 197.608C141.036 197.36 141.112 197.104 141.192 196.84L142.62 192.4H143.712L141.504 199H140.04ZM147.955 199.12C147.195 199.12 146.587 198.896 146.131 198.448C145.675 197.992 145.447 197.376 145.447 196.6V192.4H146.527V196.6C146.527 197.096 146.655 197.484 146.911 197.764C147.167 198.036 147.515 198.172 147.955 198.172C148.403 198.172 148.755 198.036 149.011 197.764C149.275 197.484 149.407 197.096 149.407 196.6V192.4H150.487V196.6C150.487 197.376 150.255 197.992 149.791 198.448C149.327 198.896 148.715 199.12 147.955 199.12ZM155.163 199.12C154.643 199.12 154.187 199.016 153.795 198.808C153.411 198.6 153.111 198.308 152.895 197.932C152.687 197.548 152.583 197.104 152.583 196.6V194.8C152.583 194.288 152.687 193.844 152.895 193.468C153.111 193.092 153.411 192.8 153.795 192.592C154.187 192.384 154.643 192.28 155.163 192.28C155.683 192.28 156.135 192.384 156.519 192.592C156.911 192.8 157.211 193.092 157.419 193.468C157.635 193.844 157.743 194.288 157.743 194.8V195.964H153.639V196.6C153.639 197.12 153.771 197.52 154.035 197.8C154.299 198.072 154.675 198.208 155.163 198.208C155.579 198.208 155.915 198.136 156.171 197.992C156.427 197.84 156.583 197.616 156.639 197.32H157.719C157.647 197.872 157.375 198.312 156.903 198.64C156.439 198.96 155.859 199.12 155.163 199.12ZM156.687 195.244V194.8C156.687 194.28 156.555 193.88 156.291 193.6C156.035 193.32 155.659 193.18 155.163 193.18C154.675 193.18 154.299 193.32 154.035 193.6C153.771 193.88 153.639 194.28 153.639 194.8V195.148H156.771L156.687 195.244Z" fill="#9BFF8E"/>
<path d="M55.875 182.812H66.075L69 188.55L71.925 182.812H82.125L69.0188 207.188L55.875 182.812Z" stroke="#A6E3A1" stroke-linecap="round" stroke-linejoin="round"/>
<path d="M76.5938 183.244L69 197.4L61.4062 183.244" stroke="#A6E3A1" stroke-linecap="round" stroke-linejoin="round"/>
</g>
<defs>
<clipPath id="clip0_68_73">
<rect width="331" height="231" fill="white"/>
</clipPath>
</defs>
</svg>
