<svg width="331" height="231" viewBox="0 0 331 231" fill="none" xmlns="http://www.w3.org/2000/svg">
<g clip-path="url(#clip0_68_38)">
<rect width="331" height="231" fill="#252525"/>
<path d="M54.9688 38.2812V55.1562C54.9688 56.6481 54.3761 58.0788 53.3212 59.1337C52.2663 60.1886 50.8356 60.7812 49.3438 60.7812H29.6562C28.1644 60.7812 26.7337 60.1886 25.6788 59.1337C24.6239 58.0788 24.0312 56.6481 24.0312 55.1562V29.8438C24.0312 26.75 26.5625 24.2188 29.6562 24.2188H40.9344M54.9688 38.2812L40.9062 24.2188V35.4688C40.9062 36.2147 41.2026 36.93 41.73 37.4575C42.2575 37.9849 42.9728 38.2812 43.7188 38.2812H54.9688Z" stroke="#CDD6F4" stroke-linecap="round" stroke-linejoin="round"/>
<path d="M69.792 47V40.4H70.74V41.192H70.956L70.788 41.48C70.788 41.112 70.884 40.82 71.076 40.604C71.276 40.388 71.544 40.28 71.88 40.28C72.248 40.28 72.532 40.416 72.732 40.688C72.932 40.96 73.032 41.344 73.032 41.84L72.708 41.192H73.212L72.984 41.48C72.984 41.112 73.084 40.82 73.284 40.604C73.492 40.388 73.764 40.28 74.1 40.28C74.516 40.28 74.836 40.436 75.06 40.748C75.292 41.06 75.408 41.472 75.408 41.984V47H74.412V41.972C74.412 41.7 74.352 41.488 74.232 41.336C74.12 41.184 73.952 41.108 73.728 41.108C73.512 41.108 73.34 41.184 73.212 41.336C73.092 41.48 73.032 41.688 73.032 41.96V47H72.168V41.972C72.168 41.692 72.104 41.48 71.976 41.336C71.856 41.184 71.684 41.108 71.46 41.108C71.236 41.108 71.068 41.184 70.956 41.336C70.844 41.48 70.788 41.688 70.788 41.96V47H69.792ZM79.7953 47.096C79.2673 47.096 78.8113 46.996 78.4273 46.796C78.0433 46.596 77.7433 46.308 77.5273 45.932C77.3193 45.548 77.2153 45.096 77.2153 44.576V42.824C77.2153 42.296 77.3193 41.844 77.5273 41.468C77.7433 41.092 78.0433 40.804 78.4273 40.604C78.8113 40.404 79.2673 40.304 79.7953 40.304C80.3233 40.304 80.7793 40.404 81.1633 40.604C81.5473 40.804 81.8433 41.092 82.0513 41.468C82.2673 41.844 82.3753 42.292 82.3753 42.812V44.576C82.3753 45.096 82.2673 45.548 82.0513 45.932C81.8433 46.308 81.5473 46.596 81.1633 46.796C80.7793 46.996 80.3233 47.096 79.7953 47.096ZM79.7953 46.136C80.2673 46.136 80.6353 46.004 80.8993 45.74C81.1633 45.476 81.2953 45.088 81.2953 44.576V42.824C81.2953 42.312 81.1633 41.924 80.8993 41.66C80.6353 41.396 80.2673 41.264 79.7953 41.264C79.3313 41.264 78.9633 41.396 78.6913 41.66C78.4273 41.924 78.2953 42.312 78.2953 42.824V44.576C78.2953 45.088 78.4273 45.476 78.6913 45.74C78.9633 46.004 79.3313 46.136 79.7953 46.136ZM86.6066 47.12C85.9506 47.12 85.4186 46.9 85.0106 46.46C84.6106 46.02 84.4106 45.424 84.4106 44.672V42.74C84.4106 41.98 84.6106 41.38 85.0106 40.94C85.4106 40.5 85.9426 40.28 86.6066 40.28C87.1506 40.28 87.5866 40.428 87.9146 40.724C88.2426 41.02 88.4066 41.416 88.4066 41.912L88.1906 41.66H88.4306L88.4066 40.16V38.24H89.4866V47H88.4066V45.74H88.1906L88.4066 45.488C88.4066 45.992 88.2426 46.392 87.9146 46.688C87.5866 46.976 87.1506 47.12 86.6066 47.12ZM86.9666 46.184C87.4146 46.184 87.7666 46.044 88.0226 45.764C88.2786 45.484 88.4066 45.096 88.4066 44.6V42.8C88.4066 42.304 88.2786 41.916 88.0226 41.636C87.7666 41.356 87.4146 41.216 86.9666 41.216C86.5106 41.216 86.1506 41.352 85.8866 41.624C85.6226 41.896 85.4906 42.288 85.4906 42.8V44.6C85.4906 45.112 85.6226 45.504 85.8866 45.776C86.1506 46.048 86.5106 46.184 86.9666 46.184ZM94.1859 47.12C93.8819 47.12 93.6379 47.032 93.4539 46.856C93.2779 46.68 93.1899 46.444 93.1899 46.148C93.1899 45.836 93.2779 45.588 93.4539 45.404C93.6379 45.22 93.8819 45.128 94.1859 45.128C94.4899 45.128 94.7299 45.22 94.9059 45.404C95.0899 45.588 95.1819 45.836 95.1819 46.148C95.1819 46.444 95.0899 46.68 94.9059 46.856C94.7299 47.032 94.4899 47.12 94.1859 47.12ZM98.8013 49.16V48.164H100.349C100.845 48.164 101.229 48.028 101.501 47.756C101.781 47.492 101.921 47.116 101.921 46.628V41.384H99.1613V40.4H103.001V46.628C103.001 47.404 102.761 48.02 102.281 48.476C101.801 48.932 101.157 49.16 100.349 49.16H98.8013ZM102.401 39.212C102.137 39.212 101.929 39.144 101.777 39.008C101.625 38.872 101.549 38.688 101.549 38.456C101.549 38.216 101.625 38.028 101.777 37.892C101.929 37.748 102.137 37.676 102.401 37.676C102.665 37.676 102.873 37.748 103.025 37.892C103.177 38.028 103.253 38.216 103.253 38.456C103.253 38.688 103.177 38.872 103.025 39.008C102.873 39.144 102.665 39.212 102.401 39.212ZM108.373 47.096C107.925 47.096 107.533 47.028 107.197 46.892C106.869 46.748 106.605 46.548 106.405 46.292C106.213 46.036 106.097 45.732 106.057 45.38H107.137C107.185 45.612 107.313 45.796 107.521 45.932C107.737 46.068 108.021 46.136 108.373 46.136H108.877C109.301 46.136 109.617 46.052 109.825 45.884C110.033 45.708 110.137 45.476 110.137 45.188C110.137 44.908 110.041 44.688 109.849 44.528C109.665 44.36 109.389 44.248 109.021 44.192L108.133 44.048C107.485 43.936 107.001 43.736 106.681 43.448C106.369 43.152 106.213 42.724 106.213 42.164C106.213 41.572 106.401 41.116 106.777 40.796C107.153 40.468 107.717 40.304 108.469 40.304H108.925C109.557 40.304 110.065 40.452 110.449 40.748C110.833 41.044 111.065 41.444 111.145 41.948H110.065C110.017 41.74 109.897 41.576 109.705 41.456C109.513 41.328 109.253 41.264 108.925 41.264H108.469C108.061 41.264 107.761 41.34 107.569 41.492C107.385 41.644 107.293 41.872 107.293 42.176C107.293 42.448 107.373 42.648 107.533 42.776C107.693 42.904 107.945 42.996 108.289 43.052L109.177 43.196C109.889 43.308 110.405 43.516 110.725 43.82C111.053 44.124 111.217 44.564 111.217 45.14C111.217 45.748 111.021 46.228 110.629 46.58C110.245 46.924 109.661 47.096 108.877 47.096H108.373ZM184.917 47V40.4H185.865V41.192H186.081L185.913 41.48C185.913 41.112 186.009 40.82 186.201 40.604C186.401 40.388 186.669 40.28 187.005 40.28C187.373 40.28 187.657 40.416 187.857 40.688C188.057 40.96 188.157 41.344 188.157 41.84L187.833 41.192H188.337L188.109 41.48C188.109 41.112 188.209 40.82 188.409 40.604C188.617 40.388 188.889 40.28 189.225 40.28C189.641 40.28 189.961 40.436 190.185 40.748C190.417 41.06 190.533 41.472 190.533 41.984V47H189.537V41.972C189.537 41.7 189.477 41.488 189.357 41.336C189.245 41.184 189.077 41.108 188.853 41.108C188.637 41.108 188.465 41.184 188.337 41.336C188.217 41.48 188.157 41.688 188.157 41.96V47H187.293V41.972C187.293 41.692 187.229 41.48 187.101 41.336C186.981 41.184 186.809 41.108 186.585 41.108C186.361 41.108 186.193 41.184 186.081 41.336C185.969 41.48 185.913 41.688 185.913 41.96V47H184.917ZM194.92 47.096C194.392 47.096 193.936 46.996 193.552 46.796C193.168 46.596 192.868 46.308 192.652 45.932C192.444 45.548 192.34 45.096 192.34 44.576V42.824C192.34 42.296 192.444 41.844 192.652 41.468C192.868 41.092 193.168 40.804 193.552 40.604C193.936 40.404 194.392 40.304 194.92 40.304C195.448 40.304 195.904 40.404 196.288 40.604C196.672 40.804 196.968 41.092 197.176 41.468C197.392 41.844 197.5 42.292 197.5 42.812V44.576C197.5 45.096 197.392 45.548 197.176 45.932C196.968 46.308 196.672 46.596 196.288 46.796C195.904 46.996 195.448 47.096 194.92 47.096ZM194.92 46.136C195.392 46.136 195.76 46.004 196.024 45.74C196.288 45.476 196.42 45.088 196.42 44.576V42.824C196.42 42.312 196.288 41.924 196.024 41.66C195.76 41.396 195.392 41.264 194.92 41.264C194.456 41.264 194.088 41.396 193.816 41.66C193.552 41.924 193.42 42.312 193.42 42.824V44.576C193.42 45.088 193.552 45.476 193.816 45.74C194.088 46.004 194.456 46.136 194.92 46.136ZM201.732 47.12C201.076 47.12 200.544 46.9 200.136 46.46C199.736 46.02 199.536 45.424 199.536 44.672V42.74C199.536 41.98 199.736 41.38 200.136 40.94C200.536 40.5 201.068 40.28 201.732 40.28C202.276 40.28 202.712 40.428 203.04 40.724C203.368 41.02 203.532 41.416 203.532 41.912L203.316 41.66H203.556L203.532 40.16V38.24H204.612V47H203.532V45.74H203.316L203.532 45.488C203.532 45.992 203.368 46.392 203.04 46.688C202.712 46.976 202.276 47.12 201.732 47.12ZM202.092 46.184C202.54 46.184 202.892 46.044 203.148 45.764C203.404 45.484 203.532 45.096 203.532 44.6V42.8C203.532 42.304 203.404 41.916 203.148 41.636C202.892 41.356 202.54 41.216 202.092 41.216C201.636 41.216 201.276 41.352 201.012 41.624C200.748 41.896 200.616 42.288 200.616 42.8V44.6C200.616 45.112 200.748 45.504 201.012 45.776C201.276 46.048 201.636 46.184 202.092 46.184ZM209.311 47.12C209.007 47.12 208.763 47.032 208.579 46.856C208.403 46.68 208.315 46.444 208.315 46.148C208.315 45.836 208.403 45.588 208.579 45.404C208.763 45.22 209.007 45.128 209.311 45.128C209.615 45.128 209.855 45.22 210.031 45.404C210.215 45.588 210.307 45.836 210.307 46.148C210.307 46.444 210.215 46.68 210.031 46.856C209.855 47.032 209.615 47.12 209.311 47.12ZM217.226 47C216.658 47 216.214 46.848 215.894 46.544C215.582 46.24 215.426 45.812 215.426 45.26V41.384H213.566V40.4H215.426V38.54H216.506V40.4H219.146V41.384H216.506V45.26C216.506 45.764 216.746 46.016 217.226 46.016H219.026V47H217.226ZM223.702 47.12C223.182 47.12 222.726 47.016 222.334 46.808C221.95 46.6 221.65 46.308 221.434 45.932C221.226 45.548 221.122 45.104 221.122 44.6V42.8C221.122 42.288 221.226 41.844 221.434 41.468C221.65 41.092 221.95 40.8 222.334 40.592C222.726 40.384 223.182 40.28 223.702 40.28C224.222 40.28 224.674 40.384 225.058 40.592C225.45 40.8 225.75 41.092 225.958 41.468C226.174 41.844 226.282 42.288 226.282 42.8V43.964H222.178V44.6C222.178 45.12 222.31 45.52 222.574 45.8C222.838 46.072 223.214 46.208 223.702 46.208C224.118 46.208 224.454 46.136 224.71 45.992C224.966 45.84 225.122 45.616 225.178 45.32H226.258C226.186 45.872 225.914 46.312 225.442 46.64C224.978 46.96 224.398 47.12 223.702 47.12ZM225.226 43.244V42.8C225.226 42.28 225.094 41.88 224.83 41.6C224.574 41.32 224.198 41.18 223.702 41.18C223.214 41.18 222.838 41.32 222.574 41.6C222.31 41.88 222.178 42.28 222.178 42.8V43.148H225.31L225.226 43.244ZM230.693 47.096C230.245 47.096 229.853 47.028 229.517 46.892C229.189 46.748 228.925 46.548 228.725 46.292C228.533 46.036 228.417 45.732 228.377 45.38H229.457C229.505 45.612 229.633 45.796 229.841 45.932C230.057 46.068 230.341 46.136 230.693 46.136H231.197C231.621 46.136 231.937 46.052 232.145 45.884C232.353 45.708 232.457 45.476 232.457 45.188C232.457 44.908 232.361 44.688 232.169 44.528C231.985 44.36 231.709 44.248 231.341 44.192L230.453 44.048C229.805 43.936 229.321 43.736 229.001 43.448C228.689 43.152 228.533 42.724 228.533 42.164C228.533 41.572 228.721 41.116 229.097 40.796C229.473 40.468 230.037 40.304 230.789 40.304H231.245C231.877 40.304 232.385 40.452 232.769 40.748C233.153 41.044 233.385 41.444 233.465 41.948H232.385C232.337 41.74 232.217 41.576 232.025 41.456C231.833 41.328 231.573 41.264 231.245 41.264H230.789C230.381 41.264 230.081 41.34 229.889 41.492C229.705 41.644 229.613 41.872 229.613 42.176C229.613 42.448 229.693 42.648 229.853 42.776C230.013 42.904 230.265 42.996 230.609 43.052L231.497 43.196C232.209 43.308 232.725 43.516 233.045 43.82C233.373 44.124 233.537 44.564 233.537 45.14C233.537 45.748 233.341 46.228 232.949 46.58C232.565 46.924 231.981 47.096 231.197 47.096H230.693ZM238.812 47C238.244 47 237.8 46.848 237.48 46.544C237.168 46.24 237.012 45.812 237.012 45.26V41.384H235.152V40.4H237.012V38.54H238.092V40.4H240.732V41.384H238.092V45.26C238.092 45.764 238.332 46.016 238.812 46.016H240.612V47H238.812ZM245.288 47.12C244.984 47.12 244.74 47.032 244.556 46.856C244.38 46.68 244.292 46.444 244.292 46.148C244.292 45.836 244.38 45.588 244.556 45.404C244.74 45.22 244.984 45.128 245.288 45.128C245.592 45.128 245.832 45.22 246.008 45.404C246.192 45.588 246.284 45.836 246.284 46.148C246.284 46.444 246.192 46.68 246.008 46.856C245.832 47.032 245.592 47.12 245.288 47.12ZM249.903 49.16V48.164H251.451C251.947 48.164 252.331 48.028 252.603 47.756C252.883 47.492 253.023 47.116 253.023 46.628V41.384H250.263V40.4H254.103V46.628C254.103 47.404 253.863 48.02 253.383 48.476C252.903 48.932 252.259 49.16 251.451 49.16H249.903ZM253.503 39.212C253.239 39.212 253.031 39.144 252.879 39.008C252.727 38.872 252.651 38.688 252.651 38.456C252.651 38.216 252.727 38.028 252.879 37.892C253.031 37.748 253.239 37.676 253.503 37.676C253.767 37.676 253.975 37.748 254.127 37.892C254.279 38.028 254.355 38.216 254.355 38.456C254.355 38.688 254.279 38.872 254.127 39.008C253.975 39.144 253.767 39.212 253.503 39.212ZM259.474 47.096C259.026 47.096 258.634 47.028 258.298 46.892C257.97 46.748 257.706 46.548 257.506 46.292C257.314 46.036 257.198 45.732 257.158 45.38H258.238C258.286 45.612 258.414 45.796 258.622 45.932C258.838 46.068 259.122 46.136 259.474 46.136H259.978C260.402 46.136 260.718 46.052 260.926 45.884C261.134 45.708 261.238 45.476 261.238 45.188C261.238 44.908 261.142 44.688 260.95 44.528C260.766 44.36 260.49 44.248 260.122 44.192L259.234 44.048C258.586 43.936 258.102 43.736 257.782 43.448C257.47 43.152 257.314 42.724 257.314 42.164C257.314 41.572 257.502 41.116 257.878 40.796C258.254 40.468 258.818 40.304 259.57 40.304H260.026C260.658 40.304 261.166 40.452 261.55 40.748C261.934 41.044 262.166 41.444 262.246 41.948H261.166C261.118 41.74 260.998 41.576 260.806 41.456C260.614 41.328 260.354 41.264 260.026 41.264H259.57C259.162 41.264 258.862 41.34 258.67 41.492C258.486 41.644 258.394 41.872 258.394 42.176C258.394 42.448 258.474 42.648 258.634 42.776C258.794 42.904 259.046 42.996 259.39 43.052L260.278 43.196C260.99 43.308 261.506 43.516 261.826 43.82C262.154 44.124 262.318 44.564 262.318 45.14C262.318 45.748 262.122 46.228 261.73 46.58C261.346 46.924 260.762 47.096 259.978 47.096H259.474Z" fill="#F9E2AF"/>
<path d="M115.244 45.86V43.52H112.952V42.56H115.244V40.22H116.3V42.56H118.592V43.52H116.3V45.86H115.244ZM180.002 45.86V43.52H177.71V42.56H180.002V40.22H181.058V42.56H183.35V43.52H181.058V45.86H180.002Z" fill="#FF6188"/>
<path d="M120.159 47V40.4H121.107V41.192H121.323L121.155 41.48C121.155 41.112 121.251 40.82 121.443 40.604C121.643 40.388 121.911 40.28 122.247 40.28C122.615 40.28 122.899 40.416 123.099 40.688C123.299 40.96 123.399 41.344 123.399 41.84L123.075 41.192H123.579L123.351 41.48C123.351 41.112 123.451 40.82 123.651 40.604C123.859 40.388 124.131 40.28 124.467 40.28C124.883 40.28 125.203 40.436 125.427 40.748C125.659 41.06 125.775 41.472 125.775 41.984V47H124.779V41.972C124.779 41.7 124.719 41.488 124.599 41.336C124.487 41.184 124.319 41.108 124.095 41.108C123.879 41.108 123.707 41.184 123.579 41.336C123.459 41.48 123.399 41.688 123.399 41.96V47H122.535V41.972C122.535 41.692 122.471 41.48 122.343 41.336C122.223 41.184 122.051 41.108 121.827 41.108C121.603 41.108 121.435 41.184 121.323 41.336C121.211 41.48 121.155 41.688 121.155 41.96V47H120.159ZM130.163 47.096C129.635 47.096 129.179 46.996 128.795 46.796C128.411 46.596 128.111 46.308 127.895 45.932C127.687 45.548 127.583 45.096 127.583 44.576V42.824C127.583 42.296 127.687 41.844 127.895 41.468C128.111 41.092 128.411 40.804 128.795 40.604C129.179 40.404 129.635 40.304 130.163 40.304C130.691 40.304 131.147 40.404 131.531 40.604C131.915 40.804 132.211 41.092 132.419 41.468C132.635 41.844 132.743 42.292 132.743 42.812V44.576C132.743 45.096 132.635 45.548 132.419 45.932C132.211 46.308 131.915 46.596 131.531 46.796C131.147 46.996 130.691 47.096 130.163 47.096ZM130.163 46.136C130.635 46.136 131.003 46.004 131.267 45.74C131.531 45.476 131.663 45.088 131.663 44.576V42.824C131.663 42.312 131.531 41.924 131.267 41.66C131.003 41.396 130.635 41.264 130.163 41.264C129.699 41.264 129.331 41.396 129.059 41.66C128.795 41.924 128.663 42.312 128.663 42.824V44.576C128.663 45.088 128.795 45.476 129.059 45.74C129.331 46.004 129.699 46.136 130.163 46.136ZM136.974 47.12C136.318 47.12 135.786 46.9 135.378 46.46C134.978 46.02 134.778 45.424 134.778 44.672V42.74C134.778 41.98 134.978 41.38 135.378 40.94C135.778 40.5 136.31 40.28 136.974 40.28C137.518 40.28 137.954 40.428 138.282 40.724C138.61 41.02 138.774 41.416 138.774 41.912L138.558 41.66H138.798L138.774 40.16V38.24H139.854V47H138.774V45.74H138.558L138.774 45.488C138.774 45.992 138.61 46.392 138.282 46.688C137.954 46.976 137.518 47.12 136.974 47.12ZM137.334 46.184C137.782 46.184 138.134 46.044 138.39 45.764C138.646 45.484 138.774 45.096 138.774 44.6V42.8C138.774 42.304 138.646 41.916 138.39 41.636C138.134 41.356 137.782 41.216 137.334 41.216C136.878 41.216 136.518 41.352 136.254 41.624C135.99 41.896 135.858 42.288 135.858 42.8V44.6C135.858 45.112 135.99 45.504 136.254 45.776C136.518 46.048 136.878 46.184 137.334 46.184ZM144.553 47.12C144.249 47.12 144.005 47.032 143.821 46.856C143.645 46.68 143.557 46.444 143.557 46.148C143.557 45.836 143.645 45.588 143.821 45.404C144.005 45.22 144.249 45.128 144.553 45.128C144.857 45.128 145.097 45.22 145.273 45.404C145.457 45.588 145.549 45.836 145.549 46.148C145.549 46.444 145.457 46.68 145.273 46.856C145.097 47.032 144.857 47.12 144.553 47.12ZM151.364 47.12C150.708 47.12 150.176 46.9 149.768 46.46C149.368 46.02 149.168 45.424 149.168 44.672V42.74C149.168 41.98 149.368 41.38 149.768 40.94C150.168 40.5 150.7 40.28 151.364 40.28C151.908 40.28 152.344 40.428 152.672 40.724C153 41.02 153.164 41.416 153.164 41.912L152.948 41.66H153.188L153.164 40.16V38.24H154.244V47H153.164V45.74H152.948L153.164 45.488C153.164 45.992 153 46.392 152.672 46.688C152.344 46.976 151.908 47.12 151.364 47.12ZM151.724 46.184C152.172 46.184 152.524 46.044 152.78 45.764C153.036 45.484 153.164 45.096 153.164 44.6V42.8C153.164 42.304 153.036 41.916 152.78 41.636C152.524 41.356 152.172 41.216 151.724 41.216C151.268 41.216 150.908 41.352 150.644 41.624C150.38 41.896 150.248 42.288 150.248 42.8V44.6C150.248 45.112 150.38 45.504 150.644 45.776C150.908 46.048 151.268 46.184 151.724 46.184ZM158.944 47.12C158.64 47.12 158.396 47.032 158.212 46.856C158.036 46.68 157.948 46.444 157.948 46.148C157.948 45.836 158.036 45.588 158.212 45.404C158.396 45.22 158.64 45.128 158.944 45.128C159.248 45.128 159.488 45.22 159.664 45.404C159.848 45.588 159.94 45.836 159.94 46.148C159.94 46.444 159.848 46.68 159.664 46.856C159.488 47.032 159.248 47.12 158.944 47.12ZM166.859 47C166.291 47 165.847 46.848 165.527 46.544C165.215 46.24 165.059 45.812 165.059 45.26V41.384H163.199V40.4H165.059V38.54H166.139V40.4H168.779V41.384H166.139V45.26C166.139 45.764 166.379 46.016 166.859 46.016H168.659V47H166.859ZM173.13 47.096C172.682 47.096 172.29 47.028 171.954 46.892C171.626 46.748 171.362 46.548 171.162 46.292C170.97 46.036 170.854 45.732 170.814 45.38H171.894C171.942 45.612 172.07 45.796 172.278 45.932C172.494 46.068 172.778 46.136 173.13 46.136H173.634C174.058 46.136 174.374 46.052 174.582 45.884C174.79 45.708 174.894 45.476 174.894 45.188C174.894 44.908 174.798 44.688 174.606 44.528C174.422 44.36 174.146 44.248 173.778 44.192L172.89 44.048C172.242 43.936 171.758 43.736 171.438 43.448C171.126 43.152 170.97 42.724 170.97 42.164C170.97 41.572 171.158 41.116 171.534 40.796C171.91 40.468 172.474 40.304 173.226 40.304H173.682C174.314 40.304 174.822 40.452 175.206 40.748C175.59 41.044 175.822 41.444 175.902 41.948H174.822C174.774 41.74 174.654 41.576 174.462 41.456C174.27 41.328 174.01 41.264 173.682 41.264H173.226C172.818 41.264 172.518 41.34 172.326 41.492C172.142 41.644 172.05 41.872 172.05 42.176C172.05 42.448 172.13 42.648 172.29 42.776C172.45 42.904 172.702 42.996 173.046 43.052L173.934 43.196C174.646 43.308 175.162 43.516 175.482 43.82C175.81 44.124 175.974 44.564 175.974 45.14C175.974 45.748 175.778 46.228 175.386 46.58C175.002 46.924 174.418 47.096 173.634 47.096H173.13Z" fill="#89B4FA"/>
<path d="M69.99 138V129.75H71.175V130.74H71.445L71.235 131.1C71.235 130.64 71.355 130.275 71.595 130.005C71.845 129.735 72.18 129.6 72.6 129.6C73.06 129.6 73.415 129.77 73.665 130.11C73.915 130.45 74.04 130.93 74.04 131.55L73.635 130.74H74.265L73.98 131.1C73.98 130.64 74.105 130.275 74.355 130.005C74.615 129.735 74.955 129.6 75.375 129.6C75.895 129.6 76.295 129.795 76.575 130.185C76.865 130.575 77.01 131.09 77.01 131.73V138H75.765V131.715C75.765 131.375 75.69 131.11 75.54 130.92C75.4 130.73 75.19 130.635 74.91 130.635C74.64 130.635 74.425 130.73 74.265 130.92C74.115 131.1 74.04 131.36 74.04 131.7V138H72.96V131.715C72.96 131.365 72.88 131.1 72.72 130.92C72.57 130.73 72.355 130.635 72.075 130.635C71.795 130.635 71.585 130.73 71.445 130.92C71.305 131.1 71.235 131.36 71.235 131.7V138H69.99ZM82.4941 138.12C81.8341 138.12 81.2641 137.995 80.7841 137.745C80.3041 137.495 79.9291 137.135 79.6591 136.665C79.3991 136.185 79.2691 135.62 79.2691 134.97V132.78C79.2691 132.12 79.3991 131.555 79.6591 131.085C79.9291 130.615 80.3041 130.255 80.7841 130.005C81.2641 129.755 81.8341 129.63 82.4941 129.63C83.1541 129.63 83.7241 129.755 84.2041 130.005C84.6841 130.255 85.0541 130.615 85.3141 131.085C85.5841 131.555 85.7191 132.115 85.7191 132.765V134.97C85.7191 135.62 85.5841 136.185 85.3141 136.665C85.0541 137.135 84.6841 137.495 84.2041 137.745C83.7241 137.995 83.1541 138.12 82.4941 138.12ZM82.4941 136.92C83.0841 136.92 83.5441 136.755 83.8741 136.425C84.2041 136.095 84.3691 135.61 84.3691 134.97V132.78C84.3691 132.14 84.2041 131.655 83.8741 131.325C83.5441 130.995 83.0841 130.83 82.4941 130.83C81.9141 130.83 81.4541 130.995 81.1141 131.325C80.7841 131.655 80.6191 132.14 80.6191 132.78V134.97C80.6191 135.61 80.7841 136.095 81.1141 136.425C81.4541 136.755 81.9141 136.92 82.4941 136.92ZM91.0083 138.15C90.1883 138.15 89.5233 137.875 89.0133 137.325C88.5133 136.775 88.2633 136.03 88.2633 135.09V132.675C88.2633 131.725 88.5133 130.975 89.0133 130.425C89.5133 129.875 90.1783 129.6 91.0083 129.6C91.6883 129.6 92.2333 129.785 92.6433 130.155C93.0533 130.525 93.2583 131.02 93.2583 131.64L92.9883 131.325H93.2883L93.2583 129.45V127.05H94.6083V138H93.2583V136.425H92.9883L93.2583 136.11C93.2583 136.74 93.0533 137.24 92.6433 137.61C92.2333 137.97 91.6883 138.15 91.0083 138.15ZM91.4583 136.98C92.0183 136.98 92.4583 136.805 92.7783 136.455C93.0983 136.105 93.2583 135.62 93.2583 135V132.75C93.2583 132.13 93.0983 131.645 92.7783 131.295C92.4583 130.945 92.0183 130.77 91.4583 130.77C90.8883 130.77 90.4383 130.94 90.1083 131.28C89.7783 131.62 89.6133 132.11 89.6133 132.75V135C89.6133 135.64 89.7783 136.13 90.1083 136.47C90.4383 136.81 90.8883 136.98 91.4583 136.98ZM100.482 138.15C100.102 138.15 99.7974 138.04 99.5674 137.82C99.3474 137.6 99.2374 137.305 99.2374 136.935C99.2374 136.545 99.3474 136.235 99.5674 136.005C99.7974 135.775 100.102 135.66 100.482 135.66C100.862 135.66 101.162 135.775 101.382 136.005C101.612 136.235 101.727 136.545 101.727 136.935C101.727 137.305 101.612 137.6 101.382 137.82C101.162 138.04 100.862 138.15 100.482 138.15ZM106.252 140.7V139.455H108.187C108.807 139.455 109.287 139.285 109.627 138.945C109.977 138.615 110.152 138.145 110.152 137.535V130.98H106.702V129.75H111.502V137.535C111.502 138.505 111.202 139.275 110.602 139.845C110.002 140.415 109.197 140.7 108.187 140.7H106.252ZM110.752 128.265C110.422 128.265 110.162 128.18 109.972 128.01C109.782 127.84 109.687 127.61 109.687 127.32C109.687 127.02 109.782 126.785 109.972 126.615C110.162 126.435 110.422 126.345 110.752 126.345C111.082 126.345 111.342 126.435 111.532 126.615C111.722 126.785 111.817 127.02 111.817 127.32C111.817 127.61 111.722 127.84 111.532 128.01C111.342 128.18 111.082 128.265 110.752 128.265ZM118.216 138.12C117.656 138.12 117.166 138.035 116.746 137.865C116.336 137.685 116.006 137.435 115.756 137.115C115.516 136.795 115.371 136.415 115.321 135.975H116.671C116.731 136.265 116.891 136.495 117.151 136.665C117.421 136.835 117.776 136.92 118.216 136.92H118.846C119.376 136.92 119.771 136.815 120.031 136.605C120.291 136.385 120.421 136.095 120.421 135.735C120.421 135.385 120.301 135.11 120.061 134.91C119.831 134.7 119.486 134.56 119.026 134.49L117.916 134.31C117.106 134.17 116.501 133.92 116.101 133.56C115.711 133.19 115.516 132.655 115.516 131.955C115.516 131.215 115.751 130.645 116.221 130.245C116.691 129.835 117.396 129.63 118.336 129.63H118.906C119.696 129.63 120.331 129.815 120.811 130.185C121.291 130.555 121.581 131.055 121.681 131.685H120.331C120.271 131.425 120.121 131.22 119.881 131.07C119.641 130.91 119.316 130.83 118.906 130.83H118.336C117.826 130.83 117.451 130.925 117.211 131.115C116.981 131.305 116.866 131.59 116.866 131.97C116.866 132.31 116.966 132.56 117.166 132.72C117.366 132.88 117.681 132.995 118.111 133.065L119.221 133.245C120.111 133.385 120.756 133.645 121.156 134.025C121.566 134.405 121.771 134.955 121.771 135.675C121.771 136.435 121.526 137.035 121.036 137.475C120.556 137.905 119.826 138.12 118.846 138.12H118.216Z" fill="#F9E2AF"/>
<path d="M69.99 205V196.75H71.175V197.74H71.445L71.235 198.1C71.235 197.64 71.355 197.275 71.595 197.005C71.845 196.735 72.18 196.6 72.6 196.6C73.06 196.6 73.415 196.77 73.665 197.11C73.915 197.45 74.04 197.93 74.04 198.55L73.635 197.74H74.265L73.98 198.1C73.98 197.64 74.105 197.275 74.355 197.005C74.615 196.735 74.955 196.6 75.375 196.6C75.895 196.6 76.295 196.795 76.575 197.185C76.865 197.575 77.01 198.09 77.01 198.73V205H75.765V198.715C75.765 198.375 75.69 198.11 75.54 197.92C75.4 197.73 75.19 197.635 74.91 197.635C74.64 197.635 74.425 197.73 74.265 197.92C74.115 198.1 74.04 198.36 74.04 198.7V205H72.96V198.715C72.96 198.365 72.88 198.1 72.72 197.92C72.57 197.73 72.355 197.635 72.075 197.635C71.795 197.635 71.585 197.73 71.445 197.92C71.305 198.1 71.235 198.36 71.235 198.7V205H69.99ZM82.4941 205.12C81.8341 205.12 81.2641 204.995 80.7841 204.745C80.3041 204.495 79.9291 204.135 79.6591 203.665C79.3991 203.185 79.2691 202.62 79.2691 201.97V199.78C79.2691 199.12 79.3991 198.555 79.6591 198.085C79.9291 197.615 80.3041 197.255 80.7841 197.005C81.2641 196.755 81.8341 196.63 82.4941 196.63C83.1541 196.63 83.7241 196.755 84.2041 197.005C84.6841 197.255 85.0541 197.615 85.3141 198.085C85.5841 198.555 85.7191 199.115 85.7191 199.765V201.97C85.7191 202.62 85.5841 203.185 85.3141 203.665C85.0541 204.135 84.6841 204.495 84.2041 204.745C83.7241 204.995 83.1541 205.12 82.4941 205.12ZM82.4941 203.92C83.0841 203.92 83.5441 203.755 83.8741 203.425C84.2041 203.095 84.3691 202.61 84.3691 201.97V199.78C84.3691 199.14 84.2041 198.655 83.8741 198.325C83.5441 197.995 83.0841 197.83 82.4941 197.83C81.9141 197.83 81.4541 197.995 81.1141 198.325C80.7841 198.655 80.6191 199.14 80.6191 199.78V201.97C80.6191 202.61 80.7841 203.095 81.1141 203.425C81.4541 203.755 81.9141 203.92 82.4941 203.92ZM91.0083 205.15C90.1883 205.15 89.5233 204.875 89.0133 204.325C88.5133 203.775 88.2633 203.03 88.2633 202.09V199.675C88.2633 198.725 88.5133 197.975 89.0133 197.425C89.5133 196.875 90.1783 196.6 91.0083 196.6C91.6883 196.6 92.2333 196.785 92.6433 197.155C93.0533 197.525 93.2583 198.02 93.2583 198.64L92.9883 198.325H93.2883L93.2583 196.45V194.05H94.6083V205H93.2583V203.425H92.9883L93.2583 203.11C93.2583 203.74 93.0533 204.24 92.6433 204.61C92.2333 204.97 91.6883 205.15 91.0083 205.15ZM91.4583 203.98C92.0183 203.98 92.4583 203.805 92.7783 203.455C93.0983 203.105 93.2583 202.62 93.2583 202V199.75C93.2583 199.13 93.0983 198.645 92.7783 198.295C92.4583 197.945 92.0183 197.77 91.4583 197.77C90.8883 197.77 90.4383 197.94 90.1083 198.28C89.7783 198.62 89.6133 199.11 89.6133 199.75V202C89.6133 202.64 89.7783 203.13 90.1083 203.47C90.4383 203.81 90.8883 203.98 91.4583 203.98ZM100.482 205.15C100.102 205.15 99.7974 205.04 99.5674 204.82C99.3474 204.6 99.2374 204.305 99.2374 203.935C99.2374 203.545 99.3474 203.235 99.5674 203.005C99.7974 202.775 100.102 202.66 100.482 202.66C100.862 202.66 101.162 202.775 101.382 203.005C101.612 203.235 101.727 203.545 101.727 203.935C101.727 204.305 101.612 204.6 101.382 204.82C101.162 205.04 100.862 205.15 100.482 205.15ZM110.377 205C109.667 205 109.112 204.81 108.712 204.43C108.322 204.05 108.127 203.515 108.127 202.825V197.98H105.802V196.75H108.127V194.425H109.477V196.75H112.777V197.98H109.477V202.825C109.477 203.455 109.777 203.77 110.377 203.77H112.627V205H110.377ZM118.471 205.15C117.821 205.15 117.251 205.02 116.761 204.76C116.281 204.5 115.906 204.135 115.636 203.665C115.376 203.185 115.246 202.63 115.246 202V199.75C115.246 199.11 115.376 198.555 115.636 198.085C115.906 197.615 116.281 197.25 116.761 196.99C117.251 196.73 117.821 196.6 118.471 196.6C119.121 196.6 119.686 196.73 120.166 196.99C120.656 197.25 121.031 197.615 121.291 198.085C121.561 198.555 121.696 199.11 121.696 199.75V201.205H116.566V202C116.566 202.65 116.731 203.15 117.061 203.5C117.391 203.84 117.861 204.01 118.471 204.01C118.991 204.01 119.411 203.92 119.731 203.74C120.051 203.55 120.246 203.27 120.316 202.9H121.666C121.576 203.59 121.236 204.14 120.646 204.55C120.066 204.95 119.341 205.15 118.471 205.15ZM120.376 200.305V199.75C120.376 199.1 120.211 198.6 119.881 198.25C119.561 197.9 119.091 197.725 118.471 197.725C117.861 197.725 117.391 197.9 117.061 198.25C116.731 198.6 116.566 199.1 116.566 199.75V200.185H120.481L120.376 200.305ZM127.21 205.12C126.65 205.12 126.16 205.035 125.74 204.865C125.33 204.685 125 204.435 124.75 204.115C124.51 203.795 124.365 203.415 124.315 202.975H125.665C125.725 203.265 125.885 203.495 126.145 203.665C126.415 203.835 126.77 203.92 127.21 203.92H127.84C128.37 203.92 128.765 203.815 129.025 203.605C129.285 203.385 129.415 203.095 129.415 202.735C129.415 202.385 129.295 202.11 129.055 201.91C128.825 201.7 128.48 201.56 128.02 201.49L126.91 201.31C126.1 201.17 125.495 200.92 125.095 200.56C124.705 200.19 124.51 199.655 124.51 198.955C124.51 198.215 124.745 197.645 125.215 197.245C125.685 196.835 126.39 196.63 127.33 196.63H127.9C128.69 196.63 129.325 196.815 129.805 197.185C130.285 197.555 130.575 198.055 130.675 198.685H129.325C129.265 198.425 129.115 198.22 128.875 198.07C128.635 197.91 128.31 197.83 127.9 197.83H127.33C126.82 197.83 126.445 197.925 126.205 198.115C125.975 198.305 125.86 198.59 125.86 198.97C125.86 199.31 125.96 199.56 126.16 199.72C126.36 199.88 126.675 199.995 127.105 200.065L128.215 200.245C129.105 200.385 129.75 200.645 130.15 201.025C130.56 201.405 130.765 201.955 130.765 202.675C130.765 203.435 130.52 204.035 130.03 204.475C129.55 204.905 128.82 205.12 127.84 205.12H127.21ZM137.359 205C136.649 205 136.094 204.81 135.694 204.43C135.304 204.05 135.109 203.515 135.109 202.825V197.98H132.784V196.75H135.109V194.425H136.459V196.75H139.759V197.98H136.459V202.825C136.459 203.455 136.759 203.77 137.359 203.77H139.609V205H137.359ZM145.453 205.15C145.073 205.15 144.768 205.04 144.538 204.82C144.318 204.6 144.208 204.305 144.208 203.935C144.208 203.545 144.318 203.235 144.538 203.005C144.768 202.775 145.073 202.66 145.453 202.66C145.833 202.66 146.133 202.775 146.353 203.005C146.583 203.235 146.698 203.545 146.698 203.935C146.698 204.305 146.583 204.6 146.353 204.82C146.133 205.04 145.833 205.15 145.453 205.15ZM151.222 207.7V206.455H153.157C153.777 206.455 154.257 206.285 154.597 205.945C154.947 205.615 155.122 205.145 155.122 204.535V197.98H151.672V196.75H156.472V204.535C156.472 205.505 156.172 206.275 155.572 206.845C154.972 207.415 154.167 207.7 153.157 207.7H151.222ZM155.722 195.265C155.392 195.265 155.132 195.18 154.942 195.01C154.752 194.84 154.657 194.61 154.657 194.32C154.657 194.02 154.752 193.785 154.942 193.615C155.132 193.435 155.392 193.345 155.722 193.345C156.052 193.345 156.312 193.435 156.502 193.615C156.692 193.785 156.787 194.02 156.787 194.32C156.787 194.61 156.692 194.84 156.502 195.01C156.312 195.18 156.052 195.265 155.722 195.265ZM163.186 205.12C162.626 205.12 162.136 205.035 161.716 204.865C161.306 204.685 160.976 204.435 160.726 204.115C160.486 203.795 160.341 203.415 160.291 202.975H161.641C161.701 203.265 161.861 203.495 162.121 203.665C162.391 203.835 162.746 203.92 163.186 203.92H163.816C164.346 203.92 164.741 203.815 165.001 203.605C165.261 203.385 165.391 203.095 165.391 202.735C165.391 202.385 165.271 202.11 165.031 201.91C164.801 201.7 164.456 201.56 163.996 201.49L162.886 201.31C162.076 201.17 161.471 200.92 161.071 200.56C160.681 200.19 160.486 199.655 160.486 198.955C160.486 198.215 160.721 197.645 161.191 197.245C161.661 196.835 162.366 196.63 163.306 196.63H163.876C164.666 196.63 165.301 196.815 165.781 197.185C166.261 197.555 166.551 198.055 166.651 198.685H165.301C165.241 198.425 165.091 198.22 164.851 198.07C164.611 197.91 164.286 197.83 163.876 197.83H163.306C162.796 197.83 162.421 197.925 162.181 198.115C161.951 198.305 161.836 198.59 161.836 198.97C161.836 199.31 161.936 199.56 162.136 199.72C162.336 199.88 162.651 199.995 163.081 200.065L164.191 200.245C165.081 200.385 165.726 200.645 166.126 201.025C166.536 201.405 166.741 201.955 166.741 202.675C166.741 203.435 166.496 204.035 166.006 204.475C165.526 204.905 164.796 205.12 163.816 205.12H163.186Z" fill="#F9E2AF"/>
<path d="M69.99 173V164.75H71.175V165.74H71.445L71.235 166.1C71.235 165.64 71.355 165.275 71.595 165.005C71.845 164.735 72.18 164.6 72.6 164.6C73.06 164.6 73.415 164.77 73.665 165.11C73.915 165.45 74.04 165.93 74.04 166.55L73.635 165.74H74.265L73.98 166.1C73.98 165.64 74.105 165.275 74.355 165.005C74.615 164.735 74.955 164.6 75.375 164.6C75.895 164.6 76.295 164.795 76.575 165.185C76.865 165.575 77.01 166.09 77.01 166.73V173H75.765V166.715C75.765 166.375 75.69 166.11 75.54 165.92C75.4 165.73 75.19 165.635 74.91 165.635C74.64 165.635 74.425 165.73 74.265 165.92C74.115 166.1 74.04 166.36 74.04 166.7V173H72.96V166.715C72.96 166.365 72.88 166.1 72.72 165.92C72.57 165.73 72.355 165.635 72.075 165.635C71.795 165.635 71.585 165.73 71.445 165.92C71.305 166.1 71.235 166.36 71.235 166.7V173H69.99ZM82.4941 173.12C81.8341 173.12 81.2641 172.995 80.7841 172.745C80.3041 172.495 79.9291 172.135 79.6591 171.665C79.3991 171.185 79.2691 170.62 79.2691 169.97V167.78C79.2691 167.12 79.3991 166.555 79.6591 166.085C79.9291 165.615 80.3041 165.255 80.7841 165.005C81.2641 164.755 81.8341 164.63 82.4941 164.63C83.1541 164.63 83.7241 164.755 84.2041 165.005C84.6841 165.255 85.0541 165.615 85.3141 166.085C85.5841 166.555 85.7191 167.115 85.7191 167.765V169.97C85.7191 170.62 85.5841 171.185 85.3141 171.665C85.0541 172.135 84.6841 172.495 84.2041 172.745C83.7241 172.995 83.1541 173.12 82.4941 173.12ZM82.4941 171.92C83.0841 171.92 83.5441 171.755 83.8741 171.425C84.2041 171.095 84.3691 170.61 84.3691 169.97V167.78C84.3691 167.14 84.2041 166.655 83.8741 166.325C83.5441 165.995 83.0841 165.83 82.4941 165.83C81.9141 165.83 81.4541 165.995 81.1141 166.325C80.7841 166.655 80.6191 167.14 80.6191 167.78V169.97C80.6191 170.61 80.7841 171.095 81.1141 171.425C81.4541 171.755 81.9141 171.92 82.4941 171.92ZM91.0083 173.15C90.1883 173.15 89.5233 172.875 89.0133 172.325C88.5133 171.775 88.2633 171.03 88.2633 170.09V167.675C88.2633 166.725 88.5133 165.975 89.0133 165.425C89.5133 164.875 90.1783 164.6 91.0083 164.6C91.6883 164.6 92.2333 164.785 92.6433 165.155C93.0533 165.525 93.2583 166.02 93.2583 166.64L92.9883 166.325H93.2883L93.2583 164.45V162.05H94.6083V173H93.2583V171.425H92.9883L93.2583 171.11C93.2583 171.74 93.0533 172.24 92.6433 172.61C92.2333 172.97 91.6883 173.15 91.0083 173.15ZM91.4583 171.98C92.0183 171.98 92.4583 171.805 92.7783 171.455C93.0983 171.105 93.2583 170.62 93.2583 170V167.75C93.2583 167.13 93.0983 166.645 92.7783 166.295C92.4583 165.945 92.0183 165.77 91.4583 165.77C90.8883 165.77 90.4383 165.94 90.1083 166.28C89.7783 166.62 89.6133 167.11 89.6133 167.75V170C89.6133 170.64 89.7783 171.13 90.1083 171.47C90.4383 171.81 90.8883 171.98 91.4583 171.98ZM100.482 173.15C100.102 173.15 99.7974 173.04 99.5674 172.82C99.3474 172.6 99.2374 172.305 99.2374 171.935C99.2374 171.545 99.3474 171.235 99.5674 171.005C99.7974 170.775 100.102 170.66 100.482 170.66C100.862 170.66 101.162 170.775 101.382 171.005C101.612 171.235 101.727 171.545 101.727 171.935C101.727 172.305 101.612 172.6 101.382 172.82C101.162 173.04 100.862 173.15 100.482 173.15ZM108.997 173.15C108.177 173.15 107.512 172.875 107.002 172.325C106.502 171.775 106.252 171.03 106.252 170.09V167.675C106.252 166.725 106.502 165.975 107.002 165.425C107.502 164.875 108.167 164.6 108.997 164.6C109.677 164.6 110.222 164.785 110.632 165.155C111.042 165.525 111.247 166.02 111.247 166.64L110.977 166.325H111.277L111.247 164.45V162.05H112.597V173H111.247V171.425H110.977L111.247 171.11C111.247 171.74 111.042 172.24 110.632 172.61C110.222 172.97 109.677 173.15 108.997 173.15ZM109.447 171.98C110.007 171.98 110.447 171.805 110.767 171.455C111.087 171.105 111.247 170.62 111.247 170V167.75C111.247 167.13 111.087 166.645 110.767 166.295C110.447 165.945 110.007 165.77 109.447 165.77C108.877 165.77 108.427 165.94 108.097 166.28C107.767 166.62 107.602 167.11 107.602 167.75V170C107.602 170.64 107.767 171.13 108.097 171.47C108.427 171.81 108.877 171.98 109.447 171.98ZM118.471 173.15C118.091 173.15 117.786 173.04 117.556 172.82C117.336 172.6 117.226 172.305 117.226 171.935C117.226 171.545 117.336 171.235 117.556 171.005C117.786 170.775 118.091 170.66 118.471 170.66C118.851 170.66 119.151 170.775 119.371 171.005C119.601 171.235 119.716 171.545 119.716 171.935C119.716 172.305 119.601 172.6 119.371 172.82C119.151 173.04 118.851 173.15 118.471 173.15ZM128.365 173C127.655 173 127.1 172.81 126.7 172.43C126.31 172.05 126.115 171.515 126.115 170.825V165.98H123.79V164.75H126.115V162.425H127.465V164.75H130.765V165.98H127.465V170.825C127.465 171.455 127.765 171.77 128.365 171.77H130.615V173H128.365ZM136.204 173.12C135.644 173.12 135.154 173.035 134.734 172.865C134.324 172.685 133.994 172.435 133.744 172.115C133.504 171.795 133.359 171.415 133.309 170.975H134.659C134.719 171.265 134.879 171.495 135.139 171.665C135.409 171.835 135.764 171.92 136.204 171.92H136.834C137.364 171.92 137.759 171.815 138.019 171.605C138.279 171.385 138.409 171.095 138.409 170.735C138.409 170.385 138.289 170.11 138.049 169.91C137.819 169.7 137.474 169.56 137.014 169.49L135.904 169.31C135.094 169.17 134.489 168.92 134.089 168.56C133.699 168.19 133.504 167.655 133.504 166.955C133.504 166.215 133.739 165.645 134.209 165.245C134.679 164.835 135.384 164.63 136.324 164.63H136.894C137.684 164.63 138.319 164.815 138.799 165.185C139.279 165.555 139.569 166.055 139.669 166.685H138.319C138.259 166.425 138.109 166.22 137.869 166.07C137.629 165.91 137.304 165.83 136.894 165.83H136.324C135.814 165.83 135.439 165.925 135.199 166.115C134.969 166.305 134.854 166.59 134.854 166.97C134.854 167.31 134.954 167.56 135.154 167.72C135.354 167.88 135.669 167.995 136.099 168.065L137.209 168.245C138.099 168.385 138.744 168.645 139.144 169.025C139.554 169.405 139.759 169.955 139.759 170.675C139.759 171.435 139.514 172.035 139.024 172.475C138.544 172.905 137.814 173.12 136.834 173.12H136.204Z" fill="#89B4FA"/>
<path d="M9 86.5H323" stroke="#484848" stroke-linecap="round"/>
<path d="M167 65C167 64.4477 166.552 64 166 64C165.448 64 165 64.4477 165 65L167 65ZM165.293 108.707C165.683 109.098 166.317 109.098 166.707 108.707L173.071 102.343C173.462 101.953 173.462 101.319 173.071 100.929C172.681 100.538 172.047 100.538 171.657 100.929L166 106.586L160.343 100.929C159.953 100.538 159.319 100.538 158.929 100.929C158.538 101.319 158.538 101.953 158.929 102.343L165.293 108.707ZM165 65L165 108L167 108L167 65L165 65Z" fill="white"/>
<path d="M35.4375 138.625C35.4375 140.178 36.6967 141.438 38.25 141.438C39.8033 141.438 41.0625 140.178 41.0625 138.625V132.062M50.4375 134.406C50.4375 133.112 49.4301 132.062 48.1875 132.062H47.0625C45.8199 132.062 44.8125 133.112 44.8125 134.406C44.8125 135.701 45.8199 136.75 47.0625 136.75H48.1875C49.4301 136.75 50.4375 137.799 50.4375 139.094C50.4375 140.388 49.4301 141.438 48.1875 141.438H47.0625C45.8199 141.438 44.8125 140.388 44.8125 139.094" stroke="#F9E2AF" stroke-linecap="round" stroke-linejoin="round"/>
<path d="M34.5 120.812H49.5C52.0969 120.812 54.1875 122.903 54.1875 125.5V140.5C54.1875 143.097 52.0969 145.188 49.5 145.188H34.5C31.9031 145.188 29.8125 143.097 29.8125 140.5V125.5C29.8125 122.903 31.9031 120.812 34.5 120.812Z" stroke="#F9E2AF" stroke-linecap="round" stroke-linejoin="round"/>
<g clip-path="url(#clip1_68_38)">
<path d="M50.4375 158.438H52.3125C53.3071 158.438 54.2609 158.833 54.9641 159.536C55.6674 160.239 56.0625 161.193 56.0625 162.188V175.312C56.0625 176.307 55.6674 177.261 54.9641 177.964C54.2609 178.667 53.3071 179.062 52.3125 179.062H39.1875C38.1929 179.062 37.2391 178.667 36.5358 177.964C35.8326 177.261 35.4375 176.307 35.4375 175.312V168.75" stroke="#89B4FA" stroke-linecap="round" stroke-linejoin="round"/>
<path d="M52.3125 166.875C51.6937 166.256 50.7563 165.938 49.5 165.938C47.625 165.938 46.6875 166.875 46.6875 167.812C46.6875 168.75 47.625 169.688 49.5 169.688C51.375 169.688 52.3125 170.625 52.3125 171.562C52.3125 172.5 51.375 173.438 49.5 173.438C48.2437 173.438 47.3063 173.119 46.6875 172.5M42 165.938V173.438M39.1875 165.938H44.8125" stroke="#89B4FA" stroke-linecap="round" stroke-linejoin="round"/>
<path d="M30.825 164.775L27.9375 155.662C27.8437 155.381 28.05 155.081 28.3687 154.969L41.1375 150.975C41.325 150.9 41.5312 150.937 41.7 151.05L46.6312 154.5C46.8187 154.631 46.875 154.856 46.8187 155.062L44.7 160.725C44.6641 160.815 44.6084 160.895 44.5369 160.96C44.4655 161.025 44.3802 161.073 44.2875 161.1L31.5375 165.094C31.3957 165.15 31.2376 165.147 31.0973 165.088C30.957 165.028 30.8457 164.916 30.7875 164.775H30.825ZM40.4437 158.719C41.0281 158.873 41.6497 158.789 42.1718 158.484C42.694 158.18 43.074 157.681 43.2281 157.097C43.3823 156.513 43.298 155.891 42.9938 155.369C42.6897 154.847 42.1906 154.467 41.6062 154.312C41.3169 154.236 41.0154 154.218 40.7189 154.258C40.4224 154.298 40.1367 154.396 39.8782 154.547C39.356 154.851 38.976 155.35 38.8219 155.934C38.6677 156.519 38.752 157.14 39.0561 157.662C39.3603 158.185 39.8594 158.565 40.4437 158.719Z" stroke="#74C7EC" stroke-linecap="round" stroke-linejoin="round"/>
</g>
<path d="M49.5 198.062H36.3375M44.8125 184.938L56.0625 196.188M47.1 187.281L31.1813 203.181C30.7454 203.617 30.3997 204.134 30.1638 204.704C29.928 205.273 29.8066 205.884 29.8066 206.5C29.8066 207.116 29.928 207.727 30.1638 208.296C30.3997 208.866 30.7454 209.383 31.1813 209.819C31.6171 210.255 32.1345 210.6 32.7039 210.836C33.2733 211.072 33.8837 211.193 34.5 211.193C35.1163 211.193 35.7267 211.072 36.2961 210.836C36.8655 210.6 37.3829 210.255 37.8188 209.819L53.7188 193.9M56.0625 206.5C55.4438 205.881 54.5063 205.562 53.25 205.562C51.375 205.562 50.4375 206.5 50.4375 207.438C50.4375 208.375 51.375 209.312 53.25 209.312C55.125 209.312 56.0625 210.25 56.0625 211.188C56.0625 212.125 55.125 213.062 53.25 213.062C51.9938 213.062 51.0563 212.744 50.4375 212.125M46.6875 205.562V211.188C46.6875 211.685 46.49 212.162 46.1383 212.513C45.7867 212.865 45.3098 213.062 44.8125 213.062C44.3152 213.062 43.8383 212.865 43.4867 212.513C43.135 212.162 42.9375 211.685 42.9375 211.188" stroke="#F9E2AF" stroke-linecap="round" stroke-linejoin="round"/>
</g>
<defs>
<clipPath id="clip0_68_38">
<rect width="331" height="231" fill="white"/>
</clipPath>
<clipPath id="clip1_68_38">
<rect width="30" height="30" fill="white" transform="translate(27 150)"/>
</clipPath>
</defs>
</svg>
