<svg width="331" height="231" viewBox="0 0 331 231" fill="none" xmlns="http://www.w3.org/2000/svg">
<rect width="331" height="231" fill="#252525"/>
<path d="M54.9688 38.2812V55.1562C54.9688 56.6481 54.3761 58.0788 53.3212 59.1337C52.2663 60.1886 50.8356 60.7812 49.3438 60.7812H29.6562C28.1644 60.7812 26.7337 60.1886 25.6788 59.1337C24.6239 58.0788 24.0312 56.6481 24.0312 55.1562V29.8438C24.0312 26.75 26.5625 24.2188 29.6562 24.2188H40.9344M54.9688 38.2812L40.9062 24.2188V35.4688C40.9062 36.2147 41.2026 36.93 41.73 37.4575C42.2575 37.9849 42.9728 38.2812 43.7188 38.2812H54.9688Z" stroke="#CDD6F4" stroke-linecap="round" stroke-linejoin="round"/>
<path d="M22.2188 115.219H58.7812L54.5625 147.562L40.5 153.188L26.4375 147.562L22.2188 115.219Z" stroke="#FAB387" stroke-linecap="round" stroke-linejoin="round"/>
<path d="M48.9375 123.656H32.0625L32.7656 132.094H48.2344L47.5312 140.531L40.5 143.344L33.4688 140.531L33.2438 137.719" stroke="#CDD6F4" stroke-linecap="round" stroke-linejoin="round"/>
<path d="M70.7 51V49.36H74.6V41.64H71.2V40H76.4V49.36H80.1V51H70.7ZM75.3 38.02C74.86 38.02 74.5133 37.9067 74.26 37.68C74.0067 37.4533 73.88 37.1467 73.88 36.76C73.88 36.36 74.0067 36.0467 74.26 35.82C74.5133 35.58 74.86 35.46 75.3 35.46C75.74 35.46 76.0867 35.58 76.34 35.82C76.5933 36.0467 76.72 36.36 76.72 36.76C76.72 37.1467 76.5933 37.4533 76.34 37.68C76.0867 37.9067 75.74 38.02 75.3 38.02ZM82.8322 51V40H84.6322V42.1H85.0122L84.6322 42.52C84.6322 41.6533 84.8922 40.9867 85.4122 40.52C85.9322 40.04 86.6522 39.8 87.5722 39.8C88.6789 39.8 89.5589 40.14 90.2122 40.82C90.8655 41.5 91.1922 42.4267 91.1922 43.6V51H89.3922V43.8C89.3922 43.0133 89.1789 42.4133 88.7522 42C88.3389 41.5733 87.7722 41.36 87.0522 41.36C86.3055 41.36 85.7122 41.5867 85.2722 42.04C84.8455 42.4933 84.6322 43.1467 84.6322 44V51H82.8322ZM98.3444 51.2C97.251 51.2 96.3644 50.8333 95.6844 50.1C95.0177 49.3667 94.6844 48.3733 94.6844 47.12V43.9C94.6844 42.6333 95.0177 41.6333 95.6844 40.9C96.351 40.1667 97.2377 39.8 98.3444 39.8C99.251 39.8 99.9777 40.0467 100.524 40.54C101.071 41.0333 101.344 41.6933 101.344 42.52L100.984 42.1H101.384L101.344 39.6V36.4H103.144V51H101.344V48.9H100.984L101.344 48.48C101.344 49.32 101.071 49.9867 100.524 50.48C99.9777 50.96 99.251 51.2 98.3444 51.2ZM98.9444 49.64C99.691 49.64 100.278 49.4067 100.704 48.94C101.131 48.4733 101.344 47.8267 101.344 47V44C101.344 43.1733 101.131 42.5267 100.704 42.06C100.278 41.5933 99.691 41.36 98.9444 41.36C98.1844 41.36 97.5844 41.5867 97.1444 42.04C96.7044 42.4933 96.4844 43.1467 96.4844 44V47C96.4844 47.8533 96.7044 48.5067 97.1444 48.96C97.5844 49.4133 98.1844 49.64 98.9444 49.64ZM110.977 51.2C110.11 51.2 109.35 51.0267 108.697 50.68C108.057 50.3333 107.557 49.8467 107.197 49.22C106.85 48.58 106.677 47.84 106.677 47V44C106.677 43.1467 106.85 42.4067 107.197 41.78C107.557 41.1533 108.057 40.6667 108.697 40.32C109.35 39.9733 110.11 39.8 110.977 39.8C111.843 39.8 112.597 39.9733 113.237 40.32C113.89 40.6667 114.39 41.1533 114.737 41.78C115.097 42.4067 115.277 43.1467 115.277 44V45.94H108.437V47C108.437 47.8667 108.657 48.5333 109.097 49C109.537 49.4533 110.163 49.68 110.977 49.68C111.67 49.68 112.23 49.56 112.657 49.32C113.083 49.0667 113.343 48.6933 113.437 48.2H115.237C115.117 49.12 114.663 49.8533 113.877 50.4C113.103 50.9333 112.137 51.2 110.977 51.2ZM113.517 44.74V44C113.517 43.1333 113.297 42.4667 112.857 42C112.43 41.5333 111.803 41.3 110.977 41.3C110.163 41.3 109.537 41.5333 109.097 42C108.657 42.4667 108.437 43.1333 108.437 44V44.58H113.657L113.517 44.74ZM117.969 51L121.869 45.34L118.209 40H120.329L122.509 43.4C122.602 43.5467 122.689 43.7067 122.769 43.88C122.862 44.0533 122.935 44.1933 122.989 44.3C123.029 44.1933 123.089 44.0533 123.169 43.88C123.262 43.7067 123.355 43.5467 123.449 43.4L125.649 40H127.749L124.089 45.36L127.969 51H125.849L123.489 47.4C123.395 47.2533 123.302 47.0867 123.209 46.9C123.129 46.7 123.055 46.54 122.989 46.42C122.935 46.54 122.855 46.7 122.749 46.9C122.655 47.0867 122.555 47.2533 122.449 47.4L120.069 51H117.969ZM134.961 51.2C134.454 51.2 134.048 51.0533 133.741 50.76C133.448 50.4667 133.301 50.0733 133.301 49.58C133.301 49.06 133.448 48.6467 133.741 48.34C134.048 48.0333 134.454 47.88 134.961 47.88C135.468 47.88 135.868 48.0333 136.161 48.34C136.468 48.6467 136.621 49.06 136.621 49.58C136.621 50.0733 136.468 50.4667 136.161 50.76C135.868 51.0533 135.468 51.2 134.961 51.2ZM142.793 51V36.4H144.593V40V42.1H144.973L144.593 42.52C144.593 41.6533 144.853 40.9867 145.373 40.52C145.893 40.04 146.613 39.8 147.533 39.8C148.64 39.8 149.52 40.14 150.173 40.82C150.826 41.5 151.153 42.4267 151.153 43.6V51H149.353V43.8C149.353 43.0133 149.14 42.4067 148.713 41.98C148.3 41.54 147.733 41.32 147.013 41.32C146.266 41.32 145.673 41.5533 145.233 42.02C144.806 42.4867 144.593 43.1467 144.593 44V51H142.793ZM160.145 51C159.199 51 158.459 50.7467 157.925 50.24C157.405 49.7333 157.145 49.02 157.145 48.1V41.64H154.045V40H157.145V36.9H158.945V40H163.345V41.64H158.945V48.1C158.945 48.94 159.345 49.36 160.145 49.36H163.145V51H160.145ZM166.257 51V40H167.838V41.32H168.198L167.918 41.8C167.918 41.1867 168.078 40.7 168.398 40.34C168.731 39.98 169.178 39.8 169.738 39.8C170.351 39.8 170.824 40.0267 171.158 40.48C171.491 40.9333 171.658 41.5733 171.658 42.4L171.118 41.32H171.958L171.578 41.8C171.578 41.1867 171.744 40.7 172.078 40.34C172.424 39.98 172.878 39.8 173.438 39.8C174.131 39.8 174.664 40.06 175.037 40.58C175.424 41.1 175.618 41.7867 175.618 42.64V51H173.958V42.62C173.958 42.1667 173.858 41.8133 173.658 41.56C173.471 41.3067 173.191 41.18 172.818 41.18C172.458 41.18 172.171 41.3067 171.958 41.56C171.758 41.8 171.658 42.1467 171.658 42.6V51H170.217V42.62C170.217 42.1533 170.111 41.8 169.898 41.56C169.698 41.3067 169.411 41.18 169.038 41.18C168.664 41.18 168.384 41.3067 168.198 41.56C168.011 41.8 167.918 42.1467 167.918 42.6V51H166.257ZM184.43 51C183.79 51 183.23 50.8733 182.75 50.62C182.27 50.3667 181.896 50.0067 181.63 49.54C181.363 49.0733 181.23 48.5267 181.23 47.9V38.04H177.53V36.4H183.03V47.9C183.03 48.3533 183.156 48.7133 183.41 48.98C183.663 49.2333 184.003 49.36 184.43 49.36H187.93V51H184.43Z" fill="#FFD0B4"/>
<path d="M194.042 49.1V45.2H190.222V43.6H194.042V39.7H195.802V43.6H199.622V45.2H195.802V49.1H194.042Z" fill="white"/>
<path d="M206.574 51.16C205.827 51.16 205.174 51.0467 204.614 50.82C204.067 50.58 203.627 50.2467 203.294 49.82C202.974 49.3933 202.781 48.8867 202.714 48.3H204.514C204.594 48.6867 204.807 48.9933 205.154 49.22C205.514 49.4467 205.987 49.56 206.574 49.56H207.414C208.121 49.56 208.647 49.42 208.994 49.14C209.341 48.8467 209.514 48.46 209.514 47.98C209.514 47.5133 209.354 47.1467 209.034 46.88C208.727 46.6 208.267 46.4133 207.654 46.32L206.174 46.08C205.094 45.8933 204.287 45.56 203.754 45.08C203.234 44.5867 202.974 43.8733 202.974 42.94C202.974 41.9533 203.287 41.1933 203.914 40.66C204.541 40.1133 205.481 39.84 206.734 39.84H207.494C208.547 39.84 209.394 40.0867 210.034 40.58C210.674 41.0733 211.061 41.74 211.194 42.58H209.394C209.314 42.2333 209.114 41.96 208.794 41.76C208.474 41.5467 208.041 41.44 207.494 41.44H206.734C206.054 41.44 205.554 41.5667 205.234 41.82C204.927 42.0733 204.774 42.4533 204.774 42.96C204.774 43.4133 204.907 43.7467 205.174 43.96C205.441 44.1733 205.861 44.3267 206.434 44.42L207.914 44.66C209.101 44.8467 209.961 45.1933 210.494 45.7C211.041 46.2067 211.314 46.94 211.314 47.9C211.314 48.9133 210.987 49.7133 210.334 50.3C209.694 50.8733 208.721 51.16 207.414 51.16H206.574ZM220.106 51C219.16 51 218.42 50.7467 217.886 50.24C217.366 49.7333 217.106 49.02 217.106 48.1V41.64H214.006V40H217.106V36.9H218.906V40H223.306V41.64H218.906V48.1C218.906 48.94 219.306 49.36 220.106 49.36H223.106V51H220.106ZM228.458 54.6L230.078 50.32L225.998 40H227.998L230.558 46.8C230.652 47.0267 230.738 47.3 230.818 47.62C230.898 47.9267 230.965 48.1867 231.018 48.4C231.072 48.1867 231.138 47.9267 231.218 47.62C231.298 47.3 231.378 47.0267 231.458 46.8L233.858 40H235.798L230.378 54.6H228.458ZM244.391 51C243.751 51 243.191 50.8733 242.711 50.62C242.231 50.3667 241.857 50.0067 241.591 49.54C241.324 49.0733 241.191 48.5267 241.191 47.9V38.04H237.491V36.4H242.991V47.9C242.991 48.3533 243.117 48.7133 243.371 48.98C243.624 49.2333 243.964 49.36 244.391 49.36H247.891V51H244.391ZM254.883 51.2C254.016 51.2 253.256 51.0267 252.603 50.68C251.963 50.3333 251.463 49.8467 251.103 49.22C250.756 48.58 250.583 47.84 250.583 47V44C250.583 43.1467 250.756 42.4067 251.103 41.78C251.463 41.1533 251.963 40.6667 252.603 40.32C253.256 39.9733 254.016 39.8 254.883 39.8C255.749 39.8 256.503 39.9733 257.143 40.32C257.796 40.6667 258.296 41.1533 258.643 41.78C259.003 42.4067 259.183 43.1467 259.183 44V45.94H252.343V47C252.343 47.8667 252.563 48.5333 253.003 49C253.443 49.4533 254.069 49.68 254.883 49.68C255.576 49.68 256.136 49.56 256.563 49.32C256.989 49.0667 257.249 48.6933 257.343 48.2H259.143C259.023 49.12 258.569 49.8533 257.783 50.4C257.009 50.9333 256.043 51.2 254.883 51.2ZM257.423 44.74V44C257.423 43.1333 257.203 42.4667 256.763 42C256.336 41.5333 255.709 41.3 254.883 41.3C254.069 41.3 253.443 41.5333 253.003 42C252.563 42.4667 252.343 43.1333 252.343 44V44.58H257.563L257.423 44.74ZM266.535 51.16C265.788 51.16 265.135 51.0467 264.575 50.82C264.028 50.58 263.588 50.2467 263.255 49.82C262.935 49.3933 262.742 48.8867 262.675 48.3H264.475C264.555 48.6867 264.768 48.9933 265.115 49.22C265.475 49.4467 265.948 49.56 266.535 49.56H267.375C268.082 49.56 268.608 49.42 268.955 49.14C269.302 48.8467 269.475 48.46 269.475 47.98C269.475 47.5133 269.315 47.1467 268.995 46.88C268.688 46.6 268.228 46.4133 267.615 46.32L266.135 46.08C265.055 45.8933 264.248 45.56 263.715 45.08C263.195 44.5867 262.935 43.8733 262.935 42.94C262.935 41.9533 263.248 41.1933 263.875 40.66C264.502 40.1133 265.442 39.84 266.695 39.84H267.455C268.508 39.84 269.355 40.0867 269.995 40.58C270.635 41.0733 271.022 41.74 271.155 42.58H269.355C269.275 42.2333 269.075 41.96 268.755 41.76C268.435 41.5467 268.002 41.44 267.455 41.44H266.695C266.015 41.44 265.515 41.5667 265.195 41.82C264.888 42.0733 264.735 42.4533 264.735 42.96C264.735 43.4133 264.868 43.7467 265.135 43.96C265.402 44.1733 265.822 44.3267 266.395 44.42L267.875 44.66C269.062 44.8467 269.922 45.1933 270.455 45.7C271.002 46.2067 271.275 46.94 271.275 47.9C271.275 48.9133 270.948 49.7133 270.295 50.3C269.655 50.8733 268.682 51.16 267.375 51.16H266.535ZM278.867 51.2C278.361 51.2 277.954 51.0533 277.647 50.76C277.354 50.4667 277.207 50.0733 277.207 49.58C277.207 49.06 277.354 48.6467 277.647 48.34C277.954 48.0333 278.361 47.88 278.867 47.88C279.374 47.88 279.774 48.0333 280.067 48.34C280.374 48.6467 280.527 49.06 280.527 49.58C280.527 50.0733 280.374 50.4667 280.067 50.76C279.774 51.0533 279.374 51.2 278.867 51.2ZM290.939 51.2C290.059 51.2 289.286 51.0333 288.619 50.7C287.966 50.3667 287.459 49.8867 287.099 49.26C286.739 48.62 286.559 47.8667 286.559 47V44C286.559 43.12 286.739 42.3667 287.099 41.74C287.459 41.1133 287.966 40.6333 288.619 40.3C289.286 39.9667 290.059 39.8 290.939 39.8C292.206 39.8 293.226 40.14 293.999 40.82C294.773 41.5 295.179 42.4267 295.219 43.6H293.419C293.379 42.8933 293.139 42.3533 292.699 41.98C292.273 41.5933 291.686 41.4 290.939 41.4C290.153 41.4 289.526 41.6267 289.059 42.08C288.593 42.52 288.359 43.1533 288.359 43.98V47C288.359 47.8267 288.593 48.4667 289.059 48.92C289.526 49.3733 290.153 49.6 290.939 49.6C291.686 49.6 292.273 49.4067 292.699 49.02C293.139 48.6333 293.379 48.0933 293.419 47.4H295.219C295.179 48.5733 294.773 49.5 293.999 50.18C293.226 50.86 292.206 51.2 290.939 51.2ZM302.512 51.16C301.765 51.16 301.112 51.0467 300.552 50.82C300.005 50.58 299.565 50.2467 299.232 49.82C298.912 49.3933 298.718 48.8867 298.652 48.3H300.452C300.532 48.6867 300.745 48.9933 301.092 49.22C301.452 49.4467 301.925 49.56 302.512 49.56H303.352C304.058 49.56 304.585 49.42 304.932 49.14C305.278 48.8467 305.452 48.46 305.452 47.98C305.452 47.5133 305.292 47.1467 304.972 46.88C304.665 46.6 304.205 46.4133 303.592 46.32L302.112 46.08C301.032 45.8933 300.225 45.56 299.692 45.08C299.172 44.5867 298.912 43.8733 298.912 42.94C298.912 41.9533 299.225 41.1933 299.852 40.66C300.478 40.1133 301.418 39.84 302.672 39.84H303.432C304.485 39.84 305.332 40.0867 305.972 40.58C306.612 41.0733 306.998 41.74 307.132 42.58H305.332C305.252 42.2333 305.052 41.96 304.732 41.76C304.412 41.5467 303.978 41.44 303.432 41.44H302.672C301.992 41.44 301.492 41.5667 301.172 41.82C300.865 42.0733 300.712 42.4533 300.712 42.96C300.712 43.4133 300.845 43.7467 301.112 43.96C301.378 44.1733 301.798 44.3267 302.372 44.42L303.852 44.66C305.038 44.8467 305.898 45.1933 306.432 45.7C306.978 46.2067 307.252 46.94 307.252 47.9C307.252 48.9133 306.925 49.7133 306.272 50.3C305.632 50.8733 304.658 51.16 303.352 51.16H302.512ZM314.504 51.16C313.757 51.16 313.104 51.0467 312.544 50.82C311.997 50.58 311.557 50.2467 311.224 49.82C310.904 49.3933 310.71 48.8867 310.644 48.3H312.444C312.524 48.6867 312.737 48.9933 313.084 49.22C313.444 49.4467 313.917 49.56 314.504 49.56H315.344C316.05 49.56 316.577 49.42 316.924 49.14C317.27 48.8467 317.444 48.46 317.444 47.98C317.444 47.5133 317.284 47.1467 316.964 46.88C316.657 46.6 316.197 46.4133 315.584 46.32L314.104 46.08C313.024 45.8933 312.217 45.56 311.684 45.08C311.164 44.5867 310.904 43.8733 310.904 42.94C310.904 41.9533 311.217 41.1933 311.844 40.66C312.47 40.1133 313.41 39.84 314.664 39.84H315.424C316.477 39.84 317.324 40.0867 317.964 40.58C318.604 41.0733 318.99 41.74 319.124 42.58H317.324C317.244 42.2333 317.044 41.96 316.724 41.76C316.404 41.5467 315.97 41.44 315.424 41.44H314.664C313.984 41.44 313.484 41.5667 313.164 41.82C312.857 42.0733 312.704 42.4533 312.704 42.96C312.704 43.4133 312.837 43.7467 313.104 43.96C313.37 44.1733 313.79 44.3267 314.364 44.42L315.844 44.66C317.03 44.8467 317.89 45.1933 318.424 45.7C318.97 46.2067 319.244 46.94 319.244 47.9C319.244 48.9133 318.917 49.7133 318.264 50.3C317.624 50.8733 316.65 51.16 315.344 51.16H314.504Z" fill="#CDD6F4"/>
<path d="M70.7 139V137.36H74.6V129.64H71.2V128H76.4V137.36H80.1V139H70.7ZM75.3 126.02C74.86 126.02 74.5133 125.907 74.26 125.68C74.0067 125.453 73.88 125.147 73.88 124.76C73.88 124.36 74.0067 124.047 74.26 123.82C74.5133 123.58 74.86 123.46 75.3 123.46C75.74 123.46 76.0867 123.58 76.34 123.82C76.5933 124.047 76.72 124.36 76.72 124.76C76.72 125.147 76.5933 125.453 76.34 125.68C76.0867 125.907 75.74 126.02 75.3 126.02ZM82.8322 139V128H84.6322V130.1H85.0122L84.6322 130.52C84.6322 129.653 84.8922 128.987 85.4122 128.52C85.9322 128.04 86.6522 127.8 87.5722 127.8C88.6789 127.8 89.5589 128.14 90.2122 128.82C90.8655 129.5 91.1922 130.427 91.1922 131.6V139H89.3922V131.8C89.3922 131.013 89.1789 130.413 88.7522 130C88.3389 129.573 87.7722 129.36 87.0522 129.36C86.3055 129.36 85.7122 129.587 85.2722 130.04C84.8455 130.493 84.6322 131.147 84.6322 132V139H82.8322ZM98.3444 139.2C97.251 139.2 96.3644 138.833 95.6844 138.1C95.0177 137.367 94.6844 136.373 94.6844 135.12V131.9C94.6844 130.633 95.0177 129.633 95.6844 128.9C96.351 128.167 97.2377 127.8 98.3444 127.8C99.251 127.8 99.9777 128.047 100.524 128.54C101.071 129.033 101.344 129.693 101.344 130.52L100.984 130.1H101.384L101.344 127.6V124.4H103.144V139H101.344V136.9H100.984L101.344 136.48C101.344 137.32 101.071 137.987 100.524 138.48C99.9777 138.96 99.251 139.2 98.3444 139.2ZM98.9444 137.64C99.691 137.64 100.278 137.407 100.704 136.94C101.131 136.473 101.344 135.827 101.344 135V132C101.344 131.173 101.131 130.527 100.704 130.06C100.278 129.593 99.691 129.36 98.9444 129.36C98.1844 129.36 97.5844 129.587 97.1444 130.04C96.7044 130.493 96.4844 131.147 96.4844 132V135C96.4844 135.853 96.7044 136.507 97.1444 136.96C97.5844 137.413 98.1844 137.64 98.9444 137.64ZM110.977 139.2C110.11 139.2 109.35 139.027 108.697 138.68C108.057 138.333 107.557 137.847 107.197 137.22C106.85 136.58 106.677 135.84 106.677 135V132C106.677 131.147 106.85 130.407 107.197 129.78C107.557 129.153 108.057 128.667 108.697 128.32C109.35 127.973 110.11 127.8 110.977 127.8C111.843 127.8 112.597 127.973 113.237 128.32C113.89 128.667 114.39 129.153 114.737 129.78C115.097 130.407 115.277 131.147 115.277 132V133.94H108.437V135C108.437 135.867 108.657 136.533 109.097 137C109.537 137.453 110.163 137.68 110.977 137.68C111.67 137.68 112.23 137.56 112.657 137.32C113.083 137.067 113.343 136.693 113.437 136.2H115.237C115.117 137.12 114.663 137.853 113.877 138.4C113.103 138.933 112.137 139.2 110.977 139.2ZM113.517 132.74V132C113.517 131.133 113.297 130.467 112.857 130C112.43 129.533 111.803 129.3 110.977 129.3C110.163 129.3 109.537 129.533 109.097 130C108.657 130.467 108.437 131.133 108.437 132V132.58H113.657L113.517 132.74ZM117.969 139L121.869 133.34L118.209 128H120.329L122.509 131.4C122.602 131.547 122.689 131.707 122.769 131.88C122.862 132.053 122.935 132.193 122.989 132.3C123.029 132.193 123.089 132.053 123.169 131.88C123.262 131.707 123.355 131.547 123.449 131.4L125.649 128H127.749L124.089 133.36L127.969 139H125.849L123.489 135.4C123.395 135.253 123.302 135.087 123.209 134.9C123.129 134.7 123.055 134.54 122.989 134.42C122.935 134.54 122.855 134.7 122.749 134.9C122.655 135.087 122.555 135.253 122.449 135.4L120.069 139H117.969ZM134.961 139.2C134.454 139.2 134.048 139.053 133.741 138.76C133.448 138.467 133.301 138.073 133.301 137.58C133.301 137.06 133.448 136.647 133.741 136.34C134.048 136.033 134.454 135.88 134.961 135.88C135.468 135.88 135.868 136.033 136.161 136.34C136.468 136.647 136.621 137.06 136.621 137.58C136.621 138.073 136.468 138.467 136.161 138.76C135.868 139.053 135.468 139.2 134.961 139.2ZM142.793 139V124.4H144.593V128V130.1H144.973L144.593 130.52C144.593 129.653 144.853 128.987 145.373 128.52C145.893 128.04 146.613 127.8 147.533 127.8C148.64 127.8 149.52 128.14 150.173 128.82C150.826 129.5 151.153 130.427 151.153 131.6V139H149.353V131.8C149.353 131.013 149.14 130.407 148.713 129.98C148.3 129.54 147.733 129.32 147.013 129.32C146.266 129.32 145.673 129.553 145.233 130.02C144.806 130.487 144.593 131.147 144.593 132V139H142.793ZM160.145 139C159.199 139 158.459 138.747 157.925 138.24C157.405 137.733 157.145 137.02 157.145 136.1V129.64H154.045V128H157.145V124.9H158.945V128H163.345V129.64H158.945V136.1C158.945 136.94 159.345 137.36 160.145 137.36H163.145V139H160.145ZM166.257 139V128H167.838V129.32H168.198L167.918 129.8C167.918 129.187 168.078 128.7 168.398 128.34C168.731 127.98 169.178 127.8 169.738 127.8C170.351 127.8 170.824 128.027 171.158 128.48C171.491 128.933 171.658 129.573 171.658 130.4L171.118 129.32H171.958L171.578 129.8C171.578 129.187 171.744 128.7 172.078 128.34C172.424 127.98 172.878 127.8 173.438 127.8C174.131 127.8 174.664 128.06 175.037 128.58C175.424 129.1 175.618 129.787 175.618 130.64V139H173.958V130.62C173.958 130.167 173.858 129.813 173.658 129.56C173.471 129.307 173.191 129.18 172.818 129.18C172.458 129.18 172.171 129.307 171.958 129.56C171.758 129.8 171.658 130.147 171.658 130.6V139H170.217V130.62C170.217 130.153 170.111 129.8 169.898 129.56C169.698 129.307 169.411 129.18 169.038 129.18C168.664 129.18 168.384 129.307 168.198 129.56C168.011 129.8 167.918 130.147 167.918 130.6V139H166.257ZM184.43 139C183.79 139 183.23 138.873 182.75 138.62C182.27 138.367 181.896 138.007 181.63 137.54C181.363 137.073 181.23 136.527 181.23 135.9V126.04H177.53V124.4H183.03V135.9C183.03 136.353 183.156 136.713 183.41 136.98C183.663 137.233 184.003 137.36 184.43 137.36H187.93V139H184.43Z" fill="#FFD0B4"/>
<path d="M74.66 185.16C73.9133 185.16 73.26 185.047 72.7 184.82C72.1533 184.58 71.7133 184.247 71.38 183.82C71.06 183.393 70.8667 182.887 70.8 182.3H72.6C72.68 182.687 72.8933 182.993 73.24 183.22C73.6 183.447 74.0733 183.56 74.66 183.56H75.5C76.2067 183.56 76.7333 183.42 77.08 183.14C77.4267 182.847 77.6 182.46 77.6 181.98C77.6 181.513 77.44 181.147 77.12 180.88C76.8133 180.6 76.3533 180.413 75.74 180.32L74.26 180.08C73.18 179.893 72.3733 179.56 71.84 179.08C71.32 178.587 71.06 177.873 71.06 176.94C71.06 175.953 71.3733 175.193 72 174.66C72.6267 174.113 73.5667 173.84 74.82 173.84H75.58C76.6333 173.84 77.48 174.087 78.12 174.58C78.76 175.073 79.1467 175.74 79.28 176.58H77.48C77.4 176.233 77.2 175.96 76.88 175.76C76.56 175.547 76.1267 175.44 75.58 175.44H74.82C74.14 175.44 73.64 175.567 73.32 175.82C73.0133 176.073 72.86 176.453 72.86 176.96C72.86 177.413 72.9933 177.747 73.26 177.96C73.5267 178.173 73.9467 178.327 74.52 178.42L76 178.66C77.1867 178.847 78.0467 179.193 78.58 179.7C79.1267 180.207 79.4 180.94 79.4 181.9C79.4 182.913 79.0733 183.713 78.42 184.3C77.78 184.873 76.8067 185.16 75.5 185.16H74.66ZM88.1922 185C87.2455 185 86.5055 184.747 85.9722 184.24C85.4522 183.733 85.1922 183.02 85.1922 182.1V175.64H82.0922V174H85.1922V170.9H86.9922V174H91.3922V175.64H86.9922V182.1C86.9922 182.94 87.3922 183.36 88.1922 183.36H91.1922V185H88.1922ZM96.5444 188.6L98.1644 184.32L94.0844 174H96.0844L98.6444 180.8C98.7377 181.027 98.8244 181.3 98.9044 181.62C98.9844 181.927 99.051 182.187 99.1044 182.4C99.1577 182.187 99.2244 181.927 99.3044 181.62C99.3844 181.3 99.4644 181.027 99.5444 180.8L101.944 174H103.884L98.4644 188.6H96.5444ZM112.477 185C111.837 185 111.277 184.873 110.797 184.62C110.317 184.367 109.943 184.007 109.677 183.54C109.41 183.073 109.277 182.527 109.277 181.9V172.04H105.577V170.4H111.077V181.9C111.077 182.353 111.203 182.713 111.457 182.98C111.71 183.233 112.05 183.36 112.477 183.36H115.977V185H112.477ZM122.969 185.2C122.102 185.2 121.342 185.027 120.689 184.68C120.049 184.333 119.549 183.847 119.189 183.22C118.842 182.58 118.669 181.84 118.669 181V178C118.669 177.147 118.842 176.407 119.189 175.78C119.549 175.153 120.049 174.667 120.689 174.32C121.342 173.973 122.102 173.8 122.969 173.8C123.835 173.8 124.589 173.973 125.229 174.32C125.882 174.667 126.382 175.153 126.729 175.78C127.089 176.407 127.269 177.147 127.269 178V179.94H120.429V181C120.429 181.867 120.649 182.533 121.089 183C121.529 183.453 122.155 183.68 122.969 183.68C123.662 183.68 124.222 183.56 124.649 183.32C125.075 183.067 125.335 182.693 125.429 182.2H127.229C127.109 183.12 126.655 183.853 125.869 184.4C125.095 184.933 124.129 185.2 122.969 185.2ZM125.509 178.74V178C125.509 177.133 125.289 176.467 124.849 176C124.422 175.533 123.795 175.3 122.969 175.3C122.155 175.3 121.529 175.533 121.089 176C120.649 176.467 120.429 177.133 120.429 178V178.58H125.649L125.509 178.74ZM134.621 185.16C133.874 185.16 133.221 185.047 132.661 184.82C132.114 184.58 131.674 184.247 131.341 183.82C131.021 183.393 130.828 182.887 130.761 182.3H132.561C132.641 182.687 132.854 182.993 133.201 183.22C133.561 183.447 134.034 183.56 134.621 183.56H135.461C136.168 183.56 136.694 183.42 137.041 183.14C137.388 182.847 137.561 182.46 137.561 181.98C137.561 181.513 137.401 181.147 137.081 180.88C136.774 180.6 136.314 180.413 135.701 180.32L134.221 180.08C133.141 179.893 132.334 179.56 131.801 179.08C131.281 178.587 131.021 177.873 131.021 176.94C131.021 175.953 131.334 175.193 131.961 174.66C132.588 174.113 133.528 173.84 134.781 173.84H135.541C136.594 173.84 137.441 174.087 138.081 174.58C138.721 175.073 139.108 175.74 139.241 176.58H137.441C137.361 176.233 137.161 175.96 136.841 175.76C136.521 175.547 136.088 175.44 135.541 175.44H134.781C134.101 175.44 133.601 175.567 133.281 175.82C132.974 176.073 132.821 176.453 132.821 176.96C132.821 177.413 132.954 177.747 133.221 177.96C133.488 178.173 133.908 178.327 134.481 178.42L135.961 178.66C137.148 178.847 138.008 179.193 138.541 179.7C139.088 180.207 139.361 180.94 139.361 181.9C139.361 182.913 139.034 183.713 138.381 184.3C137.741 184.873 136.768 185.16 135.461 185.16H134.621ZM146.953 185.2C146.446 185.2 146.04 185.053 145.733 184.76C145.44 184.467 145.293 184.073 145.293 183.58C145.293 183.06 145.44 182.647 145.733 182.34C146.04 182.033 146.446 181.88 146.953 181.88C147.46 181.88 147.86 182.033 148.153 182.34C148.46 182.647 148.613 183.06 148.613 183.58C148.613 184.073 148.46 184.467 148.153 184.76C147.86 185.053 147.46 185.2 146.953 185.2ZM159.025 185.2C158.145 185.2 157.372 185.033 156.705 184.7C156.052 184.367 155.545 183.887 155.185 183.26C154.825 182.62 154.645 181.867 154.645 181V178C154.645 177.12 154.825 176.367 155.185 175.74C155.545 175.113 156.052 174.633 156.705 174.3C157.372 173.967 158.145 173.8 159.025 173.8C160.292 173.8 161.312 174.14 162.085 174.82C162.859 175.5 163.265 176.427 163.305 177.6H161.505C161.465 176.893 161.225 176.353 160.785 175.98C160.359 175.593 159.772 175.4 159.025 175.4C158.239 175.4 157.612 175.627 157.145 176.08C156.679 176.52 156.445 177.153 156.445 177.98V181C156.445 181.827 156.679 182.467 157.145 182.92C157.612 183.373 158.239 183.6 159.025 183.6C159.772 183.6 160.359 183.407 160.785 183.02C161.225 182.633 161.465 182.093 161.505 181.4H163.305C163.265 182.573 162.859 183.5 162.085 184.18C161.312 184.86 160.292 185.2 159.025 185.2ZM170.598 185.16C169.851 185.16 169.198 185.047 168.638 184.82C168.091 184.58 167.651 184.247 167.318 183.82C166.998 183.393 166.804 182.887 166.738 182.3H168.538C168.618 182.687 168.831 182.993 169.178 183.22C169.538 183.447 170.011 183.56 170.598 183.56H171.438C172.144 183.56 172.671 183.42 173.018 183.14C173.364 182.847 173.538 182.46 173.538 181.98C173.538 181.513 173.378 181.147 173.058 180.88C172.751 180.6 172.291 180.413 171.678 180.32L170.198 180.08C169.118 179.893 168.311 179.56 167.778 179.08C167.258 178.587 166.998 177.873 166.998 176.94C166.998 175.953 167.311 175.193 167.938 174.66C168.564 174.113 169.504 173.84 170.758 173.84H171.518C172.571 173.84 173.418 174.087 174.058 174.58C174.698 175.073 175.084 175.74 175.217 176.58H173.418C173.338 176.233 173.138 175.96 172.818 175.76C172.498 175.547 172.064 175.44 171.518 175.44H170.758C170.078 175.44 169.578 175.567 169.258 175.82C168.951 176.073 168.798 176.453 168.798 176.96C168.798 177.413 168.931 177.747 169.198 177.96C169.464 178.173 169.884 178.327 170.458 178.42L171.938 178.66C173.124 178.847 173.984 179.193 174.518 179.7C175.064 180.207 175.338 180.94 175.338 181.9C175.338 182.913 175.011 183.713 174.358 184.3C173.718 184.873 172.744 185.16 171.438 185.16H170.598ZM182.59 185.16C181.843 185.16 181.19 185.047 180.63 184.82C180.083 184.58 179.643 184.247 179.31 183.82C178.99 183.393 178.796 182.887 178.73 182.3H180.53C180.61 182.687 180.823 182.993 181.17 183.22C181.53 183.447 182.003 183.56 182.59 183.56H183.43C184.136 183.56 184.663 183.42 185.01 183.14C185.356 182.847 185.53 182.46 185.53 181.98C185.53 181.513 185.37 181.147 185.05 180.88C184.743 180.6 184.283 180.413 183.67 180.32L182.19 180.08C181.11 179.893 180.303 179.56 179.77 179.08C179.25 178.587 178.99 177.873 178.99 176.94C178.99 175.953 179.303 175.193 179.93 174.66C180.556 174.113 181.496 173.84 182.75 173.84H183.51C184.563 173.84 185.41 174.087 186.05 174.58C186.69 175.073 187.076 175.74 187.21 176.58H185.41C185.33 176.233 185.13 175.96 184.81 175.76C184.49 175.547 184.056 175.44 183.51 175.44H182.75C182.07 175.44 181.57 175.567 181.25 175.82C180.943 176.073 180.79 176.453 180.79 176.96C180.79 177.413 180.923 177.747 181.19 177.96C181.456 178.173 181.876 178.327 182.45 178.42L183.93 178.66C185.116 178.847 185.976 179.193 186.51 179.7C187.056 180.207 187.33 180.94 187.33 181.9C187.33 182.913 187.003 183.713 186.35 184.3C185.71 184.873 184.736 185.16 183.43 185.16H182.59Z" fill="#CDD6F4"/>
<path d="M9 86.5H323" stroke="#484848" stroke-linecap="round"/>
<path d="M167 65C167 64.4477 166.552 64 166 64C165.448 64 165 64.4477 165 65L167 65ZM165.293 108.707C165.683 109.098 166.317 109.098 166.707 108.707L173.071 102.343C173.462 101.953 173.462 101.319 173.071 100.929C172.681 100.538 172.047 100.538 171.657 100.929L166 106.586L160.343 100.929C159.953 100.538 159.319 100.538 158.929 100.929C158.538 101.319 158.538 101.953 158.929 102.343L165.293 108.707ZM165 65L165 108L167 108L167 65L165 65Z" fill="white"/>
<path d="M21.2188 163.219H57.7812L53.5625 195.562L39.5 201.188L25.4375 195.562L21.2188 163.219Z" stroke="#89B4FA" stroke-linecap="round" stroke-linejoin="round"/>
<path d="M31.0625 171.656H47.9375L46.5312 188.531L39.5 191.344L32.4688 188.531L32.2438 185.719M35.2812 180.094H46.5312" stroke="#CDD6F4" stroke-linecap="round" stroke-linejoin="round"/>
</svg>
