<svg width="331" height="231" viewBox="0 0 331 231" fill="none" xmlns="http://www.w3.org/2000/svg">
<g clip-path="url(#clip0_68_108)">
<rect width="331" height="231" fill="#252525"/>
<path d="M54.9688 38.2812V55.1562C54.9688 56.6481 54.3761 58.0788 53.3212 59.1337C52.2663 60.1886 50.8356 60.7812 49.3438 60.7812H29.6562C28.1644 60.7812 26.7337 60.1886 25.6788 59.1337C24.6239 58.0788 24.0312 56.6481 24.0312 55.1562V29.8438C24.0312 26.75 26.5625 24.2188 29.6562 24.2188H40.9344M54.9688 38.2812L40.9062 24.2188V35.4688C40.9062 36.2147 41.2026 36.93 41.73 37.4575C42.2575 37.9849 42.9728 38.2812 43.7188 38.2812H54.9688Z" stroke="#CDD6F4" stroke-linecap="round" stroke-linejoin="round"/>
<path d="M72.396 47.096C71.948 47.096 71.556 47.028 71.22 46.892C70.892 46.748 70.628 46.548 70.428 46.292C70.236 46.036 70.12 45.732 70.08 45.38H71.16C71.208 45.612 71.336 45.796 71.544 45.932C71.76 46.068 72.044 46.136 72.396 46.136H72.9C73.324 46.136 73.64 46.052 73.848 45.884C74.056 45.708 74.16 45.476 74.16 45.188C74.16 44.908 74.064 44.688 73.872 44.528C73.688 44.36 73.412 44.248 73.044 44.192L72.156 44.048C71.508 43.936 71.024 43.736 70.704 43.448C70.392 43.152 70.236 42.724 70.236 42.164C70.236 41.572 70.424 41.116 70.8 40.796C71.176 40.468 71.74 40.304 72.492 40.304H72.948C73.58 40.304 74.088 40.452 74.472 40.748C74.856 41.044 75.088 41.444 75.168 41.948H74.088C74.04 41.74 73.92 41.576 73.728 41.456C73.536 41.328 73.276 41.264 72.948 41.264H72.492C72.084 41.264 71.784 41.34 71.592 41.492C71.408 41.644 71.316 41.872 71.316 42.176C71.316 42.448 71.396 42.648 71.556 42.776C71.716 42.904 71.968 42.996 72.312 43.052L73.2 43.196C73.912 43.308 74.428 43.516 74.748 43.82C75.076 44.124 75.24 44.564 75.24 45.14C75.24 45.748 75.044 46.228 74.652 46.58C74.268 46.924 73.684 47.096 72.9 47.096H72.396ZM77.5273 47V40.4H78.5833V41.66H78.8353L78.4873 42.44C78.4873 41.728 78.6393 41.192 78.9433 40.832C79.2553 40.464 79.7153 40.28 80.3233 40.28C81.0193 40.28 81.5713 40.5 81.9793 40.94C82.3953 41.372 82.6033 41.96 82.6033 42.704V43.1H81.5233V42.8C81.5233 42.28 81.3953 41.884 81.1393 41.612C80.8913 41.332 80.5353 41.192 80.0713 41.192C79.6153 41.192 79.2553 41.332 78.9913 41.612C78.7353 41.892 78.6073 42.288 78.6073 42.8V47H77.5273ZM87.0386 47.12C86.5106 47.12 86.0466 47.02 85.6466 46.82C85.2546 46.62 84.9506 46.332 84.7346 45.956C84.5186 45.572 84.4106 45.12 84.4106 44.6V42.8C84.4106 42.272 84.5186 41.82 84.7346 41.444C84.9506 41.068 85.2546 40.78 85.6466 40.58C86.0466 40.38 86.5106 40.28 87.0386 40.28C87.7986 40.28 88.4106 40.484 88.8746 40.892C89.3386 41.3 89.5826 41.856 89.6066 42.56H88.5266C88.5026 42.136 88.3586 41.812 88.0946 41.588C87.8386 41.356 87.4866 41.24 87.0386 41.24C86.5666 41.24 86.1906 41.376 85.9106 41.648C85.6306 41.912 85.4906 42.292 85.4906 42.788V44.6C85.4906 45.096 85.6306 45.48 85.9106 45.752C86.1906 46.024 86.5666 46.16 87.0386 46.16C87.4866 46.16 87.8386 46.044 88.0946 45.812C88.3586 45.58 88.5026 45.256 88.5266 44.84H89.6066C89.5826 45.544 89.3386 46.1 88.8746 46.508C88.4106 46.916 87.7986 47.12 87.0386 47.12Z" fill="#9BFF8E"/>
<path d="M93.6459 48.32V37.04H94.7259V48.32H93.6459ZM103.601 48.44C102.465 48.16 101.581 47.608 100.949 46.784C100.317 45.96 100.001 44.952 100.001 43.76V41.6C100.001 40.816 100.145 40.108 100.433 39.476C100.729 38.836 101.145 38.296 101.681 37.856C102.225 37.416 102.865 37.104 103.601 36.92V37.94C103.089 38.06 102.645 38.292 102.269 38.636C101.893 38.972 101.601 39.392 101.393 39.896C101.185 40.4 101.081 40.968 101.081 41.6V43.76C101.081 44.376 101.181 44.936 101.381 45.44C101.589 45.944 101.881 46.364 102.257 46.7C102.641 47.028 103.089 47.252 103.601 47.372V48.44ZM115.472 48.68V47.108C114.72 47.044 114.128 46.804 113.696 46.388C113.272 45.964 113.052 45.408 113.036 44.72H114.116C114.116 45.112 114.232 45.432 114.464 45.68C114.704 45.928 115.04 46.08 115.472 46.136V42.992L115.148 42.896C114.548 42.712 114.084 42.404 113.756 41.972C113.436 41.54 113.276 41.032 113.276 40.448C113.276 39.808 113.472 39.28 113.864 38.864C114.264 38.448 114.8 38.208 115.472 38.144V36.56H116.192V38.132C116.856 38.196 117.388 38.436 117.788 38.852C118.188 39.268 118.392 39.804 118.4 40.46H117.32C117.32 40.084 117.22 39.78 117.02 39.548C116.828 39.308 116.552 39.16 116.192 39.104V42.08L116.672 42.236C117.256 42.42 117.708 42.732 118.028 43.172C118.348 43.612 118.508 44.128 118.508 44.72C118.508 45.376 118.296 45.92 117.872 46.352C117.456 46.784 116.896 47.036 116.192 47.108V48.68H115.472ZM116.192 46.136C116.584 46.072 116.888 45.92 117.104 45.68C117.32 45.44 117.428 45.128 117.428 44.744C117.428 44.392 117.332 44.084 117.14 43.82C116.956 43.556 116.688 43.372 116.336 43.268L116.192 43.22V46.136ZM115.472 42.332V39.104C115.12 39.16 114.844 39.296 114.644 39.512C114.452 39.728 114.356 40.008 114.356 40.352C114.356 40.768 114.484 41.12 114.74 41.408C114.996 41.688 115.364 41.864 115.844 41.936L115.472 42.332ZM143.125 45.872L142.261 45.272L142.909 44.336C143.013 44.184 143.137 44.036 143.281 43.892C143.425 43.74 143.569 43.6 143.713 43.472C143.865 43.336 143.997 43.22 144.109 43.124L144.073 43.04C143.921 43.024 143.749 43.008 143.557 42.992C143.365 42.968 143.169 42.936 142.969 42.896C142.777 42.848 142.597 42.796 142.429 42.74L141.373 42.356L141.733 41.36L142.789 41.744C142.957 41.8 143.129 41.88 143.305 41.984C143.489 42.08 143.665 42.184 143.833 42.296C144.001 42.4 144.145 42.5 144.265 42.596L144.325 42.548C144.285 42.396 144.241 42.224 144.193 42.032C144.145 41.832 144.105 41.628 144.073 41.42C144.041 41.204 144.025 41.004 144.025 40.82V39.68H145.081V40.82C145.081 41.004 145.065 41.204 145.033 41.42C145.001 41.628 144.961 41.832 144.913 42.032C144.865 42.224 144.817 42.396 144.769 42.548L144.829 42.596C144.957 42.5 145.101 42.4 145.261 42.296C145.429 42.184 145.601 42.08 145.777 41.984C145.961 41.88 146.137 41.8 146.305 41.744L147.373 41.36L147.733 42.356L146.665 42.74C146.505 42.796 146.325 42.848 146.125 42.896C145.933 42.936 145.741 42.968 145.549 42.992C145.357 43.008 145.185 43.024 145.033 43.04L144.985 43.136C145.105 43.232 145.237 43.348 145.381 43.484C145.533 43.612 145.677 43.752 145.813 43.904C145.957 44.048 146.077 44.192 146.173 44.336L146.833 45.272L145.969 45.872L145.309 44.936C145.213 44.792 145.117 44.628 145.021 44.444C144.933 44.26 144.849 44.076 144.769 43.892C144.697 43.708 144.637 43.544 144.589 43.4H144.505C144.457 43.544 144.393 43.708 144.313 43.892C144.241 44.076 144.157 44.26 144.061 44.444C143.973 44.628 143.877 44.792 143.773 44.936L143.125 45.872ZM156.724 48.44V47.372C157.244 47.252 157.692 47.028 158.068 46.7C158.444 46.364 158.732 45.944 158.932 45.44C159.14 44.936 159.244 44.376 159.244 43.76V41.6C159.244 40.968 159.14 40.4 158.932 39.896C158.724 39.392 158.432 38.972 158.056 38.636C157.68 38.292 157.236 38.06 156.724 37.94V36.92C157.468 37.104 158.108 37.416 158.644 37.856C159.18 38.296 159.592 38.836 159.88 39.476C160.176 40.108 160.324 40.816 160.324 41.6V43.76C160.324 44.952 160.008 45.96 159.376 46.784C158.744 47.608 157.86 48.16 156.724 48.44Z" fill="#FF6188"/>
<path d="M107.845 47L105.637 40.4H106.741L108.205 44.84C108.293 45.104 108.373 45.36 108.445 45.608C108.517 45.848 108.569 46.036 108.601 46.172C108.641 46.036 108.697 45.848 108.769 45.608C108.841 45.36 108.917 45.104 108.997 44.84L110.425 40.4H111.517L109.309 47H107.845ZM122.967 47.12C122.663 47.12 122.419 47.032 122.235 46.856C122.059 46.68 121.971 46.444 121.971 46.148C121.971 45.836 122.059 45.588 122.235 45.404C122.419 45.22 122.663 45.128 122.967 45.128C123.271 45.128 123.511 45.22 123.687 45.404C123.871 45.588 123.963 45.836 123.963 46.148C123.963 46.444 123.871 46.68 123.687 46.856C123.511 47.032 123.271 47.12 122.967 47.12Z" fill="#F9E2AF"/>
<path d="M127.667 49.16V40.4H128.747V41.66H128.963L128.747 41.912C128.747 41.408 128.911 41.012 129.239 40.724C129.575 40.428 130.015 40.28 130.559 40.28C131.223 40.28 131.751 40.5 132.143 40.94C132.543 41.372 132.743 41.968 132.743 42.728V44.66C132.743 45.164 132.651 45.6 132.467 45.968C132.291 46.336 132.039 46.62 131.711 46.82C131.391 47.02 131.007 47.12 130.559 47.12C130.023 47.12 129.587 46.972 129.251 46.676C128.915 46.38 128.747 45.984 128.747 45.488L128.963 45.74H128.723L128.747 47.24V49.16H127.667ZM130.199 46.184C130.655 46.184 131.011 46.048 131.267 45.776C131.531 45.504 131.663 45.112 131.663 44.6V42.8C131.663 42.288 131.531 41.896 131.267 41.624C131.011 41.352 130.655 41.216 130.199 41.216C129.759 41.216 129.407 41.356 129.143 41.636C128.879 41.916 128.747 42.304 128.747 42.8V44.6C128.747 45.096 128.879 45.484 129.143 45.764C129.407 46.044 129.759 46.184 130.199 46.184ZM135.894 49.16L136.866 46.592L134.418 40.4H135.618L137.154 44.48C137.21 44.616 137.262 44.78 137.31 44.972C137.358 45.156 137.398 45.312 137.43 45.44C137.462 45.312 137.502 45.156 137.55 44.972C137.598 44.78 137.646 44.616 137.694 44.48L139.134 40.4H140.298L137.046 49.16H135.894Z" fill="url(#paint0_linear_68_108)"/>
<path d="M149.252 47V45.896L151.928 43.052C152.384 42.564 152.716 42.132 152.924 41.756C153.132 41.372 153.236 41.004 153.236 40.652C153.236 40.164 153.1 39.78 152.828 39.5C152.564 39.22 152.2 39.08 151.736 39.08C151.224 39.08 150.82 39.224 150.524 39.512C150.236 39.8 150.092 40.196 150.092 40.7H149.012C149.028 40.172 149.148 39.716 149.372 39.332C149.604 38.94 149.92 38.64 150.32 38.432C150.728 38.224 151.2 38.12 151.736 38.12C152.264 38.12 152.72 38.224 153.104 38.432C153.496 38.632 153.796 38.92 154.004 39.296C154.212 39.672 154.316 40.12 154.316 40.64C154.316 41.136 154.184 41.628 153.92 42.116C153.656 42.604 153.224 43.16 152.624 43.784L150.464 46.016H154.46V47H149.252Z" fill="#42C5FF"/>
<path d="M70.396 124.096C69.948 124.096 69.556 124.028 69.22 123.892C68.892 123.748 68.628 123.548 68.428 123.292C68.236 123.036 68.12 122.732 68.08 122.38H69.16C69.208 122.612 69.336 122.796 69.544 122.932C69.76 123.068 70.044 123.136 70.396 123.136H70.9C71.324 123.136 71.64 123.052 71.848 122.884C72.056 122.708 72.16 122.476 72.16 122.188C72.16 121.908 72.064 121.688 71.872 121.528C71.688 121.36 71.412 121.248 71.044 121.192L70.156 121.048C69.508 120.936 69.024 120.736 68.704 120.448C68.392 120.152 68.236 119.724 68.236 119.164C68.236 118.572 68.424 118.116 68.8 117.796C69.176 117.468 69.74 117.304 70.492 117.304H70.948C71.58 117.304 72.088 117.452 72.472 117.748C72.856 118.044 73.088 118.444 73.168 118.948H72.088C72.04 118.74 71.92 118.576 71.728 118.456C71.536 118.328 71.276 118.264 70.948 118.264H70.492C70.084 118.264 69.784 118.34 69.592 118.492C69.408 118.644 69.316 118.872 69.316 119.176C69.316 119.448 69.396 119.648 69.556 119.776C69.716 119.904 69.968 119.996 70.312 120.052L71.2 120.196C71.912 120.308 72.428 120.516 72.748 120.82C73.076 121.124 73.24 121.564 73.24 122.14C73.24 122.748 73.044 123.228 72.652 123.58C72.268 123.924 71.684 124.096 70.9 124.096H70.396ZM75.5273 124V117.4H76.5833V118.66H76.8353L76.4873 119.44C76.4873 118.728 76.6393 118.192 76.9433 117.832C77.2553 117.464 77.7153 117.28 78.3233 117.28C79.0193 117.28 79.5713 117.5 79.9793 117.94C80.3953 118.372 80.6033 118.96 80.6033 119.704V120.1H79.5233V119.8C79.5233 119.28 79.3953 118.884 79.1393 118.612C78.8913 118.332 78.5353 118.192 78.0713 118.192C77.6153 118.192 77.2553 118.332 76.9913 118.612C76.7353 118.892 76.6073 119.288 76.6073 119.8V124H75.5273ZM85.0386 124.12C84.5106 124.12 84.0466 124.02 83.6466 123.82C83.2546 123.62 82.9506 123.332 82.7346 122.956C82.5186 122.572 82.4106 122.12 82.4106 121.6V119.8C82.4106 119.272 82.5186 118.82 82.7346 118.444C82.9506 118.068 83.2546 117.78 83.6466 117.58C84.0466 117.38 84.5106 117.28 85.0386 117.28C85.7986 117.28 86.4106 117.484 86.8746 117.892C87.3386 118.3 87.5826 118.856 87.6066 119.56H86.5266C86.5026 119.136 86.3586 118.812 86.0946 118.588C85.8386 118.356 85.4866 118.24 85.0386 118.24C84.5666 118.24 84.1906 118.376 83.9106 118.648C83.6306 118.912 83.4906 119.292 83.4906 119.788V121.6C83.4906 122.096 83.6306 122.48 83.9106 122.752C84.1906 123.024 84.5666 123.16 85.0386 123.16C85.4866 123.16 85.8386 123.044 86.0946 122.812C86.3586 122.58 86.5026 122.256 86.5266 121.84H87.6066C87.5826 122.544 87.3386 123.1 86.8746 123.508C86.4106 123.916 85.7986 124.12 85.0386 124.12Z" fill="#9BFF8E"/>
<path d="M96.868 163L94.66 156.4H95.764L97.228 160.84C97.316 161.104 97.396 161.36 97.468 161.608C97.54 161.848 97.592 162.036 97.624 162.172C97.664 162.036 97.72 161.848 97.792 161.608C97.864 161.36 97.94 161.104 98.02 160.84L99.448 156.4H100.54L98.332 163H96.868ZM104.795 163.12C104.259 163.12 103.791 163.016 103.391 162.808C102.999 162.592 102.695 162.292 102.479 161.908C102.263 161.516 102.155 161.06 102.155 160.54V156.7C102.155 156.172 102.263 155.716 102.479 155.332C102.695 154.948 102.999 154.652 103.391 154.444C103.791 154.228 104.259 154.12 104.795 154.12C105.339 154.12 105.807 154.228 106.199 154.444C106.591 154.652 106.895 154.948 107.111 155.332C107.327 155.716 107.435 156.172 107.435 156.7V160.54C107.435 161.06 107.327 161.516 107.111 161.908C106.895 162.292 106.587 162.592 106.187 162.808C105.795 163.016 105.331 163.12 104.795 163.12ZM104.795 162.196C105.275 162.196 105.659 162.044 105.947 161.74C106.243 161.428 106.391 161.028 106.391 160.54V156.7C106.391 156.212 106.243 155.816 105.947 155.512C105.659 155.2 105.275 155.044 104.795 155.044C104.315 155.044 103.927 155.2 103.631 155.512C103.343 155.816 103.199 156.212 103.199 156.7V160.54C103.199 161.028 103.343 161.428 103.631 161.74C103.927 162.044 104.315 162.196 104.795 162.196ZM104.795 159.328C104.579 159.328 104.403 159.26 104.267 159.124C104.139 158.988 104.075 158.808 104.075 158.584C104.075 158.368 104.139 158.196 104.267 158.068C104.403 157.932 104.579 157.864 104.795 157.864C105.011 157.864 105.183 157.932 105.311 158.068C105.447 158.196 105.515 158.368 105.515 158.584C105.515 158.808 105.447 158.988 105.311 159.124C105.183 159.26 105.011 159.328 104.795 159.328ZM111.991 163.12C111.687 163.12 111.443 163.032 111.259 162.856C111.083 162.68 110.995 162.444 110.995 162.148C110.995 161.836 111.083 161.588 111.259 161.404C111.443 161.22 111.687 161.128 111.991 161.128C112.295 161.128 112.535 161.22 112.711 161.404C112.895 161.588 112.987 161.836 112.987 162.148C112.987 162.444 112.895 162.68 112.711 162.856C112.535 163.032 112.295 163.12 111.991 163.12ZM116.69 165.16V156.4H117.77V157.66H117.986L117.77 157.912C117.77 157.408 117.934 157.012 118.262 156.724C118.598 156.428 119.038 156.28 119.582 156.28C120.246 156.28 120.774 156.5 121.166 156.94C121.566 157.372 121.766 157.968 121.766 158.728V160.66C121.766 161.164 121.674 161.6 121.49 161.968C121.314 162.336 121.062 162.62 120.734 162.82C120.414 163.02 120.03 163.12 119.582 163.12C119.046 163.12 118.61 162.972 118.274 162.676C117.938 162.38 117.77 161.984 117.77 161.488L117.986 161.74H117.746L117.77 163.24V165.16H116.69ZM119.222 162.184C119.678 162.184 120.034 162.048 120.29 161.776C120.554 161.504 120.686 161.112 120.686 160.6V158.8C120.686 158.288 120.554 157.896 120.29 157.624C120.034 157.352 119.678 157.216 119.222 157.216C118.782 157.216 118.43 157.356 118.166 157.636C117.902 157.916 117.77 158.304 117.77 158.8V160.6C117.77 161.096 117.902 161.484 118.166 161.764C118.43 162.044 118.782 162.184 119.222 162.184ZM124.917 165.16L125.889 162.592L123.441 156.4H124.641L126.177 160.48C126.233 160.616 126.285 160.78 126.333 160.972C126.381 161.156 126.421 161.312 126.453 161.44C126.485 161.312 126.525 161.156 126.573 160.972C126.621 160.78 126.669 160.616 126.717 160.48L128.157 156.4H129.321L126.069 165.16H124.917Z" fill="url(#paint1_linear_68_108)"/>
<path d="M9 86.5H323" stroke="#484848" stroke-linecap="round"/>
<path d="M38 146L38 206" stroke="#656565" stroke-linecap="round"/>
<path d="M167 65C167 64.4477 166.552 64 166 64C165.448 64 165 64.4477 165 65L167 65ZM165.293 108.707C165.683 109.098 166.317 109.098 166.707 108.707L173.071 102.343C173.462 101.953 173.462 101.319 173.071 100.929C172.681 100.538 172.047 100.538 171.657 100.929L166 106.586L160.343 100.929C159.953 100.538 159.319 100.538 158.929 100.929C158.538 101.319 158.538 101.953 158.929 102.343L165.293 108.707ZM165 65L165 108L167 108L167 65L165 65Z" fill="white"/>
<path d="M34.4375 113.438H48.5C50.0533 113.438 51.3125 114.697 51.3125 116.25V117.188M37.25 130.312H29.75C28.1967 130.312 26.9375 129.053 26.9375 127.5V111.562C26.9375 110.527 27.777 109.688 28.8125 109.688H38.1875C39.223 109.688 40.0625 110.527 40.0625 111.562V113.438" stroke="#CDD6F4" stroke-linecap="round" stroke-linejoin="round"/>
<path d="M45.6875 120.938L40.0625 127.5L45.6875 134.062M49.4375 120.938L55.0625 127.5L49.4375 134.062" stroke="#A6E3A1" stroke-linecap="round" stroke-linejoin="round"/>
<path d="M96.868 199L94.66 192.4H95.764L97.228 196.84C97.316 197.104 97.396 197.36 97.468 197.608C97.54 197.848 97.592 198.036 97.624 198.172C97.664 198.036 97.72 197.848 97.792 197.608C97.864 197.36 97.94 197.104 98.02 196.84L99.448 192.4H100.54L98.332 199H96.868ZM102.275 199V198.016H104.651V191.14L102.275 192.916V191.716L104.255 190.24H105.731V198.016H107.675V199H102.275ZM111.991 199.12C111.687 199.12 111.443 199.032 111.259 198.856C111.083 198.68 110.995 198.444 110.995 198.148C110.995 197.836 111.083 197.588 111.259 197.404C111.443 197.22 111.687 197.128 111.991 197.128C112.295 197.128 112.535 197.22 112.711 197.404C112.895 197.588 112.987 197.836 112.987 198.148C112.987 198.444 112.895 198.68 112.711 198.856C112.535 199.032 112.295 199.12 111.991 199.12ZM116.69 201.16V192.4H117.77V193.66H117.986L117.77 193.912C117.77 193.408 117.934 193.012 118.262 192.724C118.598 192.428 119.038 192.28 119.582 192.28C120.246 192.28 120.774 192.5 121.166 192.94C121.566 193.372 121.766 193.968 121.766 194.728V196.66C121.766 197.164 121.674 197.6 121.49 197.968C121.314 198.336 121.062 198.62 120.734 198.82C120.414 199.02 120.03 199.12 119.582 199.12C119.046 199.12 118.61 198.972 118.274 198.676C117.938 198.38 117.77 197.984 117.77 197.488L117.986 197.74H117.746L117.77 199.24V201.16H116.69ZM119.222 198.184C119.678 198.184 120.034 198.048 120.29 197.776C120.554 197.504 120.686 197.112 120.686 196.6V194.8C120.686 194.288 120.554 193.896 120.29 193.624C120.034 193.352 119.678 193.216 119.222 193.216C118.782 193.216 118.43 193.356 118.166 193.636C117.902 193.916 117.77 194.304 117.77 194.8V196.6C117.77 197.096 117.902 197.484 118.166 197.764C118.43 198.044 118.782 198.184 119.222 198.184ZM124.917 201.16L125.889 198.592L123.441 192.4H124.641L126.177 196.48C126.233 196.616 126.285 196.78 126.333 196.972C126.381 197.156 126.421 197.312 126.453 197.44C126.485 197.312 126.525 197.156 126.573 196.972C126.621 196.78 126.669 196.616 126.717 196.48L128.157 192.4H129.321L126.069 201.16H124.917Z" fill="url(#paint2_linear_68_108)"/>
<path d="M69.9375 153.312H64.3125M64.3125 153.312V148.625C64.3125 147.125 65.625 145.812 67.125 145.812H72.75C74.25 145.812 75.5625 147.125 75.5625 148.625V153.312M64.3125 153.312H59.625C58.125 153.312 56.8125 154.625 56.8125 156.125V159.875C56.8125 161.375 58.125 162.688 59.5875 162.688" stroke="#89B4FA" stroke-linecap="round" stroke-linejoin="round"/>
<path d="M73.6875 162.688H68.0625M73.6875 162.688V167.375C73.6875 168.875 72.375 170.188 70.875 170.188H65.25C63.75 170.188 62.4375 168.875 62.4375 167.375V162.688M73.6875 162.688H78.375C79.875 162.688 81.1875 161.375 81.1875 159.875V156.125C81.1875 154.625 79.875 153.312 78.4125 153.312H75.5625C75.5625 156.125 75.5625 157.062 73.6875 157.062H69.9375" stroke="#F9E2AF" stroke-linecap="round" stroke-linejoin="round"/>
<path d="M59.5875 162.688H62.4375C62.4375 159.875 62.4375 158.938 64.3125 158.938H68.0625" stroke="#89B4FA" stroke-linecap="round" stroke-linejoin="round"/>
<path d="M69.9375 186.312H64.3125M64.3125 186.312V181.625C64.3125 180.125 65.625 178.812 67.125 178.812H72.75C74.25 178.812 75.5625 180.125 75.5625 181.625V186.312M64.3125 186.312H59.625C58.125 186.312 56.8125 187.625 56.8125 189.125V192.875C56.8125 194.375 58.125 195.688 59.5875 195.688" stroke="#89B4FA" stroke-linecap="round" stroke-linejoin="round"/>
<path d="M73.6875 195.688H68.0625M73.6875 195.688V200.375C73.6875 201.875 72.375 203.188 70.875 203.188H65.25C63.75 203.188 62.4375 201.875 62.4375 200.375V195.688M73.6875 195.688H78.375C79.875 195.688 81.1875 194.375 81.1875 192.875V189.125C81.1875 187.625 79.875 186.312 78.4125 186.312H75.5625C75.5625 189.125 75.5625 190.062 73.6875 190.062H69.9375" stroke="#F9E2AF" stroke-linecap="round" stroke-linejoin="round"/>
<path d="M59.5875 195.688H62.4375C62.4375 192.875 62.4375 191.938 64.3125 191.938H68.0625" stroke="#89B4FA" stroke-linecap="round" stroke-linejoin="round"/>
</g>
<defs>
<linearGradient id="paint0_linear_68_108" x1="105.5" y1="43" x2="145" y2="43" gradientUnits="userSpaceOnUse">
<stop stop-color="#F9E2AF"/>
<stop offset="0.919823" stop-color="#7CA2DF"/>
</linearGradient>
<linearGradient id="paint1_linear_68_108" x1="102.051" y1="159" x2="110.746" y2="159" gradientUnits="userSpaceOnUse">
<stop stop-color="#F9E2AF"/>
<stop offset="1" stop-color="#7CA2DF"/>
</linearGradient>
<linearGradient id="paint2_linear_68_108" x1="102.051" y1="195" x2="110.746" y2="195" gradientUnits="userSpaceOnUse">
<stop stop-color="#F9E2AF"/>
<stop offset="1" stop-color="#7CA2DF"/>
</linearGradient>
<clipPath id="clip0_68_108">
<rect width="331" height="231" fill="white"/>
</clipPath>
</defs>
</svg>
