<svg width="331" height="231" viewBox="0 0 331 231" fill="none" xmlns="http://www.w3.org/2000/svg">
<g clip-path="url(#clip0_90_80)">
<rect width="331" height="231" fill="#252525"/>
<rect width="331" height="23" fill="#111111"/>
<rect y="79" width="331" height="14" fill="#9BFF8E" fill-opacity="0.19"/>
<path d="M8.396 16.096C7.948 16.096 7.556 16.028 7.22 15.892C6.892 15.748 6.628 15.548 6.428 15.292C6.236 15.036 6.12 14.732 6.08 14.38H7.16C7.208 14.612 7.336 14.796 7.544 14.932C7.76 15.068 8.044 15.136 8.396 15.136H8.9C9.324 15.136 9.64 15.052 9.848 14.884C10.056 14.708 10.16 14.476 10.16 14.188C10.16 13.908 10.064 13.688 9.872 13.528C9.688 13.36 9.412 13.248 9.044 13.192L8.156 13.048C7.508 12.936 7.024 12.736 6.704 12.448C6.392 12.152 6.236 11.724 6.236 11.164C6.236 10.572 6.424 10.116 6.8 9.796C7.176 9.468 7.74 9.304 8.492 9.304H8.948C9.58 9.304 10.088 9.452 10.472 9.748C10.856 10.044 11.088 10.444 11.168 10.948H10.088C10.04 10.74 9.92 10.576 9.728 10.456C9.536 10.328 9.276 10.264 8.948 10.264H8.492C8.084 10.264 7.784 10.34 7.592 10.492C7.408 10.644 7.316 10.872 7.316 11.176C7.316 11.448 7.396 11.648 7.556 11.776C7.716 11.904 7.968 11.996 8.312 12.052L9.2 12.196C9.912 12.308 10.428 12.516 10.748 12.82C11.076 13.124 11.24 13.564 11.24 14.14C11.24 14.748 11.044 15.228 10.652 15.58C10.268 15.924 9.684 16.096 8.9 16.096H8.396ZM15.7953 16.12C15.2753 16.12 14.8193 16.016 14.4273 15.808C14.0433 15.6 13.7433 15.308 13.5273 14.932C13.3193 14.548 13.2153 14.104 13.2153 13.6V11.8C13.2153 11.288 13.3193 10.844 13.5273 10.468C13.7433 10.092 14.0433 9.8 14.4273 9.592C14.8193 9.384 15.2753 9.28 15.7953 9.28C16.3153 9.28 16.7673 9.384 17.1513 9.592C17.5433 9.8 17.8433 10.092 18.0513 10.468C18.2673 10.844 18.3753 11.288 18.3753 11.8V12.964H14.2713V13.6C14.2713 14.12 14.4033 14.52 14.6673 14.8C14.9313 15.072 15.3073 15.208 15.7953 15.208C16.2113 15.208 16.5473 15.136 16.8033 14.992C17.0593 14.84 17.2153 14.616 17.2713 14.32H18.3513C18.2793 14.872 18.0073 15.312 17.5353 15.64C17.0713 15.96 16.4913 16.12 15.7953 16.12ZM17.3193 12.244V11.8C17.3193 11.28 17.1873 10.88 16.9233 10.6C16.6673 10.32 16.2913 10.18 15.7953 10.18C15.3073 10.18 14.9313 10.32 14.6673 10.6C14.4033 10.88 14.2713 11.28 14.2713 11.8V12.148H17.4033L17.3193 12.244ZM23.7106 16C23.1426 16 22.6986 15.848 22.3786 15.544C22.0666 15.24 21.9106 14.812 21.9106 14.26V10.384H20.0506V9.4H21.9106V7.54H22.9906V9.4H25.6306V10.384H22.9906V14.26C22.9906 14.764 23.2306 15.016 23.7106 15.016H25.5106V16H23.7106ZM30.9059 16C30.3379 16 29.8939 15.848 29.5739 15.544C29.2619 15.24 29.1059 14.812 29.1059 14.26V10.384H27.2459V9.4H29.1059V7.54H30.1859V9.4H32.8259V10.384H30.1859V14.26C30.1859 14.764 30.4259 15.016 30.9059 15.016H32.7059V16H30.9059ZM34.8013 16V15.016H37.1413V10.384H35.1013V9.4H38.2213V15.016H40.4413V16H34.8013ZM37.5613 8.212C37.2973 8.212 37.0893 8.144 36.9373 8.008C36.7853 7.872 36.7093 7.688 36.7093 7.456C36.7093 7.216 36.7853 7.028 36.9373 6.892C37.0893 6.748 37.2973 6.676 37.5613 6.676C37.8253 6.676 38.0333 6.748 38.1853 6.892C38.3373 7.028 38.4133 7.216 38.4133 7.456C38.4133 7.688 38.3373 7.872 38.1853 8.008C38.0333 8.144 37.8253 8.212 37.5613 8.212ZM42.0806 16V9.4H43.1606V10.66H43.3886L43.1606 10.912C43.1606 10.392 43.3166 9.992 43.6286 9.712C43.9406 9.424 44.3726 9.28 44.9246 9.28C45.5886 9.28 46.1166 9.484 46.5086 9.892C46.9006 10.3 47.0966 10.856 47.0966 11.56V16H46.0166V11.68C46.0166 11.208 45.8886 10.848 45.6326 10.6C45.3846 10.344 45.0446 10.216 44.6126 10.216C44.1646 10.216 43.8086 10.352 43.5446 10.624C43.2886 10.896 43.1606 11.288 43.1606 11.8V16H42.0806ZM50.1039 18.16V17.176H52.2039C52.5399 17.176 52.7839 17.1 52.9359 16.948C53.0959 16.796 53.1759 16.56 53.1759 16.24V15.4L53.1999 14.2H52.9839L53.1879 14.02C53.1879 14.5 53.0279 14.88 52.7079 15.16C52.3879 15.44 51.9599 15.58 51.4239 15.58C50.7439 15.58 50.2079 15.36 49.8159 14.92C49.4239 14.472 49.2279 13.872 49.2279 13.12V11.728C49.2279 10.976 49.4239 10.38 49.8159 9.94C50.2079 9.5 50.7439 9.28 51.4239 9.28C51.9599 9.28 52.3879 9.42 52.7079 9.7C53.0279 9.98 53.1879 10.36 53.1879 10.84L52.9839 10.66H53.1879V9.4H54.2559V16.24C54.2559 16.832 54.0719 17.3 53.7039 17.644C53.3439 17.988 52.8399 18.16 52.1919 18.16H50.1039ZM51.7479 14.644C52.1959 14.644 52.5479 14.504 52.8039 14.224C53.0599 13.944 53.1879 13.556 53.1879 13.06V11.8C53.1879 11.304 53.0599 10.916 52.8039 10.636C52.5479 10.356 52.1959 10.216 51.7479 10.216C51.2919 10.216 50.9359 10.352 50.6799 10.624C50.4319 10.896 50.3079 11.288 50.3079 11.8V13.06C50.3079 13.572 50.4319 13.964 50.6799 14.236C50.9359 14.508 51.2919 14.644 51.7479 14.644ZM58.7632 16.096C58.3152 16.096 57.9232 16.028 57.5872 15.892C57.2592 15.748 56.9952 15.548 56.7952 15.292C56.6032 15.036 56.4872 14.732 56.4472 14.38H57.5272C57.5752 14.612 57.7032 14.796 57.9112 14.932C58.1272 15.068 58.4112 15.136 58.7632 15.136H59.2672C59.6912 15.136 60.0072 15.052 60.2152 14.884C60.4232 14.708 60.5272 14.476 60.5272 14.188C60.5272 13.908 60.4312 13.688 60.2392 13.528C60.0552 13.36 59.7792 13.248 59.4112 13.192L58.5232 13.048C57.8752 12.936 57.3912 12.736 57.0712 12.448C56.7592 12.152 56.6032 11.724 56.6032 11.164C56.6032 10.572 56.7912 10.116 57.1672 9.796C57.5432 9.468 58.1072 9.304 58.8592 9.304H59.3152C59.9472 9.304 60.4552 9.452 60.8392 9.748C61.2232 10.044 61.4552 10.444 61.5352 10.948H60.4552C60.4072 10.74 60.2872 10.576 60.0952 10.456C59.9032 10.328 59.6432 10.264 59.3152 10.264H58.8592C58.4512 10.264 58.1512 10.34 57.9592 10.492C57.7752 10.644 57.6832 10.872 57.6832 11.176C57.6832 11.448 57.7632 11.648 57.9232 11.776C58.0832 11.904 58.3352 11.996 58.6792 12.052L59.5672 12.196C60.2792 12.308 60.7952 12.516 61.1152 12.82C61.4432 13.124 61.6072 13.564 61.6072 14.14C61.6072 14.748 61.4112 15.228 61.0192 15.58C60.6352 15.924 60.0512 16.096 59.2672 16.096H58.7632ZM66.1625 16.12C65.8585 16.12 65.6145 16.032 65.4305 15.856C65.2545 15.68 65.1665 15.444 65.1665 15.148C65.1665 14.836 65.2545 14.588 65.4305 14.404C65.6145 14.22 65.8585 14.128 66.1625 14.128C66.4665 14.128 66.7065 14.22 66.8825 14.404C67.0665 14.588 67.1585 14.836 67.1585 15.148C67.1585 15.444 67.0665 15.68 66.8825 15.856C66.7065 16.032 66.4665 16.12 66.1625 16.12ZM70.7778 18.16V17.164H72.3258C72.8218 17.164 73.2058 17.028 73.4778 16.756C73.7578 16.492 73.8978 16.116 73.8978 15.628V10.384H71.1378V9.4H74.9778V15.628C74.9778 16.404 74.7378 17.02 74.2578 17.476C73.7778 17.932 73.1338 18.16 72.3258 18.16H70.7778ZM74.3778 8.212C74.1138 8.212 73.9058 8.144 73.7538 8.008C73.6018 7.872 73.5258 7.688 73.5258 7.456C73.5258 7.216 73.6018 7.028 73.7538 6.892C73.9058 6.748 74.1138 6.676 74.3778 6.676C74.6418 6.676 74.8498 6.748 75.0018 6.892C75.1538 7.028 75.2298 7.216 75.2298 7.456C75.2298 7.688 75.1538 7.872 75.0018 8.008C74.8498 8.144 74.6418 8.212 74.3778 8.212ZM80.3491 16.096C79.9011 16.096 79.5091 16.028 79.1731 15.892C78.8451 15.748 78.5811 15.548 78.3811 15.292C78.1891 15.036 78.0731 14.732 78.0331 14.38H79.1131C79.1611 14.612 79.2891 14.796 79.4971 14.932C79.7131 15.068 79.9971 15.136 80.3491 15.136H80.8531C81.2771 15.136 81.5931 15.052 81.8011 14.884C82.0091 14.708 82.1131 14.476 82.1131 14.188C82.1131 13.908 82.0171 13.688 81.8251 13.528C81.6411 13.36 81.3651 13.248 80.9971 13.192L80.1091 13.048C79.4611 12.936 78.9771 12.736 78.6571 12.448C78.3451 12.152 78.1891 11.724 78.1891 11.164C78.1891 10.572 78.3771 10.116 78.7531 9.796C79.1291 9.468 79.6931 9.304 80.4451 9.304H80.9011C81.5331 9.304 82.0411 9.452 82.4251 9.748C82.8091 10.044 83.0411 10.444 83.1211 10.948H82.0411C81.9931 10.74 81.8731 10.576 81.6811 10.456C81.4891 10.328 81.2291 10.264 80.9011 10.264H80.4451C80.0371 10.264 79.7371 10.34 79.5451 10.492C79.3611 10.644 79.2691 10.872 79.2691 11.176C79.2691 11.448 79.3491 11.648 79.5091 11.776C79.6691 11.904 79.9211 11.996 80.2651 12.052L81.1531 12.196C81.8651 12.308 82.3811 12.516 82.7011 12.82C83.0291 13.124 83.1931 13.564 83.1931 14.14C83.1931 14.748 82.9971 15.228 82.6051 15.58C82.2211 15.924 81.6371 16.096 80.8531 16.096H80.3491ZM87.7484 16.096C87.2204 16.096 86.7644 15.996 86.3804 15.796C85.9964 15.596 85.6964 15.308 85.4804 14.932C85.2724 14.548 85.1684 14.096 85.1684 13.576V11.824C85.1684 11.296 85.2724 10.844 85.4804 10.468C85.6964 10.092 85.9964 9.804 86.3804 9.604C86.7644 9.404 87.2204 9.304 87.7484 9.304C88.2764 9.304 88.7324 9.404 89.1164 9.604C89.5004 9.804 89.7964 10.092 90.0044 10.468C90.2204 10.844 90.3284 11.292 90.3284 11.812V13.576C90.3284 14.096 90.2204 14.548 90.0044 14.932C89.7964 15.308 89.5004 15.596 89.1164 15.796C88.7324 15.996 88.2764 16.096 87.7484 16.096ZM87.7484 15.136C88.2204 15.136 88.5884 15.004 88.8524 14.74C89.1164 14.476 89.2484 14.088 89.2484 13.576V11.824C89.2484 11.312 89.1164 10.924 88.8524 10.66C88.5884 10.396 88.2204 10.264 87.7484 10.264C87.2844 10.264 86.9164 10.396 86.6444 10.66C86.3804 10.924 86.2484 11.312 86.2484 11.824V13.576C86.2484 14.088 86.3804 14.476 86.6444 14.74C86.9164 15.004 87.2844 15.136 87.7484 15.136ZM92.4478 16V9.4H93.5278V10.66H93.7558L93.5278 10.912C93.5278 10.392 93.6838 9.992 93.9958 9.712C94.3078 9.424 94.7398 9.28 95.2918 9.28C95.9558 9.28 96.4838 9.484 96.8758 9.892C97.2678 10.3 97.4638 10.856 97.4638 11.56V16H96.3838V11.68C96.3838 11.208 96.2558 10.848 95.9998 10.6C95.7518 10.344 95.4118 10.216 94.9798 10.216C94.5318 10.216 94.1758 10.352 93.9118 10.624C93.6558 10.896 93.5278 11.288 93.5278 11.8V16H92.4478Z" fill="white"/>
<path d="M8.05 33.35L9.35 30.24H10.15L9.35 33.35H8.05ZM5.75 33.35L7.05 30.24H7.85L7.05 33.35H5.75ZM13.9961 38.1C13.5628 38.1 13.1828 38.0133 12.8561 37.84C12.5361 37.6667 12.2861 37.4233 12.1061 37.11C11.9328 36.79 11.8461 36.42 11.8461 36V34.5C11.8461 34.0733 11.9328 33.7033 12.1061 33.39C12.2861 33.0767 12.5361 32.8333 12.8561 32.66C13.1828 32.4867 13.5628 32.4 13.9961 32.4C14.4294 32.4 14.8061 32.4867 15.1261 32.66C15.4528 32.8333 15.7028 33.0767 15.8761 33.39C16.0561 33.7033 16.1461 34.0733 16.1461 34.5V35.47H12.7261V36C12.7261 36.4333 12.8361 36.7667 13.0561 37C13.2761 37.2267 13.5894 37.34 13.9961 37.34C14.3428 37.34 14.6228 37.28 14.8361 37.16C15.0494 37.0333 15.1794 36.8467 15.2261 36.6H16.1261C16.0661 37.06 15.8394 37.4267 15.4461 37.7C15.0594 37.9667 14.5761 38.1 13.9961 38.1ZM15.2661 34.87V34.5C15.2661 34.0667 15.1561 33.7333 14.9361 33.5C14.7228 33.2667 14.4094 33.15 13.9961 33.15C13.5894 33.15 13.2761 33.2667 13.0561 33.5C12.8361 33.7333 12.7261 34.0667 12.7261 34.5V34.79H15.3361L15.2661 34.87ZM17.6522 38V32.5H18.4422V33.16H18.6222L18.4822 33.4C18.4822 33.0933 18.5622 32.85 18.7222 32.67C18.8889 32.49 19.1122 32.4 19.3922 32.4C19.6989 32.4 19.9355 32.5133 20.1022 32.74C20.2689 32.9667 20.3522 33.2867 20.3522 33.7L20.0822 33.16H20.5022L20.3122 33.4C20.3122 33.0933 20.3955 32.85 20.5622 32.67C20.7355 32.49 20.9622 32.4 21.2422 32.4C21.5889 32.4 21.8555 32.53 22.0422 32.79C22.2355 33.05 22.3322 33.3933 22.3322 33.82V38H21.5022V33.81C21.5022 33.5833 21.4522 33.4067 21.3522 33.28C21.2589 33.1533 21.1189 33.09 20.9322 33.09C20.7522 33.09 20.6089 33.1533 20.5022 33.28C20.4022 33.4 20.3522 33.5733 20.3522 33.8V38H19.6322V33.81C19.6322 33.5767 19.5789 33.4 19.4722 33.28C19.3722 33.1533 19.2289 33.09 19.0422 33.09C18.8555 33.09 18.7155 33.1533 18.6222 33.28C18.5289 33.4 18.4822 33.5733 18.4822 33.8V38H17.6522ZM23.6483 38V32.5H24.4383V33.16H24.6183L24.4783 33.4C24.4783 33.0933 24.5583 32.85 24.7183 32.67C24.8849 32.49 25.1083 32.4 25.3883 32.4C25.6949 32.4 25.9316 32.5133 26.0983 32.74C26.2649 32.9667 26.3483 33.2867 26.3483 33.7L26.0783 33.16H26.4983L26.3083 33.4C26.3083 33.0933 26.3916 32.85 26.5583 32.67C26.7316 32.49 26.9583 32.4 27.2383 32.4C27.5849 32.4 27.8516 32.53 28.0383 32.79C28.2316 33.05 28.3283 33.3933 28.3283 33.82V38H27.4983V33.81C27.4983 33.5833 27.4483 33.4067 27.3483 33.28C27.2549 33.1533 27.1149 33.09 26.9283 33.09C26.7483 33.09 26.6049 33.1533 26.4983 33.28C26.3983 33.4 26.3483 33.5733 26.3483 33.8V38H25.6283V33.81C25.6283 33.5767 25.5749 33.4 25.4683 33.28C25.3683 33.1533 25.2249 33.09 25.0383 33.09C24.8516 33.09 24.7116 33.1533 24.6183 33.28C24.5249 33.4 24.4783 33.5733 24.4783 33.8V38H23.6483ZM31.9844 38.1C31.551 38.1 31.171 38.0133 30.8444 37.84C30.5244 37.6667 30.2744 37.4233 30.0944 37.11C29.921 36.79 29.8344 36.42 29.8344 36V34.5C29.8344 34.0733 29.921 33.7033 30.0944 33.39C30.2744 33.0767 30.5244 32.8333 30.8444 32.66C31.171 32.4867 31.551 32.4 31.9844 32.4C32.4177 32.4 32.7944 32.4867 33.1144 32.66C33.441 32.8333 33.691 33.0767 33.8644 33.39C34.0444 33.7033 34.1344 34.0733 34.1344 34.5V35.47H30.7144V36C30.7144 36.4333 30.8244 36.7667 31.0444 37C31.2644 37.2267 31.5777 37.34 31.9844 37.34C32.331 37.34 32.611 37.28 32.8244 37.16C33.0377 37.0333 33.1677 36.8467 33.2144 36.6H34.1144C34.0544 37.06 33.8277 37.4267 33.4344 37.7C33.0477 37.9667 32.5644 38.1 31.9844 38.1ZM33.2544 34.87V34.5C33.2544 34.0667 33.1444 33.7333 32.9244 33.5C32.711 33.2667 32.3977 33.15 31.9844 33.15C31.5777 33.15 31.2644 33.2667 31.0444 33.5C30.8244 33.7333 30.7144 34.0667 30.7144 34.5V34.79H33.3244L33.2544 34.87ZM38.5805 38C38.1071 38 37.7371 37.8733 37.4705 37.62C37.2105 37.3667 37.0805 37.01 37.0805 36.55V33.32H35.5305V32.5H37.0805V30.95H37.9805V32.5H40.1805V33.32H37.9805V36.55C37.9805 36.97 38.1805 37.18 38.5805 37.18H40.0805V38H38.5805ZM41.9266 38V30.69H46.2266V31.51H42.8066V33.94H45.9666V34.76H42.8266V38H41.9266ZM47.8227 38V37.18H49.7727V33.32H48.0727V32.5H50.6727V37.18H52.5227V38H47.8227ZM50.1227 31.51C49.9027 31.51 49.7293 31.4533 49.6027 31.34C49.476 31.2267 49.4127 31.0733 49.4127 30.88C49.4127 30.68 49.476 30.5233 49.6027 30.41C49.7293 30.29 49.9027 30.23 50.1227 30.23C50.3427 30.23 50.516 30.29 50.6427 30.41C50.7693 30.5233 50.8327 30.68 50.8327 30.88C50.8327 31.0733 50.7693 31.2267 50.6427 31.34C50.516 31.4533 50.3427 31.51 50.1227 31.51ZM56.7188 38C56.3988 38 56.1188 37.9367 55.8788 37.81C55.6388 37.6833 55.4521 37.5033 55.3188 37.27C55.1854 37.0367 55.1188 36.7633 55.1188 36.45V31.52H53.2688V30.7H56.0188V36.45C56.0188 36.6767 56.0821 36.8567 56.2088 36.99C56.3354 37.1167 56.5054 37.18 56.7188 37.18H58.4688V38H56.7188ZM61.9648 38.1C61.5315 38.1 61.1515 38.0133 60.8248 37.84C60.5048 37.6667 60.2548 37.4233 60.0748 37.11C59.9015 36.79 59.8148 36.42 59.8148 36V34.5C59.8148 34.0733 59.9015 33.7033 60.0748 33.39C60.2548 33.0767 60.5048 32.8333 60.8248 32.66C61.1515 32.4867 61.5315 32.4 61.9648 32.4C62.3982 32.4 62.7748 32.4867 63.0948 32.66C63.4215 32.8333 63.6715 33.0767 63.8448 33.39C64.0248 33.7033 64.1148 34.0733 64.1148 34.5V35.47H60.6948V36C60.6948 36.4333 60.8048 36.7667 61.0248 37C61.2448 37.2267 61.5582 37.34 61.9648 37.34C62.3115 37.34 62.5915 37.28 62.8048 37.16C63.0182 37.0333 63.1482 36.8467 63.1948 36.6H64.0948C64.0348 37.06 63.8082 37.4267 63.4148 37.7C63.0282 37.9667 62.5448 38.1 61.9648 38.1ZM63.2348 34.87V34.5C63.2348 34.0667 63.1248 33.7333 62.9048 33.5C62.6915 33.2667 62.3782 33.15 61.9648 33.15C61.5582 33.15 61.2448 33.2667 61.0248 33.5C60.8048 33.7333 60.6948 34.0667 60.6948 34.5V34.79H63.3048L63.2348 34.87ZM67.9609 38.1C67.7076 38.1 67.5043 38.0267 67.3509 37.88C67.2043 37.7333 67.1309 37.5367 67.1309 37.29C67.1309 37.03 67.2043 36.8233 67.3509 36.67C67.5043 36.5167 67.7076 36.44 67.9609 36.44C68.2143 36.44 68.4143 36.5167 68.5609 36.67C68.7143 36.8233 68.7909 37.03 68.7909 37.29C68.7909 37.5367 68.7143 37.7333 68.5609 37.88C68.4143 38.0267 68.2143 38.1 67.9609 38.1ZM74.557 38C74.0837 38 73.7137 37.8733 73.447 37.62C73.187 37.3667 73.057 37.01 73.057 36.55V33.32H71.507V32.5H73.057V30.95H73.957V32.5H76.157V33.32H73.957V36.55C73.957 36.97 74.157 37.18 74.557 37.18H76.057V38H74.557ZM79.9531 38.1C79.5198 38.1 79.1398 38.0133 78.8131 37.84C78.4931 37.6667 78.2431 37.4233 78.0631 37.11C77.8898 36.79 77.8031 36.42 77.8031 36V34.5C77.8031 34.0733 77.8898 33.7033 78.0631 33.39C78.2431 33.0767 78.4931 32.8333 78.8131 32.66C79.1398 32.4867 79.5198 32.4 79.9531 32.4C80.3865 32.4 80.7631 32.4867 81.0831 32.66C81.4098 32.8333 81.6598 33.0767 81.8331 33.39C82.0131 33.7033 82.1031 34.0733 82.1031 34.5V35.47H78.6831V36C78.6831 36.4333 78.7931 36.7667 79.0131 37C79.2331 37.2267 79.5465 37.34 79.9531 37.34C80.2998 37.34 80.5798 37.28 80.7931 37.16C81.0065 37.0333 81.1365 36.8467 81.1831 36.6H82.0831C82.0231 37.06 81.7965 37.4267 81.4031 37.7C81.0165 37.9667 80.5331 38.1 79.9531 38.1ZM81.2231 34.87V34.5C81.2231 34.0667 81.1131 33.7333 80.8931 33.5C80.6798 33.2667 80.3665 33.15 79.9531 33.15C79.5465 33.15 79.2331 33.2667 79.0131 33.5C78.7931 33.7333 78.6831 34.0667 78.6831 34.5V34.79H81.2931L81.2231 34.87ZM83.6092 38V32.5H84.3992V33.16H84.5792L84.4392 33.4C84.4392 33.0933 84.5192 32.85 84.6792 32.67C84.8459 32.49 85.0692 32.4 85.3492 32.4C85.6559 32.4 85.8926 32.5133 86.0592 32.74C86.2259 32.9667 86.3092 33.2867 86.3092 33.7L86.0392 33.16H86.4592L86.2692 33.4C86.2692 33.0933 86.3526 32.85 86.5192 32.67C86.6926 32.49 86.9192 32.4 87.1992 32.4C87.5459 32.4 87.8126 32.53 87.9992 32.79C88.1926 33.05 88.2892 33.3933 88.2892 33.82V38H87.4592V33.81C87.4592 33.5833 87.4092 33.4067 87.3092 33.28C87.2159 33.1533 87.0759 33.09 86.8892 33.09C86.7092 33.09 86.5659 33.1533 86.4592 33.28C86.3592 33.4 86.3092 33.5733 86.3092 33.8V38H85.5892V33.81C85.5892 33.5767 85.5359 33.4 85.4292 33.28C85.3292 33.1533 85.1859 33.09 84.9992 33.09C84.8126 33.09 84.6726 33.1533 84.5792 33.28C84.4859 33.4 84.4392 33.5733 84.4392 33.8V38H83.6092ZM89.8653 39.8V32.5H90.7653V33.55H90.9453L90.7653 33.76C90.7653 33.34 90.902 33.01 91.1753 32.77C91.4553 32.5233 91.822 32.4 92.2753 32.4C92.8286 32.4 93.2686 32.5833 93.5953 32.95C93.9286 33.31 94.0953 33.8067 94.0953 34.44V36.05C94.0953 36.47 94.0186 36.8333 93.8653 37.14C93.7186 37.4467 93.5086 37.6833 93.2353 37.85C92.9686 38.0167 92.6486 38.1 92.2753 38.1C91.8286 38.1 91.4653 37.9767 91.1853 37.73C90.9053 37.4833 90.7653 37.1533 90.7653 36.74L90.9453 36.95H90.7453L90.7653 38.2V39.8H89.8653ZM91.9753 37.32C92.3553 37.32 92.652 37.2067 92.8653 36.98C93.0853 36.7533 93.1953 36.4267 93.1953 36V34.5C93.1953 34.0733 93.0853 33.7467 92.8653 33.52C92.652 33.2933 92.3553 33.18 91.9753 33.18C91.6086 33.18 91.3153 33.2967 91.0953 33.53C90.8753 33.7633 90.7653 34.0867 90.7653 34.5V36C90.7653 36.4133 90.8753 36.7367 91.0953 36.97C91.3153 37.2033 91.6086 37.32 91.9753 37.32ZM98.6914 38C98.3714 38 98.0914 37.9367 97.8514 37.81C97.6114 37.6833 97.4247 37.5033 97.2914 37.27C97.1581 37.0367 97.0914 36.7633 97.0914 36.45V31.52H95.2414V30.7H97.9914V36.45C97.9914 36.6767 98.0547 36.8567 98.1814 36.99C98.3081 37.1167 98.4781 37.18 98.6914 37.18H100.441V38H98.6914ZM103.458 38.1C102.878 38.1 102.421 37.9533 102.088 37.66C101.754 37.36 101.588 36.9567 101.588 36.45C101.588 35.9367 101.754 35.5333 102.088 35.24C102.421 34.9467 102.871 34.8 103.438 34.8H105.138V34.25C105.138 33.91 105.034 33.65 104.828 33.47C104.628 33.2833 104.341 33.19 103.968 33.19C103.641 33.19 103.368 33.26 103.148 33.4C102.928 33.5333 102.801 33.7167 102.768 33.95H101.868C101.928 33.4767 102.151 33.1 102.538 32.82C102.924 32.54 103.408 32.4 103.988 32.4C104.621 32.4 105.121 32.5633 105.488 32.89C105.854 33.2167 106.038 33.66 106.038 34.22V38H105.158V36.95H105.008L105.158 36.8C105.158 37.2 105.001 37.5167 104.688 37.75C104.381 37.9833 103.971 38.1 103.458 38.1ZM103.678 37.39C104.104 37.39 104.454 37.2833 104.728 37.07C105.001 36.8567 105.138 36.5833 105.138 36.25V35.47H103.458C103.158 35.47 102.921 35.5533 102.748 35.72C102.574 35.8867 102.488 36.1133 102.488 36.4C102.488 36.7067 102.591 36.95 102.798 37.13C103.011 37.3033 103.304 37.39 103.678 37.39ZM110.534 38C110.06 38 109.69 37.8733 109.424 37.62C109.164 37.3667 109.034 37.01 109.034 36.55V33.32H107.484V32.5H109.034V30.95H109.934V32.5H112.134V33.32H109.934V36.55C109.934 36.97 110.134 37.18 110.534 37.18H112.034V38H110.534ZM115.93 38.1C115.496 38.1 115.116 38.0133 114.79 37.84C114.47 37.6667 114.22 37.4233 114.04 37.11C113.866 36.79 113.78 36.42 113.78 36V34.5C113.78 34.0733 113.866 33.7033 114.04 33.39C114.22 33.0767 114.47 32.8333 114.79 32.66C115.116 32.4867 115.496 32.4 115.93 32.4C116.363 32.4 116.74 32.4867 117.06 32.66C117.386 32.8333 117.636 33.0767 117.81 33.39C117.99 33.7033 118.08 34.0733 118.08 34.5V35.47H114.66V36C114.66 36.4333 114.77 36.7667 114.99 37C115.21 37.2267 115.523 37.34 115.93 37.34C116.276 37.34 116.556 37.28 116.77 37.16C116.983 37.0333 117.113 36.8467 117.16 36.6H118.06C118 37.06 117.773 37.4267 117.38 37.7C116.993 37.9667 116.51 38.1 115.93 38.1ZM117.2 34.87V34.5C117.2 34.0667 117.09 33.7333 116.87 33.5C116.656 33.2667 116.343 33.15 115.93 33.15C115.523 33.15 115.21 33.2667 114.99 33.5C114.77 33.7333 114.66 34.0667 114.66 34.5V34.79H117.27L117.2 34.87ZM121.756 38.08C121.382 38.08 121.056 38.0233 120.776 37.91C120.502 37.79 120.282 37.6233 120.116 37.41C119.956 37.1967 119.859 36.9433 119.826 36.65H120.726C120.766 36.8433 120.872 36.9967 121.046 37.11C121.226 37.2233 121.462 37.28 121.756 37.28H122.176C122.529 37.28 122.792 37.21 122.966 37.07C123.139 36.9233 123.226 36.73 123.226 36.49C123.226 36.2567 123.146 36.0733 122.986 35.94C122.832 35.8 122.602 35.7067 122.296 35.66L121.556 35.54C121.016 35.4467 120.612 35.28 120.346 35.04C120.086 34.7933 119.956 34.4367 119.956 33.97C119.956 33.4767 120.112 33.0967 120.426 32.83C120.739 32.5567 121.209 32.42 121.836 32.42H122.216C122.742 32.42 123.166 32.5433 123.486 32.79C123.806 33.0367 123.999 33.37 124.066 33.79H123.166C123.126 33.6167 123.026 33.48 122.866 33.38C122.706 33.2733 122.489 33.22 122.216 33.22H121.836C121.496 33.22 121.246 33.2833 121.086 33.41C120.932 33.5367 120.856 33.7267 120.856 33.98C120.856 34.2067 120.922 34.3733 121.056 34.48C121.189 34.5867 121.399 34.6633 121.686 34.71L122.426 34.83C123.019 34.9233 123.449 35.0967 123.716 35.35C123.989 35.6033 124.126 35.97 124.126 36.45C124.126 36.9567 123.962 37.3567 123.636 37.65C123.316 37.9367 122.829 38.08 122.176 38.08H121.756ZM128.072 33.35L128.872 30.24H130.172L128.872 33.35H128.072ZM125.772 33.35L126.572 30.24H127.872L126.572 33.35H125.772ZM32.0344 46.35L33.3344 43.24H34.1344L33.3344 46.35H32.0344ZM29.7344 46.35L31.0344 43.24H31.8344L31.0344 46.35H29.7344ZM35.9005 51V43.7H36.8005V45.5V46.55H36.9905L36.8005 46.76C36.8005 46.3267 36.9305 45.9933 37.1905 45.76C37.4505 45.52 37.8105 45.4 38.2705 45.4C38.8238 45.4 39.2638 45.57 39.5905 45.91C39.9171 46.25 40.0805 46.7133 40.0805 47.3V51H39.1805V47.4C39.1805 47.0067 39.0738 46.7033 38.8605 46.49C38.6538 46.27 38.3705 46.16 38.0105 46.16C37.6371 46.16 37.3405 46.2767 37.1205 46.51C36.9071 46.7433 36.8005 47.0733 36.8005 47.5V51H35.9005ZM44.5766 51C44.1032 51 43.7332 50.8733 43.4666 50.62C43.2066 50.3667 43.0766 50.01 43.0766 49.55V46.32H41.5266V45.5H43.0766V43.95H43.9766V45.5H46.1766V46.32H43.9766V49.55C43.9766 49.97 44.1766 50.18 44.5766 50.18H46.0766V51H44.5766ZM47.6327 51V45.5H48.4227V46.16H48.6027L48.4627 46.4C48.4627 46.0933 48.5427 45.85 48.7027 45.67C48.8693 45.49 49.0927 45.4 49.3727 45.4C49.6793 45.4 49.916 45.5133 50.0827 45.74C50.2493 45.9667 50.3327 46.2867 50.3327 46.7L50.0627 46.16H50.4827L50.2927 46.4C50.2927 46.0933 50.376 45.85 50.5427 45.67C50.716 45.49 50.9427 45.4 51.2227 45.4C51.5693 45.4 51.836 45.53 52.0227 45.79C52.216 46.05 52.3127 46.3933 52.3127 46.82V51H51.4827V46.81C51.4827 46.5833 51.4327 46.4067 51.3327 46.28C51.2393 46.1533 51.0993 46.09 50.9127 46.09C50.7327 46.09 50.5893 46.1533 50.4827 46.28C50.3827 46.4 50.3327 46.5733 50.3327 46.8V51H49.6127V46.81C49.6127 46.5767 49.5593 46.4 49.4527 46.28C49.3527 46.1533 49.2093 46.09 49.0227 46.09C48.836 46.09 48.696 46.1533 48.6027 46.28C48.5093 46.4 48.4627 46.5733 48.4627 46.8V51H47.6327ZM56.7188 51C56.3988 51 56.1188 50.9367 55.8788 50.81C55.6388 50.6833 55.4521 50.5033 55.3188 50.27C55.1854 50.0367 55.1188 49.7633 55.1188 49.45V44.52H53.2688V43.7H56.0188V49.45C56.0188 49.6767 56.0821 49.8567 56.2088 49.99C56.3354 50.1167 56.5054 50.18 56.7188 50.18H58.4688V51H56.7188ZM62.1148 46.35L62.9148 43.24H64.2148L62.9148 46.35H62.1148ZM59.8148 46.35L60.6148 43.24H61.9148L60.6148 46.35H59.8148ZM32.0344 59.35L33.3344 56.24H34.1344L33.3344 59.35H32.0344ZM29.7344 59.35L31.0344 56.24H31.8344L31.0344 59.35H29.7344ZM35.9005 65.8V58.5H36.8005V59.55H36.9805L36.8005 59.76C36.8005 59.34 36.9371 59.01 37.2105 58.77C37.4905 58.5233 37.8571 58.4 38.3105 58.4C38.8638 58.4 39.3038 58.5833 39.6305 58.95C39.9638 59.31 40.1305 59.8067 40.1305 60.44V62.05C40.1305 62.47 40.0538 62.8333 39.9005 63.14C39.7538 63.4467 39.5438 63.6833 39.2705 63.85C39.0038 64.0167 38.6838 64.1 38.3105 64.1C37.8638 64.1 37.5005 63.9767 37.2205 63.73C36.9405 63.4833 36.8005 63.1533 36.8005 62.74L36.9805 62.95H36.7805L36.8005 64.2V65.8H35.9005ZM38.0105 63.32C38.3905 63.32 38.6871 63.2067 38.9005 62.98C39.1205 62.7533 39.2305 62.4267 39.2305 62V60.5C39.2305 60.0733 39.1205 59.7467 38.9005 59.52C38.6871 59.2933 38.3905 59.18 38.0105 59.18C37.6438 59.18 37.3505 59.2967 37.1305 59.53C36.9105 59.7633 36.8005 60.0867 36.8005 60.5V62C36.8005 62.4133 36.9105 62.7367 37.1305 62.97C37.3505 63.2033 37.6438 63.32 38.0105 63.32ZM42.7566 65.8L43.5666 63.66L41.5266 58.5H42.5266L43.8066 61.9C43.8532 62.0133 43.8966 62.15 43.9366 62.31C43.9766 62.4633 44.0099 62.5933 44.0366 62.7C44.0632 62.5933 44.0966 62.4633 44.1366 62.31C44.1766 62.15 44.2166 62.0133 44.2566 61.9L45.4566 58.5H46.4266L43.7166 65.8H42.7566ZM50.1227 59.35L50.9227 56.24H52.2227L50.9227 59.35H50.1227ZM47.8227 59.35L48.6227 56.24H49.9227L48.6227 59.35H47.8227ZM32.0344 72.35L33.3344 69.24H34.1344L33.3344 72.35H32.0344ZM29.7344 72.35L31.0344 69.24H31.8344L31.0344 72.35H29.7344ZM36.5905 78.8V77.98H38.3405C38.6205 77.98 38.8238 77.9167 38.9505 77.79C39.0838 77.6633 39.1505 77.4667 39.1505 77.2V76.5L39.1705 75.5H38.9905L39.1605 75.35C39.1605 75.75 39.0271 76.0667 38.7605 76.3C38.4938 76.5333 38.1371 76.65 37.6905 76.65C37.1238 76.65 36.6771 76.4667 36.3505 76.1C36.0238 75.7267 35.8605 75.2267 35.8605 74.6V73.44C35.8605 72.8133 36.0238 72.3167 36.3505 71.95C36.6771 71.5833 37.1238 71.4 37.6905 71.4C38.1371 71.4 38.4938 71.5167 38.7605 71.75C39.0271 71.9833 39.1605 72.3 39.1605 72.7L38.9905 72.55H39.1605V71.5H40.0505V77.2C40.0505 77.6933 39.8971 78.0833 39.5905 78.37C39.2905 78.6567 38.8705 78.8 38.3305 78.8H36.5905ZM37.9605 75.87C38.3338 75.87 38.6271 75.7533 38.8405 75.52C39.0538 75.2867 39.1605 74.9633 39.1605 74.55V73.5C39.1605 73.0867 39.0538 72.7633 38.8405 72.53C38.6271 72.2967 38.3338 72.18 37.9605 72.18C37.5805 72.18 37.2838 72.2933 37.0705 72.52C36.8638 72.7467 36.7605 73.0733 36.7605 73.5V74.55C36.7605 74.9767 36.8638 75.3033 37.0705 75.53C37.2838 75.7567 37.5805 75.87 37.9605 75.87ZM41.8266 77V76.18H43.7766V72.32H42.0766V71.5H44.6766V76.18H46.5266V77H41.8266ZM44.1266 70.51C43.9066 70.51 43.7332 70.4533 43.6066 70.34C43.4799 70.2267 43.4166 70.0733 43.4166 69.88C43.4166 69.68 43.4799 69.5233 43.6066 69.41C43.7332 69.29 43.9066 69.23 44.1266 69.23C44.3466 69.23 44.5199 69.29 44.6466 69.41C44.7732 69.5233 44.8366 69.68 44.8366 69.88C44.8366 70.0733 44.7732 70.2267 44.6466 70.34C44.5199 70.4533 44.3466 70.51 44.1266 70.51ZM50.5727 77C50.0993 77 49.7293 76.8733 49.4627 76.62C49.2027 76.3667 49.0727 76.01 49.0727 75.55V72.32H47.5227V71.5H49.0727V69.95H49.9727V71.5H52.1727V72.32H49.9727V75.55C49.9727 75.97 50.1727 76.18 50.5727 76.18H52.0727V77H50.5727ZM56.1188 72.35L56.9188 69.24H58.2188L56.9188 72.35H56.1188ZM53.8188 72.35L54.6188 69.24H55.9188L54.6188 72.35H53.8188ZM32.0344 85.35L33.3344 82.24H34.1344L33.3344 85.35H32.0344ZM29.7344 85.35L31.0344 82.24H31.8344L31.0344 85.35H29.7344ZM35.6405 90V84.5H36.4305V85.16H36.6105L36.4705 85.4C36.4705 85.0933 36.5505 84.85 36.7105 84.67C36.8771 84.49 37.1005 84.4 37.3805 84.4C37.6871 84.4 37.9238 84.5133 38.0905 84.74C38.2571 84.9667 38.3405 85.2867 38.3405 85.7L38.0705 85.16H38.4905L38.3005 85.4C38.3005 85.0933 38.3838 84.85 38.5505 84.67C38.7238 84.49 38.9505 84.4 39.2305 84.4C39.5771 84.4 39.8438 84.53 40.0305 84.79C40.2238 85.05 40.3205 85.3933 40.3205 85.82V90H39.4905V85.81C39.4905 85.5833 39.4405 85.4067 39.3405 85.28C39.2471 85.1533 39.1071 85.09 38.9205 85.09C38.7405 85.09 38.5971 85.1533 38.4905 85.28C38.3905 85.4 38.3405 85.5733 38.3405 85.8V90H37.6205V85.81C37.6205 85.5767 37.5671 85.4 37.4605 85.28C37.3605 85.1533 37.2171 85.09 37.0305 85.09C36.8438 85.09 36.7038 85.1533 36.6105 85.28C36.5171 85.4 36.4705 85.5733 36.4705 85.8V90H35.6405ZM43.9766 90.1C43.5432 90.1 43.1632 90.0133 42.8366 89.84C42.5166 89.6667 42.2666 89.4233 42.0866 89.11C41.9132 88.79 41.8266 88.42 41.8266 88V86.5C41.8266 86.0733 41.9132 85.7033 42.0866 85.39C42.2666 85.0767 42.5166 84.8333 42.8366 84.66C43.1632 84.4867 43.5432 84.4 43.9766 84.4C44.4099 84.4 44.7866 84.4867 45.1066 84.66C45.4332 84.8333 45.6832 85.0767 45.8566 85.39C46.0366 85.7033 46.1266 86.0733 46.1266 86.5V87.47H42.7066V88C42.7066 88.4333 42.8166 88.7667 43.0366 89C43.2566 89.2267 43.5699 89.34 43.9766 89.34C44.3232 89.34 44.6032 89.28 44.8166 89.16C45.0299 89.0333 45.1599 88.8467 45.2066 88.6H46.1066C46.0466 89.06 45.8199 89.4267 45.4266 89.7C45.0399 89.9667 44.5566 90.1 43.9766 90.1ZM45.2466 86.87V86.5C45.2466 86.0667 45.1366 85.7333 44.9166 85.5C44.7032 85.2667 44.3899 85.15 43.9766 85.15C43.5699 85.15 43.2566 85.2667 43.0366 85.5C42.8166 85.7333 42.7066 86.0667 42.7066 86.5V86.79H45.3166L45.2466 86.87ZM50.1227 85.35L50.9227 82.24H52.2227L50.9227 85.35H50.1227ZM47.8227 85.35L48.6227 82.24H49.9227L48.6227 85.35H47.8227Z" fill="#87FFF5"/>
<path d="M133.918 33.9C133.671 33.9 133.471 33.8333 133.318 33.7C133.165 33.56 133.088 33.3767 133.088 33.15C133.088 32.9233 133.165 32.7433 133.318 32.61C133.471 32.47 133.671 32.4 133.918 32.4C134.171 32.4 134.371 32.47 134.518 32.61C134.671 32.7433 134.748 32.9233 134.748 33.15C134.748 33.3767 134.671 33.56 134.518 33.7C134.371 33.8333 134.171 33.9 133.918 33.9ZM133.918 38.1C133.671 38.1 133.471 38.0333 133.318 37.9C133.165 37.76 133.088 37.5767 133.088 37.35C133.088 37.1233 133.165 36.9433 133.318 36.81C133.471 36.67 133.671 36.6 133.918 36.6C134.171 36.6 134.371 36.67 134.518 36.81C134.671 36.9433 134.748 37.1233 134.748 37.35C134.748 37.5767 134.671 37.76 134.518 37.9C134.371 38.0333 134.171 38.1 133.918 38.1ZM147.61 39.1C147.217 39.1 146.877 39.0333 146.59 38.9C146.31 38.7733 146.097 38.5833 145.95 38.33C145.803 38.0833 145.74 37.7867 145.76 37.44L145.86 35.8C145.88 35.4467 145.827 35.1933 145.7 35.04C145.573 34.88 145.293 34.8 144.86 34.8H143.76V34H144.86C145.293 34 145.573 33.9233 145.7 33.77C145.827 33.61 145.88 33.3533 145.86 33L145.76 31.36C145.74 31.0067 145.803 30.7067 145.95 30.46C146.097 30.2133 146.31 30.0267 146.59 29.9C146.877 29.7667 147.217 29.7 147.61 29.7H148.06V30.5H147.61C147.297 30.5 147.057 30.5733 146.89 30.72C146.723 30.86 146.647 31.0733 146.66 31.36L146.76 33C146.787 33.4333 146.683 33.78 146.45 34.04C146.217 34.2933 145.887 34.42 145.46 34.42V34.37C145.88 34.37 146.207 34.5 146.44 34.76C146.68 35.02 146.787 35.3667 146.76 35.8L146.66 37.44C146.647 37.7267 146.723 37.94 146.89 38.08C147.057 38.2267 147.297 38.3 147.61 38.3H148.06V39.1H147.61ZM67.9609 46.9C67.7143 46.9 67.5143 46.8333 67.3609 46.7C67.2076 46.56 67.1309 46.3767 67.1309 46.15C67.1309 45.9233 67.2076 45.7433 67.3609 45.61C67.5143 45.47 67.7143 45.4 67.9609 45.4C68.2143 45.4 68.4143 45.47 68.5609 45.61C68.7143 45.7433 68.7909 45.9233 68.7909 46.15C68.7909 46.3767 68.7143 46.56 68.5609 46.7C68.4143 46.8333 68.2143 46.9 67.9609 46.9ZM67.9609 51.1C67.7143 51.1 67.5143 51.0333 67.3609 50.9C67.2076 50.76 67.1309 50.5767 67.1309 50.35C67.1309 50.1233 67.2076 49.9433 67.3609 49.81C67.5143 49.67 67.7143 49.6 67.9609 49.6C68.2143 49.6 68.4143 49.67 68.5609 49.81C68.7143 49.9433 68.7909 50.1233 68.7909 50.35C68.7909 50.5767 68.7143 50.76 68.5609 50.9C68.4143 51.0333 68.2143 51.1 67.9609 51.1ZM264.482 52.6L265.282 49.49H266.582L265.282 52.6H264.482ZM67.9609 59.9C67.7143 59.9 67.5143 59.8333 67.3609 59.7C67.2076 59.56 67.1309 59.3767 67.1309 59.15C67.1309 58.9233 67.2076 58.7433 67.3609 58.61C67.5143 58.47 67.7143 58.4 67.9609 58.4C68.2143 58.4 68.4143 58.47 68.5609 58.61C68.7143 58.7433 68.7909 58.9233 68.7909 59.15C68.7909 59.3767 68.7143 59.56 68.5609 59.7C68.4143 59.8333 68.2143 59.9 67.9609 59.9ZM67.9609 64.1C67.7143 64.1 67.5143 64.0333 67.3609 63.9C67.2076 63.76 67.1309 63.5767 67.1309 63.35C67.1309 63.1233 67.2076 62.9433 67.3609 62.81C67.5143 62.67 67.7143 62.6 67.9609 62.6C68.2143 62.6 68.4143 62.67 68.5609 62.81C68.7143 62.9433 68.7909 63.1233 68.7909 63.35C68.7909 63.5767 68.7143 63.76 68.5609 63.9C68.4143 64.0333 68.2143 64.1 67.9609 64.1ZM234.502 65.6L235.302 62.49H236.602L235.302 65.6H234.502ZM67.9609 72.9C67.7143 72.9 67.5143 72.8333 67.3609 72.7C67.2076 72.56 67.1309 72.3767 67.1309 72.15C67.1309 71.9233 67.2076 71.7433 67.3609 71.61C67.5143 71.47 67.7143 71.4 67.9609 71.4C68.2143 71.4 68.4143 71.47 68.5609 71.61C68.7143 71.7433 68.7909 71.9233 68.7909 72.15C68.7909 72.3767 68.7143 72.56 68.5609 72.7C68.4143 72.8333 68.2143 72.9 67.9609 72.9ZM67.9609 77.1C67.7143 77.1 67.5143 77.0333 67.3609 76.9C67.2076 76.76 67.1309 76.5767 67.1309 76.35C67.1309 76.1233 67.2076 75.9433 67.3609 75.81C67.5143 75.67 67.7143 75.6 67.9609 75.6C68.2143 75.6 68.4143 75.67 68.5609 75.81C68.7143 75.9433 68.7909 76.1233 68.7909 76.35C68.7909 76.5767 68.7143 76.76 68.5609 76.9C68.4143 77.0333 68.2143 77.1 67.9609 77.1ZM276.474 78.6L277.274 75.49H278.574L277.274 78.6H276.474ZM67.9609 85.9C67.7143 85.9 67.5143 85.8333 67.3609 85.7C67.2076 85.56 67.1309 85.3767 67.1309 85.15C67.1309 84.9233 67.2076 84.7433 67.3609 84.61C67.5143 84.47 67.7143 84.4 67.9609 84.4C68.2143 84.4 68.4143 84.47 68.5609 84.61C68.7143 84.7433 68.7909 84.9233 68.7909 85.15C68.7909 85.3767 68.7143 85.56 68.5609 85.7C68.4143 85.8333 68.2143 85.9 67.9609 85.9ZM67.9609 90.1C67.7143 90.1 67.5143 90.0333 67.3609 89.9C67.2076 89.76 67.1309 89.5767 67.1309 89.35C67.1309 89.1233 67.2076 88.9433 67.3609 88.81C67.5143 88.67 67.7143 88.6 67.9609 88.6C68.2143 88.6 68.4143 88.67 68.5609 88.81C68.7143 88.9433 68.7909 89.1233 68.7909 89.35C68.7909 89.5767 68.7143 89.76 68.5609 89.9C68.4143 90.0333 68.2143 90.1 67.9609 90.1ZM5.85 104.1V103.3H6.3C6.61333 103.3 6.85333 103.227 7.02 103.08C7.18667 102.94 7.26333 102.727 7.25 102.44L7.15 100.8C7.12333 100.367 7.22667 100.02 7.46 99.76C7.7 99.5 8.03 99.37 8.45 99.37V99.42C8.02333 99.42 7.69333 99.2933 7.46 99.04C7.22667 98.78 7.12333 98.4333 7.15 98L7.25 96.36C7.26333 96.0733 7.18667 95.86 7.02 95.72C6.85333 95.5733 6.61333 95.5 6.3 95.5H5.85V94.7H6.3C6.69333 94.7 7.03 94.7667 7.31 94.9C7.59667 95.0267 7.81333 95.2133 7.96 95.46C8.10667 95.7067 8.17 96.0067 8.15 96.36L8.05 98C8.03 98.3533 8.08333 98.61 8.21 98.77C8.33667 98.9233 8.61667 99 9.05 99H10.15V99.8H9.05C8.62333 99.8 8.34333 99.88 8.21 100.04C8.08333 100.193 8.03 100.447 8.05 100.8L8.15 102.44C8.17 102.787 8.10667 103.083 7.96 103.33C7.81333 103.583 7.59667 103.773 7.31 103.9C7.03 104.033 6.69333 104.1 6.3 104.1H5.85Z" fill="#FF6188"/>
<path d="M80.0031 46.35L81.3031 43.24H82.1031L81.3031 46.35H80.0031ZM77.7031 46.35L79.0031 43.24H79.8031L79.0031 46.35H77.7031ZM83.7992 51V50.18H85.7492V46.32H84.0492V45.5H86.6492V50.18H88.4992V51H83.7992ZM86.0992 44.51C85.8792 44.51 85.7059 44.4533 85.5792 44.34C85.4526 44.2267 85.3892 44.0733 85.3892 43.88C85.3892 43.68 85.4526 43.5233 85.5792 43.41C85.7059 43.29 85.8792 43.23 86.0992 43.23C86.3192 43.23 86.4926 43.29 86.6192 43.41C86.7459 43.5233 86.8092 43.68 86.8092 43.88C86.8092 44.0733 86.7459 44.2267 86.6192 44.34C86.4926 44.4533 86.3192 44.51 86.0992 44.51ZM89.8653 51V45.5H90.7653V46.55H90.9553L90.7653 46.76C90.7653 46.3267 90.8953 45.9933 91.1553 45.76C91.4153 45.52 91.7753 45.4 92.2353 45.4C92.7886 45.4 93.2286 45.57 93.5553 45.91C93.882 46.25 94.0453 46.7133 94.0453 47.3V51H93.1453V47.4C93.1453 47.0067 93.0386 46.7067 92.8253 46.5C92.6186 46.2867 92.3353 46.18 91.9753 46.18C91.602 46.18 91.3053 46.2933 91.0853 46.52C90.872 46.7467 90.7653 47.0733 90.7653 47.5V51H89.8653ZM97.6214 51.1C97.0747 51.1 96.6314 50.9167 96.2914 50.55C95.9581 50.1833 95.7914 49.6867 95.7914 49.06V47.45C95.7914 46.8167 95.9581 46.3167 96.2914 45.95C96.6247 45.5833 97.0681 45.4 97.6214 45.4C98.0747 45.4 98.4381 45.5233 98.7114 45.77C98.9847 46.0167 99.1214 46.3467 99.1214 46.76L98.9414 46.55H99.1414L99.1214 45.3V43.7H100.021V51H99.1214V49.95H98.9414L99.1214 49.74C99.1214 50.16 98.9847 50.4933 98.7114 50.74C98.4381 50.98 98.0747 51.1 97.6214 51.1ZM97.9214 50.32C98.2947 50.32 98.5881 50.2033 98.8014 49.97C99.0147 49.7367 99.1214 49.4133 99.1214 49V47.5C99.1214 47.0867 99.0147 46.7633 98.8014 46.53C98.5881 46.2967 98.2947 46.18 97.9214 46.18C97.5414 46.18 97.2414 46.2933 97.0214 46.52C96.8014 46.7467 96.6914 47.0733 96.6914 47.5V49C96.6914 49.4267 96.8014 49.7533 97.0214 49.98C97.2414 50.2067 97.5414 50.32 97.9214 50.32ZM103.938 51.1C103.504 51.1 103.124 51.0133 102.798 50.84C102.478 50.6667 102.228 50.4233 102.048 50.11C101.874 49.79 101.788 49.42 101.788 49V47.5C101.788 47.0733 101.874 46.7033 102.048 46.39C102.228 46.0767 102.478 45.8333 102.798 45.66C103.124 45.4867 103.504 45.4 103.938 45.4C104.371 45.4 104.748 45.4867 105.068 45.66C105.394 45.8333 105.644 46.0767 105.818 46.39C105.998 46.7033 106.088 47.0733 106.088 47.5V48.47H102.668V49C102.668 49.4333 102.778 49.7667 102.998 50C103.218 50.2267 103.531 50.34 103.938 50.34C104.284 50.34 104.564 50.28 104.778 50.16C104.991 50.0333 105.121 49.8467 105.168 49.6H106.068C106.008 50.06 105.781 50.4267 105.388 50.7C105.001 50.9667 104.518 51.1 103.938 51.1ZM105.208 47.87V47.5C105.208 47.0667 105.098 46.7333 104.878 46.5C104.664 46.2667 104.351 46.15 103.938 46.15C103.531 46.15 103.218 46.2667 102.998 46.5C102.778 46.7333 102.668 47.0667 102.668 47.5V47.79H105.278L105.208 47.87ZM107.434 51L109.384 48.17L107.554 45.5H108.614L109.704 47.2C109.75 47.2733 109.794 47.3533 109.834 47.44C109.88 47.5267 109.917 47.5967 109.944 47.65C109.964 47.5967 109.994 47.5267 110.034 47.44C110.08 47.3533 110.127 47.2733 110.174 47.2L111.274 45.5H112.324L110.494 48.18L112.434 51H111.374L110.194 49.2C110.147 49.1267 110.1 49.0433 110.054 48.95C110.014 48.85 109.977 48.77 109.944 48.71C109.917 48.77 109.877 48.85 109.824 48.95C109.777 49.0433 109.727 49.1267 109.674 49.2L108.484 51H107.434ZM115.93 51.1C115.676 51.1 115.473 51.0267 115.32 50.88C115.173 50.7333 115.1 50.5367 115.1 50.29C115.1 50.03 115.173 49.8233 115.32 49.67C115.473 49.5167 115.676 49.44 115.93 49.44C116.183 49.44 116.383 49.5167 116.53 49.67C116.683 49.8233 116.76 50.03 116.76 50.29C116.76 50.5367 116.683 50.7333 116.53 50.88C116.383 51.0267 116.183 51.1 115.93 51.1ZM119.846 51V43.7H120.746V45.5V46.55H120.936L120.746 46.76C120.746 46.3267 120.876 45.9933 121.136 45.76C121.396 45.52 121.756 45.4 122.216 45.4C122.769 45.4 123.209 45.57 123.536 45.91C123.862 46.25 124.026 46.7133 124.026 47.3V51H123.126V47.4C123.126 47.0067 123.019 46.7033 122.806 46.49C122.599 46.27 122.316 46.16 121.956 46.16C121.582 46.16 121.286 46.2767 121.066 46.51C120.852 46.7433 120.746 47.0733 120.746 47.5V51H119.846ZM128.522 51C128.049 51 127.679 50.8733 127.412 50.62C127.152 50.3667 127.022 50.01 127.022 49.55V46.32H125.472V45.5H127.022V43.95H127.922V45.5H130.122V46.32H127.922V49.55C127.922 49.97 128.122 50.18 128.522 50.18H130.022V51H128.522ZM131.578 51V45.5H132.368V46.16H132.548L132.408 46.4C132.408 46.0933 132.488 45.85 132.648 45.67C132.815 45.49 133.038 45.4 133.318 45.4C133.625 45.4 133.861 45.5133 134.028 45.74C134.195 45.9667 134.278 46.2867 134.278 46.7L134.008 46.16H134.428L134.238 46.4C134.238 46.0933 134.321 45.85 134.488 45.67C134.661 45.49 134.888 45.4 135.168 45.4C135.515 45.4 135.781 45.53 135.968 45.79C136.161 46.05 136.258 46.3933 136.258 46.82V51H135.428V46.81C135.428 46.5833 135.378 46.4067 135.278 46.28C135.185 46.1533 135.045 46.09 134.858 46.09C134.678 46.09 134.535 46.1533 134.428 46.28C134.328 46.4 134.278 46.5733 134.278 46.8V51H133.558V46.81C133.558 46.5767 133.505 46.4 133.398 46.28C133.298 46.1533 133.155 46.09 132.968 46.09C132.781 46.09 132.641 46.1533 132.548 46.28C132.455 46.4 132.408 46.5733 132.408 46.8V51H131.578ZM140.664 51C140.344 51 140.064 50.9367 139.824 50.81C139.584 50.6833 139.397 50.5033 139.264 50.27C139.131 50.0367 139.064 49.7633 139.064 49.45V44.52H137.214V43.7H139.964V49.45C139.964 49.6767 140.027 49.8567 140.154 49.99C140.281 50.1167 140.451 50.18 140.664 50.18H142.414V51H140.664ZM145.47 50.05V48.1H143.56V47.3H145.47V45.35H146.35V47.3H148.26V48.1H146.35V50.05H145.47ZM151.736 51.08C151.363 51.08 151.036 51.0233 150.756 50.91C150.483 50.79 150.263 50.6233 150.096 50.41C149.936 50.1967 149.84 49.9433 149.806 49.65H150.706C150.746 49.8433 150.853 49.9967 151.026 50.11C151.206 50.2233 151.443 50.28 151.736 50.28H152.156C152.51 50.28 152.773 50.21 152.946 50.07C153.12 49.9233 153.206 49.73 153.206 49.49C153.206 49.2567 153.126 49.0733 152.966 48.94C152.813 48.8 152.583 48.7067 152.276 48.66L151.536 48.54C150.996 48.4467 150.593 48.28 150.326 48.04C150.066 47.7933 149.936 47.4367 149.936 46.97C149.936 46.4767 150.093 46.0967 150.406 45.83C150.72 45.5567 151.19 45.42 151.816 45.42H152.196C152.723 45.42 153.146 45.5433 153.466 45.79C153.786 46.0367 153.98 46.37 154.046 46.79H153.146C153.106 46.6167 153.006 46.48 152.846 46.38C152.686 46.2733 152.47 46.22 152.196 46.22H151.816C151.476 46.22 151.226 46.2833 151.066 46.41C150.913 46.5367 150.836 46.7267 150.836 46.98C150.836 47.2067 150.903 47.3733 151.036 47.48C151.17 47.5867 151.38 47.6633 151.666 47.71L152.406 47.83C153 47.9233 153.43 48.0967 153.696 48.35C153.97 48.6033 154.106 48.97 154.106 49.45C154.106 49.9567 153.943 50.3567 153.616 50.65C153.296 50.9367 152.81 51.08 152.156 51.08H151.736ZM158.502 51C158.029 51 157.659 50.8733 157.392 50.62C157.132 50.3667 157.002 50.01 157.002 49.55V46.32H155.452V45.5H157.002V43.95H157.902V45.5H160.102V46.32H157.902V49.55C157.902 49.97 158.102 50.18 158.502 50.18H160.002V51H158.502ZM162.678 52.8L163.488 50.66L161.448 45.5H162.448L163.728 48.9C163.775 49.0133 163.818 49.15 163.858 49.31C163.898 49.4633 163.932 49.5933 163.958 49.7C163.985 49.5933 164.018 49.4633 164.058 49.31C164.098 49.15 164.138 49.0133 164.178 48.9L165.378 45.5H166.348L163.638 52.8H162.678ZM170.645 51C170.325 51 170.045 50.9367 169.805 50.81C169.565 50.6833 169.378 50.5033 169.245 50.27C169.111 50.0367 169.045 49.7633 169.045 49.45V44.52H167.195V43.7H169.945V49.45C169.945 49.6767 170.008 49.8567 170.135 49.99C170.261 50.1167 170.431 50.18 170.645 50.18H172.395V51H170.645ZM175.891 51.1C175.457 51.1 175.077 51.0133 174.751 50.84C174.431 50.6667 174.181 50.4233 174.001 50.11C173.827 49.79 173.741 49.42 173.741 49V47.5C173.741 47.0733 173.827 46.7033 174.001 46.39C174.181 46.0767 174.431 45.8333 174.751 45.66C175.077 45.4867 175.457 45.4 175.891 45.4C176.324 45.4 176.701 45.4867 177.021 45.66C177.347 45.8333 177.597 46.0767 177.771 46.39C177.951 46.7033 178.041 47.0733 178.041 47.5V48.47H174.621V49C174.621 49.4333 174.731 49.7667 174.951 50C175.171 50.2267 175.484 50.34 175.891 50.34C176.237 50.34 176.517 50.28 176.731 50.16C176.944 50.0333 177.074 49.8467 177.121 49.6H178.021C177.961 50.06 177.734 50.4267 177.341 50.7C176.954 50.9667 176.471 51.1 175.891 51.1ZM177.161 47.87V47.5C177.161 47.0667 177.051 46.7333 176.831 46.5C176.617 46.2667 176.304 46.15 175.891 46.15C175.484 46.15 175.171 46.2667 174.951 46.5C174.731 46.7333 174.621 47.0667 174.621 47.5V47.79H177.231L177.161 47.87ZM181.717 51.08C181.343 51.08 181.017 51.0233 180.737 50.91C180.463 50.79 180.243 50.6233 180.077 50.41C179.917 50.1967 179.82 49.9433 179.787 49.65H180.687C180.727 49.8433 180.833 49.9967 181.007 50.11C181.187 50.2233 181.423 50.28 181.717 50.28H182.137C182.49 50.28 182.753 50.21 182.927 50.07C183.1 49.9233 183.187 49.73 183.187 49.49C183.187 49.2567 183.107 49.0733 182.947 48.94C182.793 48.8 182.563 48.7067 182.257 48.66L181.517 48.54C180.977 48.4467 180.573 48.28 180.307 48.04C180.047 47.7933 179.917 47.4367 179.917 46.97C179.917 46.4767 180.073 46.0967 180.387 45.83C180.7 45.5567 181.17 45.42 181.797 45.42H182.177C182.703 45.42 183.127 45.5433 183.447 45.79C183.767 46.0367 183.96 46.37 184.027 46.79H183.127C183.087 46.6167 182.987 46.48 182.827 46.38C182.667 46.2733 182.45 46.22 182.177 46.22H181.797C181.457 46.22 181.207 46.2833 181.047 46.41C180.893 46.5367 180.817 46.7267 180.817 46.98C180.817 47.2067 180.883 47.3733 181.017 47.48C181.15 47.5867 181.36 47.6633 181.647 47.71L182.387 47.83C182.98 47.9233 183.41 48.0967 183.677 48.35C183.95 48.6033 184.087 48.97 184.087 49.45C184.087 49.9567 183.923 50.3567 183.597 50.65C183.277 50.9367 182.79 51.08 182.137 51.08H181.717ZM187.883 51.1C187.629 51.1 187.426 51.0267 187.273 50.88C187.126 50.7333 187.053 50.5367 187.053 50.29C187.053 50.03 187.126 49.8233 187.273 49.67C187.426 49.5167 187.629 49.44 187.883 49.44C188.136 49.44 188.336 49.5167 188.483 49.67C188.636 49.8233 188.713 50.03 188.713 50.29C188.713 50.5367 188.636 50.7333 188.483 50.88C188.336 51.0267 188.136 51.1 187.883 51.1ZM193.919 51.1C193.479 51.1 193.092 51.0167 192.759 50.85C192.432 50.6833 192.179 50.4433 191.999 50.13C191.819 49.81 191.729 49.4333 191.729 49V47.5C191.729 47.06 191.819 46.6833 191.999 46.37C192.179 46.0567 192.432 45.8167 192.759 45.65C193.092 45.4833 193.479 45.4 193.919 45.4C194.552 45.4 195.062 45.57 195.449 45.91C195.836 46.25 196.039 46.7133 196.059 47.3H195.159C195.139 46.9467 195.019 46.6767 194.799 46.49C194.586 46.2967 194.292 46.2 193.919 46.2C193.526 46.2 193.212 46.3133 192.979 46.54C192.746 46.76 192.629 47.0767 192.629 47.49V49C192.629 49.4133 192.746 49.7333 192.979 49.96C193.212 50.1867 193.526 50.3 193.919 50.3C194.292 50.3 194.586 50.2033 194.799 50.01C195.019 49.8167 195.139 49.5467 195.159 49.2H196.059C196.039 49.7867 195.836 50.25 195.449 50.59C195.062 50.93 194.552 51.1 193.919 51.1ZM199.705 51.08C199.332 51.08 199.005 51.0233 198.725 50.91C198.452 50.79 198.232 50.6233 198.065 50.41C197.905 50.1967 197.808 49.9433 197.775 49.65H198.675C198.715 49.8433 198.822 49.9967 198.995 50.11C199.175 50.2233 199.412 50.28 199.705 50.28H200.125C200.478 50.28 200.742 50.21 200.915 50.07C201.088 49.9233 201.175 49.73 201.175 49.49C201.175 49.2567 201.095 49.0733 200.935 48.94C200.782 48.8 200.552 48.7067 200.245 48.66L199.505 48.54C198.965 48.4467 198.562 48.28 198.295 48.04C198.035 47.7933 197.905 47.4367 197.905 46.97C197.905 46.4767 198.062 46.0967 198.375 45.83C198.688 45.5567 199.158 45.42 199.785 45.42H200.165C200.692 45.42 201.115 45.5433 201.435 45.79C201.755 46.0367 201.948 46.37 202.015 46.79H201.115C201.075 46.6167 200.975 46.48 200.815 46.38C200.655 46.2733 200.438 46.22 200.165 46.22H199.785C199.445 46.22 199.195 46.2833 199.035 46.41C198.882 46.5367 198.805 46.7267 198.805 46.98C198.805 47.2067 198.872 47.3733 199.005 47.48C199.138 47.5867 199.348 47.6633 199.635 47.71L200.375 47.83C200.968 47.9233 201.398 48.0967 201.665 48.35C201.938 48.6033 202.075 48.97 202.075 49.45C202.075 49.9567 201.912 50.3567 201.585 50.65C201.265 50.9367 200.778 51.08 200.125 51.08H199.705ZM205.701 51.08C205.328 51.08 205.001 51.0233 204.721 50.91C204.448 50.79 204.228 50.6233 204.061 50.41C203.901 50.1967 203.804 49.9433 203.771 49.65H204.671C204.711 49.8433 204.818 49.9967 204.991 50.11C205.171 50.2233 205.408 50.28 205.701 50.28H206.121C206.474 50.28 206.738 50.21 206.911 50.07C207.084 49.9233 207.171 49.73 207.171 49.49C207.171 49.2567 207.091 49.0733 206.931 48.94C206.778 48.8 206.548 48.7067 206.241 48.66L205.501 48.54C204.961 48.4467 204.558 48.28 204.291 48.04C204.031 47.7933 203.901 47.4367 203.901 46.97C203.901 46.4767 204.058 46.0967 204.371 45.83C204.684 45.5567 205.154 45.42 205.781 45.42H206.161C206.688 45.42 207.111 45.5433 207.431 45.79C207.751 46.0367 207.944 46.37 208.011 46.79H207.111C207.071 46.6167 206.971 46.48 206.811 46.38C206.651 46.2733 206.434 46.22 206.161 46.22H205.781C205.441 46.22 205.191 46.2833 205.031 46.41C204.878 46.5367 204.801 46.7267 204.801 46.98C204.801 47.2067 204.868 47.3733 205.001 47.48C205.134 47.5867 205.344 47.6633 205.631 47.71L206.371 47.83C206.964 47.9233 207.394 48.0967 207.661 48.35C207.934 48.6033 208.071 48.97 208.071 49.45C208.071 49.9567 207.908 50.3567 207.581 50.65C207.261 50.9367 206.774 51.08 206.121 51.08H205.701ZM211.427 50.05V48.1H209.517V47.3H211.427V45.35H212.307V47.3H214.217V48.1H212.307V50.05H211.427ZM215.523 51V45.5H216.313V46.16H216.493L216.353 46.4C216.353 46.0933 216.433 45.85 216.593 45.67C216.76 45.49 216.983 45.4 217.263 45.4C217.57 45.4 217.807 45.5133 217.973 45.74C218.14 45.9667 218.223 46.2867 218.223 46.7L217.953 46.16H218.373L218.183 46.4C218.183 46.0933 218.267 45.85 218.433 45.67C218.607 45.49 218.833 45.4 219.113 45.4C219.46 45.4 219.727 45.53 219.913 45.79C220.107 46.05 220.203 46.3933 220.203 46.82V51H219.373V46.81C219.373 46.5833 219.323 46.4067 219.223 46.28C219.13 46.1533 218.99 46.09 218.803 46.09C218.623 46.09 218.48 46.1533 218.373 46.28C218.273 46.4 218.223 46.5733 218.223 46.8V51H217.503V46.81C217.503 46.5767 217.45 46.4 217.343 46.28C217.243 46.1533 217.1 46.09 216.913 46.09C216.727 46.09 216.587 46.1533 216.493 46.28C216.4 46.4 216.353 46.5733 216.353 46.8V51H215.523ZM223.379 51.1C222.799 51.1 222.343 50.9533 222.009 50.66C221.676 50.36 221.509 49.9567 221.509 49.45C221.509 48.9367 221.676 48.5333 222.009 48.24C222.343 47.9467 222.793 47.8 223.359 47.8H225.059V47.25C225.059 46.91 224.956 46.65 224.749 46.47C224.549 46.2833 224.263 46.19 223.889 46.19C223.563 46.19 223.289 46.26 223.069 46.4C222.849 46.5333 222.723 46.7167 222.689 46.95H221.789C221.849 46.4767 222.073 46.1 222.459 45.82C222.846 45.54 223.329 45.4 223.909 45.4C224.543 45.4 225.043 45.5633 225.409 45.89C225.776 46.2167 225.959 46.66 225.959 47.22V51H225.079V49.95H224.929L225.079 49.8C225.079 50.2 224.923 50.5167 224.609 50.75C224.303 50.9833 223.893 51.1 223.379 51.1ZM223.599 50.39C224.026 50.39 224.376 50.2833 224.649 50.07C224.923 49.8567 225.059 49.5833 225.059 49.25V48.47H223.379C223.079 48.47 222.843 48.5533 222.669 48.72C222.496 48.8867 222.409 49.1133 222.409 49.4C222.409 49.7067 222.513 49.95 222.719 50.13C222.933 50.3033 223.226 50.39 223.599 50.39ZM227.705 51V50.18H229.655V46.32H227.955V45.5H230.555V50.18H232.405V51H227.705ZM230.005 44.51C229.785 44.51 229.612 44.4533 229.485 44.34C229.359 44.2267 229.295 44.0733 229.295 43.88C229.295 43.68 229.359 43.5233 229.485 43.41C229.612 43.29 229.785 43.23 230.005 43.23C230.225 43.23 230.399 43.29 230.525 43.41C230.652 43.5233 230.715 43.68 230.715 43.88C230.715 44.0733 230.652 44.2267 230.525 44.34C230.399 44.4533 230.225 44.51 230.005 44.51ZM233.772 51V45.5H234.672V46.55H234.862L234.672 46.76C234.672 46.3267 234.802 45.9933 235.062 45.76C235.322 45.52 235.682 45.4 236.142 45.4C236.695 45.4 237.135 45.57 237.462 45.91C237.788 46.25 237.952 46.7133 237.952 47.3V51H237.052V47.4C237.052 47.0067 236.945 46.7067 236.732 46.5C236.525 46.2867 236.242 46.18 235.882 46.18C235.508 46.18 235.212 46.2933 234.992 46.52C234.778 46.7467 234.672 47.0733 234.672 47.5V51H233.772ZM241.848 51.1C241.594 51.1 241.391 51.0267 241.238 50.88C241.091 50.7333 241.018 50.5367 241.018 50.29C241.018 50.03 241.091 49.8233 241.238 49.67C241.391 49.5167 241.594 49.44 241.848 49.44C242.101 49.44 242.301 49.5167 242.448 49.67C242.601 49.8233 242.678 50.03 242.678 50.29C242.678 50.5367 242.601 50.7333 242.448 50.88C242.301 51.0267 242.101 51.1 241.848 51.1ZM245.694 52.8V51.97H246.984C247.397 51.97 247.717 51.8567 247.944 51.63C248.177 51.41 248.294 51.0967 248.294 50.69V46.32H245.994V45.5H249.194V50.69C249.194 51.3367 248.994 51.85 248.594 52.23C248.194 52.61 247.657 52.8 246.984 52.8H245.694ZM248.694 44.51C248.474 44.51 248.3 44.4533 248.174 44.34C248.047 44.2267 247.984 44.0733 247.984 43.88C247.984 43.68 248.047 43.5233 248.174 43.41C248.3 43.29 248.474 43.23 248.694 43.23C248.914 43.23 249.087 43.29 249.214 43.41C249.34 43.5233 249.404 43.68 249.404 43.88C249.404 44.0733 249.34 44.2267 249.214 44.34C249.087 44.4533 248.914 44.51 248.694 44.51ZM253.67 51.08C253.297 51.08 252.97 51.0233 252.69 50.91C252.417 50.79 252.197 50.6233 252.03 50.41C251.87 50.1967 251.773 49.9433 251.74 49.65H252.64C252.68 49.8433 252.787 49.9967 252.96 50.11C253.14 50.2233 253.377 50.28 253.67 50.28H254.09C254.443 50.28 254.707 50.21 254.88 50.07C255.053 49.9233 255.14 49.73 255.14 49.49C255.14 49.2567 255.06 49.0733 254.9 48.94C254.747 48.8 254.517 48.7067 254.21 48.66L253.47 48.54C252.93 48.4467 252.527 48.28 252.26 48.04C252 47.7933 251.87 47.4367 251.87 46.97C251.87 46.4767 252.027 46.0967 252.34 45.83C252.653 45.5567 253.123 45.42 253.75 45.42H254.13C254.657 45.42 255.08 45.5433 255.4 45.79C255.72 46.0367 255.913 46.37 255.98 46.79H255.08C255.04 46.6167 254.94 46.48 254.78 46.38C254.62 46.2733 254.403 46.22 254.13 46.22H253.75C253.41 46.22 253.16 46.2833 253 46.41C252.847 46.5367 252.77 46.7267 252.77 46.98C252.77 47.2067 252.837 47.3733 252.97 47.48C253.103 47.5867 253.313 47.6633 253.6 47.71L254.34 47.83C254.933 47.9233 255.363 48.0967 255.63 48.35C255.903 48.6033 256.04 48.97 256.04 49.45C256.04 49.9567 255.877 50.3567 255.55 50.65C255.23 50.9367 254.743 51.08 254.09 51.08H253.67ZM259.986 46.35L260.786 43.24H262.086L260.786 46.35H259.986ZM257.686 46.35L258.486 43.24H259.786L258.486 46.35H257.686ZM80.0031 59.35L81.3031 56.24H82.1031L81.3031 59.35H80.0031ZM77.7031 59.35L79.0031 56.24H79.8031L79.0031 59.35H77.7031ZM83.6092 64V58.5H84.3992V59.16H84.5792L84.4392 59.4C84.4392 59.0933 84.5192 58.85 84.6792 58.67C84.8459 58.49 85.0692 58.4 85.3492 58.4C85.6559 58.4 85.8926 58.5133 86.0592 58.74C86.2259 58.9667 86.3092 59.2867 86.3092 59.7L86.0392 59.16H86.4592L86.2692 59.4C86.2692 59.0933 86.3526 58.85 86.5192 58.67C86.6926 58.49 86.9192 58.4 87.1992 58.4C87.5459 58.4 87.8126 58.53 87.9992 58.79C88.1926 59.05 88.2892 59.3933 88.2892 59.82V64H87.4592V59.81C87.4592 59.5833 87.4092 59.4067 87.3092 59.28C87.2159 59.1533 87.0759 59.09 86.8892 59.09C86.7092 59.09 86.5659 59.1533 86.4592 59.28C86.3592 59.4 86.3092 59.5733 86.3092 59.8V64H85.5892V59.81C85.5892 59.5767 85.5359 59.4 85.4292 59.28C85.3292 59.1533 85.1859 59.09 84.9992 59.09C84.8126 59.09 84.6726 59.1533 84.5792 59.28C84.4859 59.4 84.4392 59.5733 84.4392 59.8V64H83.6092ZM91.4653 64.1C90.8853 64.1 90.4286 63.9533 90.0953 63.66C89.762 63.36 89.5953 62.9567 89.5953 62.45C89.5953 61.9367 89.762 61.5333 90.0953 61.24C90.4286 60.9467 90.8786 60.8 91.4453 60.8H93.1453V60.25C93.1453 59.91 93.042 59.65 92.8353 59.47C92.6353 59.2833 92.3486 59.19 91.9753 59.19C91.6486 59.19 91.3753 59.26 91.1553 59.4C90.9353 59.5333 90.8086 59.7167 90.7753 59.95H89.8753C89.9353 59.4767 90.1586 59.1 90.5453 58.82C90.932 58.54 91.4153 58.4 91.9953 58.4C92.6286 58.4 93.1286 58.5633 93.4953 58.89C93.862 59.2167 94.0453 59.66 94.0453 60.22V64H93.1653V62.95H93.0153L93.1653 62.8C93.1653 63.2 93.0086 63.5167 92.6953 63.75C92.3886 63.9833 91.9786 64.1 91.4653 64.1ZM91.6853 63.39C92.112 63.39 92.462 63.2833 92.7353 63.07C93.0086 62.8567 93.1453 62.5833 93.1453 62.25V61.47H91.4653C91.1653 61.47 90.9286 61.5533 90.7553 61.72C90.582 61.8867 90.4953 62.1133 90.4953 62.4C90.4953 62.7067 90.5986 62.95 90.8053 63.13C91.0186 63.3033 91.312 63.39 91.6853 63.39ZM95.7914 64V63.18H97.7414V59.32H96.0414V58.5H98.6414V63.18H100.491V64H95.7914ZM98.0914 57.51C97.8714 57.51 97.6981 57.4533 97.5714 57.34C97.4447 57.2267 97.3814 57.0733 97.3814 56.88C97.3814 56.68 97.4447 56.5233 97.5714 56.41C97.6981 56.29 97.8714 56.23 98.0914 56.23C98.3114 56.23 98.4847 56.29 98.6114 56.41C98.7381 56.5233 98.8014 56.68 98.8014 56.88C98.8014 57.0733 98.7381 57.2267 98.6114 57.34C98.4847 57.4533 98.3114 57.51 98.0914 57.51ZM101.858 64V58.5H102.758V59.55H102.948L102.758 59.76C102.758 59.3267 102.888 58.9933 103.148 58.76C103.408 58.52 103.768 58.4 104.228 58.4C104.781 58.4 105.221 58.57 105.548 58.91C105.874 59.25 106.038 59.7133 106.038 60.3V64H105.138V60.4C105.138 60.0067 105.031 59.7067 104.818 59.5C104.611 59.2867 104.328 59.18 103.968 59.18C103.594 59.18 103.298 59.2933 103.078 59.52C102.864 59.7467 102.758 60.0733 102.758 60.5V64H101.858ZM109.934 64.1C109.68 64.1 109.477 64.0267 109.324 63.88C109.177 63.7333 109.104 63.5367 109.104 63.29C109.104 63.03 109.177 62.8233 109.324 62.67C109.477 62.5167 109.68 62.44 109.934 62.44C110.187 62.44 110.387 62.5167 110.534 62.67C110.687 62.8233 110.764 63.03 110.764 63.29C110.764 63.5367 110.687 63.7333 110.534 63.88C110.387 64.0267 110.187 64.1 109.934 64.1ZM113.85 65.8V58.5H114.75V59.55H114.93L114.75 59.76C114.75 59.34 114.886 59.01 115.16 58.77C115.44 58.5233 115.806 58.4 116.26 58.4C116.813 58.4 117.253 58.5833 117.58 58.95C117.913 59.31 118.08 59.8067 118.08 60.44V62.05C118.08 62.47 118.003 62.8333 117.85 63.14C117.703 63.4467 117.493 63.6833 117.22 63.85C116.953 64.0167 116.633 64.1 116.26 64.1C115.813 64.1 115.45 63.9767 115.17 63.73C114.89 63.4833 114.75 63.1533 114.75 62.74L114.93 62.95H114.73L114.75 64.2V65.8H113.85ZM115.96 63.32C116.34 63.32 116.636 63.2067 116.85 62.98C117.07 62.7533 117.18 62.4267 117.18 62V60.5C117.18 60.0733 117.07 59.7467 116.85 59.52C116.636 59.2933 116.34 59.18 115.96 59.18C115.593 59.18 115.3 59.2967 115.08 59.53C114.86 59.7633 114.75 60.0867 114.75 60.5V62C114.75 62.4133 114.86 62.7367 115.08 62.97C115.3 63.2033 115.593 63.32 115.96 63.32ZM120.706 65.8L121.516 63.66L119.476 58.5H120.476L121.756 61.9C121.802 62.0133 121.846 62.15 121.886 62.31C121.926 62.4633 121.959 62.5933 121.986 62.7C122.012 62.5933 122.046 62.4633 122.086 62.31C122.126 62.15 122.166 62.0133 122.206 61.9L123.406 58.5H124.376L121.666 65.8H120.706ZM127.482 63.05V61.1H125.572V60.3H127.482V58.35H128.362V60.3H130.272V61.1H128.362V63.05H127.482ZM132.028 64V58.5H132.908V59.55H133.118L132.828 60.2C132.828 59.6067 132.955 59.16 133.208 58.86C133.468 58.5533 133.851 58.4 134.358 58.4C134.938 58.4 135.398 58.5833 135.738 58.95C136.085 59.31 136.258 59.8 136.258 60.42V60.75H135.358V60.5C135.358 60.0667 135.251 59.7367 135.038 59.51C134.831 59.2767 134.535 59.16 134.148 59.16C133.768 59.16 133.468 59.2767 133.248 59.51C133.035 59.7433 132.928 60.0733 132.928 60.5V64H132.028ZM139.914 64.1C139.481 64.1 139.101 64.0133 138.774 63.84C138.454 63.6667 138.204 63.4233 138.024 63.11C137.851 62.79 137.764 62.42 137.764 62V60.5C137.764 60.0733 137.851 59.7033 138.024 59.39C138.204 59.0767 138.454 58.8333 138.774 58.66C139.101 58.4867 139.481 58.4 139.914 58.4C140.347 58.4 140.724 58.4867 141.044 58.66C141.371 58.8333 141.621 59.0767 141.794 59.39C141.974 59.7033 142.064 60.0733 142.064 60.5V61.47H138.644V62C138.644 62.4333 138.754 62.7667 138.974 63C139.194 63.2267 139.507 63.34 139.914 63.34C140.261 63.34 140.541 63.28 140.754 63.16C140.967 63.0333 141.097 62.8467 141.144 62.6H142.044C141.984 63.06 141.757 63.4267 141.364 63.7C140.977 63.9667 140.494 64.1 139.914 64.1ZM141.184 60.87V60.5C141.184 60.0667 141.074 59.7333 140.854 59.5C140.641 59.2667 140.327 59.15 139.914 59.15C139.507 59.15 139.194 59.2667 138.974 59.5C138.754 59.7333 138.644 60.0667 138.644 60.5V60.79H141.254L141.184 60.87ZM147.09 65.8V64.2L147.11 62.95H146.91L147.09 62.74C147.09 63.1533 146.953 63.4833 146.68 63.73C146.407 63.9767 146.043 64.1 145.59 64.1C145.037 64.1 144.597 63.9167 144.27 63.55C143.95 63.1833 143.79 62.6833 143.79 62.05V60.44C143.79 59.8067 143.953 59.31 144.28 58.95C144.607 58.5833 145.043 58.4 145.59 58.4C146.043 58.4 146.407 58.5233 146.68 58.77C146.953 59.01 147.09 59.34 147.09 59.76L146.91 59.55H147.09V58.5H147.99V65.8H147.09ZM145.89 63.32C146.263 63.32 146.557 63.2033 146.77 62.97C146.983 62.7367 147.09 62.4133 147.09 62V60.5C147.09 60.0867 146.983 59.7633 146.77 59.53C146.557 59.2967 146.263 59.18 145.89 59.18C145.51 59.18 145.213 59.2933 145 59.52C144.793 59.7467 144.69 60.0733 144.69 60.5V62C144.69 62.4267 144.793 62.7533 145 62.98C145.213 63.2067 145.51 63.32 145.89 63.32ZM151.896 64.1C151.263 64.1 150.756 63.9133 150.376 63.54C149.996 63.16 149.806 62.6467 149.806 62V58.5H150.706V62C150.706 62.4133 150.813 62.7367 151.026 62.97C151.24 63.1967 151.53 63.31 151.896 63.31C152.27 63.31 152.563 63.1967 152.776 62.97C152.996 62.7367 153.106 62.4133 153.106 62V58.5H154.006V62C154.006 62.6467 153.813 63.16 153.426 63.54C153.04 63.9133 152.53 64.1 151.896 64.1ZM155.752 64V63.18H157.702V59.32H156.002V58.5H158.602V63.18H160.452V64H155.752ZM158.052 57.51C157.832 57.51 157.659 57.4533 157.532 57.34C157.406 57.2267 157.342 57.0733 157.342 56.88C157.342 56.68 157.406 56.5233 157.532 56.41C157.659 56.29 157.832 56.23 158.052 56.23C158.272 56.23 158.446 56.29 158.572 56.41C158.699 56.5233 158.762 56.68 158.762 56.88C158.762 57.0733 158.699 57.2267 158.572 57.34C158.446 57.4533 158.272 57.51 158.052 57.51ZM162.008 64V58.5H162.888V59.55H163.098L162.808 60.2C162.808 59.6067 162.935 59.16 163.188 58.86C163.448 58.5533 163.832 58.4 164.338 58.4C164.918 58.4 165.378 58.5833 165.718 58.95C166.065 59.31 166.238 59.8 166.238 60.42V60.75H165.338V60.5C165.338 60.0667 165.232 59.7367 165.018 59.51C164.812 59.2767 164.515 59.16 164.128 59.16C163.748 59.16 163.448 59.2767 163.228 59.51C163.015 59.7433 162.908 60.0733 162.908 60.5V64H162.008ZM169.895 64.1C169.461 64.1 169.081 64.0133 168.755 63.84C168.435 63.6667 168.185 63.4233 168.005 63.11C167.831 62.79 167.745 62.42 167.745 62V60.5C167.745 60.0733 167.831 59.7033 168.005 59.39C168.185 59.0767 168.435 58.8333 168.755 58.66C169.081 58.4867 169.461 58.4 169.895 58.4C170.328 58.4 170.705 58.4867 171.025 58.66C171.351 58.8333 171.601 59.0767 171.775 59.39C171.955 59.7033 172.045 60.0733 172.045 60.5V61.47H168.625V62C168.625 62.4333 168.735 62.7667 168.955 63C169.175 63.2267 169.488 63.34 169.895 63.34C170.241 63.34 170.521 63.28 170.735 63.16C170.948 63.0333 171.078 62.8467 171.125 62.6H172.025C171.965 63.06 171.738 63.4267 171.345 63.7C170.958 63.9667 170.475 64.1 169.895 64.1ZM171.165 60.87V60.5C171.165 60.0667 171.055 59.7333 170.835 59.5C170.621 59.2667 170.308 59.15 169.895 59.15C169.488 59.15 169.175 59.2667 168.955 59.5C168.735 59.7333 168.625 60.0667 168.625 60.5V60.79H171.235L171.165 60.87ZM173.551 64V58.5H174.341V59.16H174.521L174.381 59.4C174.381 59.0933 174.461 58.85 174.621 58.67C174.787 58.49 175.011 58.4 175.291 58.4C175.597 58.4 175.834 58.5133 176.001 58.74C176.167 58.9667 176.251 59.2867 176.251 59.7L175.981 59.16H176.401L176.211 59.4C176.211 59.0933 176.294 58.85 176.461 58.67C176.634 58.49 176.861 58.4 177.141 58.4C177.487 58.4 177.754 58.53 177.941 58.79C178.134 59.05 178.231 59.3933 178.231 59.82V64H177.401V59.81C177.401 59.5833 177.351 59.4067 177.251 59.28C177.157 59.1533 177.017 59.09 176.831 59.09C176.651 59.09 176.507 59.1533 176.401 59.28C176.301 59.4 176.251 59.5733 176.251 59.8V64H175.531V59.81C175.531 59.5767 175.477 59.4 175.371 59.28C175.271 59.1533 175.127 59.09 174.941 59.09C174.754 59.09 174.614 59.1533 174.521 59.28C174.427 59.4 174.381 59.5733 174.381 59.8V64H173.551ZM181.887 64.1C181.453 64.1 181.073 64.0133 180.747 63.84C180.427 63.6667 180.177 63.4233 179.997 63.11C179.823 62.79 179.737 62.42 179.737 62V60.5C179.737 60.0733 179.823 59.7033 179.997 59.39C180.177 59.0767 180.427 58.8333 180.747 58.66C181.073 58.4867 181.453 58.4 181.887 58.4C182.32 58.4 182.697 58.4867 183.017 58.66C183.343 58.8333 183.593 59.0767 183.767 59.39C183.947 59.7033 184.037 60.0733 184.037 60.5V61.47H180.617V62C180.617 62.4333 180.727 62.7667 180.947 63C181.167 63.2267 181.48 63.34 181.887 63.34C182.233 63.34 182.513 63.28 182.727 63.16C182.94 63.0333 183.07 62.8467 183.117 62.6H184.017C183.957 63.06 183.73 63.4267 183.337 63.7C182.95 63.9667 182.467 64.1 181.887 64.1ZM183.157 60.87V60.5C183.157 60.0667 183.047 59.7333 182.827 59.5C182.613 59.2667 182.3 59.15 181.887 59.15C181.48 59.15 181.167 59.2667 180.947 59.5C180.727 59.7333 180.617 60.0667 180.617 60.5V60.79H183.227L183.157 60.87ZM185.803 64V58.5H186.703V59.55H186.893L186.703 59.76C186.703 59.3267 186.833 58.9933 187.093 58.76C187.353 58.52 187.713 58.4 188.173 58.4C188.726 58.4 189.166 58.57 189.493 58.91C189.819 59.25 189.983 59.7133 189.983 60.3V64H189.083V60.4C189.083 60.0067 188.976 59.7067 188.763 59.5C188.556 59.2867 188.273 59.18 187.913 59.18C187.539 59.18 187.243 59.2933 187.023 59.52C186.809 59.7467 186.703 60.0733 186.703 60.5V64H185.803ZM194.479 64C194.006 64 193.636 63.8733 193.369 63.62C193.109 63.3667 192.979 63.01 192.979 62.55V59.32H191.429V58.5H192.979V56.95H193.879V58.5H196.079V59.32H193.879V62.55C193.879 62.97 194.079 63.18 194.479 63.18H195.979V64H194.479ZM199.705 64.08C199.332 64.08 199.005 64.0233 198.725 63.91C198.452 63.79 198.232 63.6233 198.065 63.41C197.905 63.1967 197.808 62.9433 197.775 62.65H198.675C198.715 62.8433 198.822 62.9967 198.995 63.11C199.175 63.2233 199.412 63.28 199.705 63.28H200.125C200.478 63.28 200.742 63.21 200.915 63.07C201.088 62.9233 201.175 62.73 201.175 62.49C201.175 62.2567 201.095 62.0733 200.935 61.94C200.782 61.8 200.552 61.7067 200.245 61.66L199.505 61.54C198.965 61.4467 198.562 61.28 198.295 61.04C198.035 60.7933 197.905 60.4367 197.905 59.97C197.905 59.4767 198.062 59.0967 198.375 58.83C198.688 58.5567 199.158 58.42 199.785 58.42H200.165C200.692 58.42 201.115 58.5433 201.435 58.79C201.755 59.0367 201.948 59.37 202.015 59.79H201.115C201.075 59.6167 200.975 59.48 200.815 59.38C200.655 59.2733 200.438 59.22 200.165 59.22H199.785C199.445 59.22 199.195 59.2833 199.035 59.41C198.882 59.5367 198.805 59.7267 198.805 59.98C198.805 60.2067 198.872 60.3733 199.005 60.48C199.138 60.5867 199.348 60.6633 199.635 60.71L200.375 60.83C200.968 60.9233 201.398 61.0967 201.665 61.35C201.938 61.6033 202.075 61.97 202.075 62.45C202.075 62.9567 201.912 63.3567 201.585 63.65C201.265 63.9367 200.778 64.08 200.125 64.08H199.705ZM205.871 64.1C205.618 64.1 205.414 64.0267 205.261 63.88C205.114 63.7333 205.041 63.5367 205.041 63.29C205.041 63.03 205.114 62.8233 205.261 62.67C205.414 62.5167 205.618 62.44 205.871 62.44C206.124 62.44 206.324 62.5167 206.471 62.67C206.624 62.8233 206.701 63.03 206.701 63.29C206.701 63.5367 206.624 63.7333 206.471 63.88C206.324 64.0267 206.124 64.1 205.871 64.1ZM212.467 64C211.994 64 211.624 63.8733 211.357 63.62C211.097 63.3667 210.967 63.01 210.967 62.55V59.32H209.417V58.5H210.967V56.95H211.867V58.5H214.067V59.32H211.867V62.55C211.867 62.97 212.067 63.18 212.467 63.18H213.967V64H212.467ZM215.363 64L217.313 61.17L215.483 58.5H216.543L217.633 60.2C217.68 60.2733 217.723 60.3533 217.763 60.44C217.81 60.5267 217.847 60.5967 217.873 60.65C217.893 60.5967 217.923 60.5267 217.963 60.44C218.01 60.3533 218.057 60.2733 218.103 60.2L219.203 58.5H220.253L218.423 61.18L220.363 64H219.303L218.123 62.2C218.077 62.1267 218.03 62.0433 217.983 61.95C217.943 61.85 217.907 61.77 217.873 61.71C217.847 61.77 217.807 61.85 217.753 61.95C217.707 62.0433 217.657 62.1267 217.603 62.2L216.413 64H215.363ZM224.459 64C223.986 64 223.616 63.8733 223.349 63.62C223.089 63.3667 222.959 63.01 222.959 62.55V59.32H221.409V58.5H222.959V56.95H223.859V58.5H226.059V59.32H223.859V62.55C223.859 62.97 224.059 63.18 224.459 63.18H225.959V64H224.459ZM230.005 59.35L230.805 56.24H232.105L230.805 59.35H230.005ZM227.705 59.35L228.505 56.24H229.805L228.505 59.35H227.705ZM80.0031 72.35L81.3031 69.24H82.1031L81.3031 72.35H80.0031ZM77.7031 72.35L79.0031 69.24H79.8031L79.0031 72.35H77.7031ZM83.8692 77V69.7H86.1292C86.5626 69.7 86.9426 69.79 87.2692 69.97C87.5959 70.1433 87.8492 70.3867 88.0292 70.7C88.2092 71.0133 88.2992 71.38 88.2992 71.8C88.2992 72.2933 88.1692 72.7167 87.9092 73.07C87.6559 73.4233 87.3092 73.6667 86.8692 73.8L88.3992 77H87.3392L85.9392 73.9H84.7692V77H83.8692ZM84.7692 73.09H86.1292C86.5026 73.09 86.8026 72.9733 87.0292 72.74C87.2559 72.5 87.3692 72.1867 87.3692 71.8C87.3692 71.4067 87.2559 71.0933 87.0292 70.86C86.8026 70.6267 86.5026 70.51 86.1292 70.51H84.7692V73.09ZM89.9453 77V69.7H94.1453V70.52H90.8353V72.78H93.7953V73.59H90.8353V76.18H94.1453V77H89.9453ZM95.4414 77L97.3414 69.7H98.5514L100.441 77H99.5314L99.0514 75.06H96.8414L96.3614 77H95.4414ZM97.0214 74.3H98.8614L98.3014 72.05C98.1947 71.6233 98.1114 71.2667 98.0514 70.98C97.9914 70.6933 97.9547 70.5067 97.9414 70.42C97.9281 70.5067 97.8914 70.6933 97.8314 70.98C97.7714 71.2667 97.6881 71.62 97.5814 72.04L97.0214 74.3ZM101.858 77V69.7H103.748C104.221 69.7 104.628 69.79 104.968 69.97C105.314 70.15 105.581 70.4033 105.768 70.73C105.961 71.0567 106.058 71.4433 106.058 71.89V74.8C106.058 75.2467 105.961 75.6367 105.768 75.97C105.581 76.2967 105.314 76.55 104.968 76.73C104.628 76.91 104.221 77 103.748 77H101.858ZM102.758 76.2H103.748C104.188 76.2 104.531 76.0767 104.778 75.83C105.031 75.5833 105.158 75.24 105.158 74.8V71.89C105.158 71.4567 105.031 71.1167 104.778 70.87C104.531 70.6233 104.188 70.5 103.748 70.5H102.758V76.2ZM107.694 77V69.7H108.874L109.634 72.06C109.707 72.2733 109.774 72.4867 109.834 72.7C109.894 72.9067 109.937 73.0667 109.964 73.18C109.997 73.0667 110.04 72.9067 110.094 72.7C110.147 72.4867 110.207 72.27 110.274 72.05L110.994 69.7H112.174V77H111.294V74.35C111.294 74.0567 111.304 73.7233 111.324 73.35C111.344 72.9767 111.37 72.5967 111.404 72.21C111.437 71.8167 111.47 71.4433 111.504 71.09C111.544 70.73 111.577 70.4167 111.604 70.15L110.424 73.8H109.474L108.284 70.15C108.317 70.41 108.35 70.7133 108.384 71.06C108.417 71.4 108.447 71.7633 108.474 72.15C108.5 72.53 108.524 72.91 108.544 73.29C108.564 73.67 108.574 74.0233 108.574 74.35V77H107.694ZM113.93 77V69.7H118.13V70.52H114.82V72.78H117.78V73.59H114.82V76.18H118.13V77H113.93ZM121.926 77.1C121.672 77.1 121.469 77.0267 121.316 76.88C121.169 76.7333 121.096 76.5367 121.096 76.29C121.096 76.03 121.169 75.8233 121.316 75.67C121.469 75.5167 121.672 75.44 121.926 75.44C122.179 75.44 122.379 75.5167 122.526 75.67C122.679 75.8233 122.756 76.03 122.756 76.29C122.756 76.5367 122.679 76.7333 122.526 76.88C122.379 77.0267 122.179 77.1 121.926 77.1ZM125.582 77V71.5H126.372V72.16H126.552L126.412 72.4C126.412 72.0933 126.492 71.85 126.652 71.67C126.819 71.49 127.042 71.4 127.322 71.4C127.629 71.4 127.865 71.5133 128.032 71.74C128.199 71.9667 128.282 72.2867 128.282 72.7L128.012 72.16H128.432L128.242 72.4C128.242 72.0933 128.325 71.85 128.492 71.67C128.665 71.49 128.892 71.4 129.172 71.4C129.519 71.4 129.785 71.53 129.972 71.79C130.165 72.05 130.262 72.3933 130.262 72.82V77H129.432V72.81C129.432 72.5833 129.382 72.4067 129.282 72.28C129.189 72.1533 129.049 72.09 128.862 72.09C128.682 72.09 128.539 72.1533 128.432 72.28C128.332 72.4 128.282 72.5733 128.282 72.8V77H127.562V72.81C127.562 72.5767 127.509 72.4 127.402 72.28C127.302 72.1533 127.159 72.09 126.972 72.09C126.785 72.09 126.645 72.1533 126.552 72.28C126.459 72.4 126.412 72.5733 126.412 72.8V77H125.582ZM133.598 77.1C133.051 77.1 132.608 76.9167 132.268 76.55C131.935 76.1833 131.768 75.6867 131.768 75.06V73.45C131.768 72.8167 131.935 72.3167 132.268 71.95C132.601 71.5833 133.045 71.4 133.598 71.4C134.051 71.4 134.415 71.5233 134.688 71.77C134.961 72.0167 135.098 72.3467 135.098 72.76L134.918 72.55H135.118L135.098 71.3V69.7H135.998V77H135.098V75.95H134.918L135.098 75.74C135.098 76.16 134.961 76.4933 134.688 76.74C134.415 76.98 134.051 77.1 133.598 77.1ZM133.898 76.32C134.271 76.32 134.565 76.2033 134.778 75.97C134.991 75.7367 135.098 75.4133 135.098 75V73.5C135.098 73.0867 134.991 72.7633 134.778 72.53C134.565 72.2967 134.271 72.18 133.898 72.18C133.518 72.18 133.218 72.2933 132.998 72.52C132.778 72.7467 132.668 73.0733 132.668 73.5V75C132.668 75.4267 132.778 75.7533 132.998 75.98C133.218 76.2067 133.518 76.32 133.898 76.32ZM139.474 76.05V74.1H137.564V73.3H139.474V71.35H140.354V73.3H142.264V74.1H140.354V76.05H139.474ZM144.06 77V69.7H144.96V76.18H148.26V77H144.06ZM149.956 77V76.18H151.446V70.52H149.956V69.7H153.856V70.52H152.366V76.18H153.856V77H149.956ZM157.942 77.1C157.502 77.1 157.119 77.0167 156.792 76.85C156.472 76.6833 156.222 76.4433 156.042 76.13C155.869 75.81 155.782 75.4333 155.782 75V71.7C155.782 71.26 155.869 70.8833 156.042 70.57C156.222 70.2567 156.472 70.0167 156.792 69.85C157.119 69.6833 157.502 69.6 157.942 69.6C158.382 69.6 158.762 69.6867 159.082 69.86C159.402 70.0267 159.649 70.2667 159.822 70.58C159.996 70.8933 160.082 71.2667 160.082 71.7H159.182C159.182 71.2867 159.072 70.97 158.852 70.75C158.639 70.5233 158.336 70.41 157.942 70.41C157.549 70.41 157.239 70.52 157.012 70.74C156.792 70.96 156.682 71.2767 156.682 71.69V75C156.682 75.4133 156.792 75.7333 157.012 75.96C157.239 76.18 157.549 76.29 157.942 76.29C158.336 76.29 158.639 76.18 158.852 75.96C159.072 75.7333 159.182 75.4133 159.182 75H160.082C160.082 75.4267 159.996 75.8 159.822 76.12C159.649 76.4333 159.402 76.6767 159.082 76.85C158.762 77.0167 158.382 77.1 157.942 77.1ZM161.898 77V69.7H166.098V70.52H162.788V72.78H165.748V73.59H162.788V76.18H166.098V77H161.898ZM167.795 77V69.7H168.995L171.225 75.95C171.211 75.7833 171.195 75.58 171.175 75.34C171.161 75.0933 171.148 74.8367 171.135 74.57C171.128 74.2967 171.125 74.04 171.125 73.8V69.7H171.995V77H170.795L168.575 70.75C168.588 70.91 168.601 71.1133 168.615 71.36C168.628 71.6 168.638 71.8567 168.645 72.13C168.658 72.3967 168.665 72.6533 168.665 72.9V77H167.795ZM175.931 77.1C175.451 77.1 175.037 77.02 174.691 76.86C174.351 76.7 174.087 76.47 173.901 76.17C173.714 75.87 173.617 75.5133 173.611 75.1H174.511C174.511 75.4667 174.634 75.7567 174.881 75.97C175.134 76.1833 175.484 76.29 175.931 76.29C176.351 76.29 176.677 76.1867 176.911 75.98C177.151 75.7733 177.271 75.4867 177.271 75.12C177.271 74.8267 177.191 74.57 177.031 74.35C176.877 74.13 176.654 73.9767 176.361 73.89L175.371 73.58C174.871 73.4267 174.484 73.17 174.211 72.81C173.944 72.45 173.811 72.0267 173.811 71.54C173.811 71.1467 173.897 70.8067 174.071 70.52C174.251 70.2267 174.501 70 174.821 69.84C175.141 69.6733 175.517 69.59 175.951 69.59C176.591 69.59 177.104 69.77 177.491 70.13C177.877 70.4833 178.074 70.9567 178.081 71.55H177.181C177.181 71.19 177.071 70.91 176.851 70.71C176.637 70.5033 176.334 70.4 175.941 70.4C175.554 70.4 175.251 70.4933 175.031 70.68C174.817 70.8667 174.711 71.1267 174.711 71.46C174.711 71.76 174.791 72.02 174.951 72.24C175.111 72.46 175.341 72.6167 175.641 72.71L176.641 73.03C177.127 73.1833 177.504 73.4433 177.771 73.81C178.037 74.1767 178.171 74.6067 178.171 75.1C178.171 75.5 178.077 75.85 177.891 76.15C177.704 76.45 177.441 76.6833 177.101 76.85C176.767 77.0167 176.377 77.1 175.931 77.1ZM179.887 77V69.7H184.087V70.52H180.777V72.78H183.737V73.59H180.777V76.18H184.087V77H179.887ZM187.883 77.1C187.629 77.1 187.426 77.0267 187.273 76.88C187.126 76.7333 187.053 76.5367 187.053 76.29C187.053 76.03 187.126 75.8233 187.273 75.67C187.426 75.5167 187.629 75.44 187.883 75.44C188.136 75.44 188.336 75.5167 188.483 75.67C188.636 75.8233 188.713 76.03 188.713 76.29C188.713 76.5367 188.636 76.7333 188.483 76.88C188.336 77.0267 188.136 77.1 187.883 77.1ZM191.539 77V71.5H192.329V72.16H192.509L192.369 72.4C192.369 72.0933 192.449 71.85 192.609 71.67C192.776 71.49 192.999 71.4 193.279 71.4C193.586 71.4 193.822 71.5133 193.989 71.74C194.156 71.9667 194.239 72.2867 194.239 72.7L193.969 72.16H194.389L194.199 72.4C194.199 72.0933 194.282 71.85 194.449 71.67C194.622 71.49 194.849 71.4 195.129 71.4C195.476 71.4 195.742 71.53 195.929 71.79C196.122 72.05 196.219 72.3933 196.219 72.82V77H195.389V72.81C195.389 72.5833 195.339 72.4067 195.239 72.28C195.146 72.1533 195.006 72.09 194.819 72.09C194.639 72.09 194.496 72.1533 194.389 72.28C194.289 72.4 194.239 72.5733 194.239 72.8V77H193.519V72.81C193.519 72.5767 193.466 72.4 193.359 72.28C193.259 72.1533 193.116 72.09 192.929 72.09C192.742 72.09 192.602 72.1533 192.509 72.28C192.416 72.4 192.369 72.5733 192.369 72.8V77H191.539ZM199.555 77.1C199.008 77.1 198.565 76.9167 198.225 76.55C197.892 76.1833 197.725 75.6867 197.725 75.06V73.45C197.725 72.8167 197.892 72.3167 198.225 71.95C198.558 71.5833 199.002 71.4 199.555 71.4C200.008 71.4 200.372 71.5233 200.645 71.77C200.918 72.0167 201.055 72.3467 201.055 72.76L200.875 72.55H201.075L201.055 71.3V69.7H201.955V77H201.055V75.95H200.875L201.055 75.74C201.055 76.16 200.918 76.4933 200.645 76.74C200.372 76.98 200.008 77.1 199.555 77.1ZM199.855 76.32C200.228 76.32 200.522 76.2033 200.735 75.97C200.948 75.7367 201.055 75.4133 201.055 75V73.5C201.055 73.0867 200.948 72.7633 200.735 72.53C200.522 72.2967 200.228 72.18 199.855 72.18C199.475 72.18 199.175 72.2933 198.955 72.52C198.735 72.7467 198.625 73.0733 198.625 73.5V75C198.625 75.4267 198.735 75.7533 198.955 75.98C199.175 76.2067 199.475 76.32 199.855 76.32ZM205.431 76.05V74.1H203.521V73.3H205.431V71.35H206.311V73.3H208.221V74.1H206.311V76.05H205.431ZM211.867 77.1C211.614 77.1 211.411 77.0267 211.257 76.88C211.111 76.7333 211.037 76.5367 211.037 76.29C211.037 76.03 211.111 75.8233 211.257 75.67C211.411 75.5167 211.614 75.44 211.867 75.44C212.121 75.44 212.321 75.5167 212.467 75.67C212.621 75.8233 212.697 76.03 212.697 76.29C212.697 76.5367 212.621 76.7333 212.467 76.88C212.321 77.0267 212.121 77.1 211.867 77.1ZM216.473 78.8V77.98H218.223C218.503 77.98 218.707 77.9167 218.833 77.79C218.967 77.6633 219.033 77.4667 219.033 77.2V76.5L219.053 75.5H218.873L219.043 75.35C219.043 75.75 218.91 76.0667 218.643 76.3C218.377 76.5333 218.02 76.65 217.573 76.65C217.007 76.65 216.56 76.4667 216.233 76.1C215.907 75.7267 215.743 75.2267 215.743 74.6V73.44C215.743 72.8133 215.907 72.3167 216.233 71.95C216.56 71.5833 217.007 71.4 217.573 71.4C218.02 71.4 218.377 71.5167 218.643 71.75C218.91 71.9833 219.043 72.3 219.043 72.7L218.873 72.55H219.043V71.5H219.933V77.2C219.933 77.6933 219.78 78.0833 219.473 78.37C219.173 78.6567 218.753 78.8 218.213 78.8H216.473ZM217.843 75.87C218.217 75.87 218.51 75.7533 218.723 75.52C218.937 75.2867 219.043 74.9633 219.043 74.55V73.5C219.043 73.0867 218.937 72.7633 218.723 72.53C218.51 72.2967 218.217 72.18 217.843 72.18C217.463 72.18 217.167 72.2933 216.953 72.52C216.747 72.7467 216.643 73.0733 216.643 73.5V74.55C216.643 74.9767 216.747 75.3033 216.953 75.53C217.167 75.7567 217.463 75.87 217.843 75.87ZM221.709 77V76.18H223.659V72.32H221.959V71.5H224.559V76.18H226.409V77H221.709ZM224.009 70.51C223.789 70.51 223.616 70.4533 223.489 70.34C223.363 70.2267 223.299 70.0733 223.299 69.88C223.299 69.68 223.363 69.5233 223.489 69.41C223.616 69.29 223.789 69.23 224.009 69.23C224.229 69.23 224.403 69.29 224.529 69.41C224.656 69.5233 224.719 69.68 224.719 69.88C224.719 70.0733 224.656 70.2267 224.529 70.34C224.403 70.4533 224.229 70.51 224.009 70.51ZM230.455 77C229.982 77 229.612 76.8733 229.345 76.62C229.085 76.3667 228.955 76.01 228.955 75.55V72.32H227.405V71.5H228.955V69.95H229.855V71.5H232.055V72.32H229.855V75.55C229.855 75.97 230.055 76.18 230.455 76.18H231.955V77H230.455ZM233.702 77V76.18H235.652V72.32H233.952V71.5H236.552V76.18H238.402V77H233.702ZM236.002 70.51C235.782 70.51 235.608 70.4533 235.482 70.34C235.355 70.2267 235.292 70.0733 235.292 69.88C235.292 69.68 235.355 69.5233 235.482 69.41C235.608 69.29 235.782 69.23 236.002 69.23C236.222 69.23 236.395 69.29 236.522 69.41C236.648 69.5233 236.712 69.68 236.712 69.88C236.712 70.0733 236.648 70.2267 236.522 70.34C236.395 70.4533 236.222 70.51 236.002 70.51ZM240.458 78.8V77.98H242.208C242.488 77.98 242.691 77.9167 242.818 77.79C242.951 77.6633 243.018 77.4667 243.018 77.2V76.5L243.038 75.5H242.858L243.028 75.35C243.028 75.75 242.894 76.0667 242.628 76.3C242.361 76.5333 242.004 76.65 241.558 76.65C240.991 76.65 240.544 76.4667 240.218 76.1C239.891 75.7267 239.728 75.2267 239.728 74.6V73.44C239.728 72.8133 239.891 72.3167 240.218 71.95C240.544 71.5833 240.991 71.4 241.558 71.4C242.004 71.4 242.361 71.5167 242.628 71.75C242.894 71.9833 243.028 72.3 243.028 72.7L242.858 72.55H243.028V71.5H243.918V77.2C243.918 77.6933 243.764 78.0833 243.458 78.37C243.158 78.6567 242.738 78.8 242.198 78.8H240.458ZM241.828 75.87C242.201 75.87 242.494 75.7533 242.708 75.52C242.921 75.2867 243.028 74.9633 243.028 74.55V73.5C243.028 73.0867 242.921 72.7633 242.708 72.53C242.494 72.2967 242.201 72.18 241.828 72.18C241.448 72.18 241.151 72.2933 240.938 72.52C240.731 72.7467 240.628 73.0733 240.628 73.5V74.55C240.628 74.9767 240.731 75.3033 240.938 75.53C241.151 75.7567 241.448 75.87 241.828 75.87ZM245.764 77V71.5H246.664V72.55H246.854L246.664 72.76C246.664 72.3267 246.794 71.9933 247.054 71.76C247.314 71.52 247.674 71.4 248.134 71.4C248.687 71.4 249.127 71.57 249.454 71.91C249.78 72.25 249.944 72.7133 249.944 73.3V77H249.044V73.4C249.044 73.0067 248.937 72.7067 248.724 72.5C248.517 72.2867 248.234 72.18 247.874 72.18C247.5 72.18 247.204 72.2933 246.984 72.52C246.77 72.7467 246.664 73.0733 246.664 73.5V77H245.764ZM253.84 77.08C253.4 77.08 253.02 76.9967 252.7 76.83C252.38 76.6633 252.13 76.4233 251.95 76.11C251.777 75.79 251.69 75.4133 251.69 74.98V73.52C251.69 73.08 251.777 72.7033 251.95 72.39C252.13 72.0767 252.38 71.8367 252.7 71.67C253.02 71.5033 253.4 71.42 253.84 71.42C254.28 71.42 254.66 71.5033 254.98 71.67C255.3 71.8367 255.547 72.0767 255.72 72.39C255.9 72.7033 255.99 73.0767 255.99 73.51V74.98C255.99 75.4133 255.9 75.79 255.72 76.11C255.547 76.4233 255.3 76.6633 254.98 76.83C254.66 76.9967 254.28 77.08 253.84 77.08ZM253.84 76.28C254.233 76.28 254.54 76.17 254.76 75.95C254.98 75.73 255.09 75.4067 255.09 74.98V73.52C255.09 73.0933 254.98 72.77 254.76 72.55C254.54 72.33 254.233 72.22 253.84 72.22C253.453 72.22 253.147 72.33 252.92 72.55C252.7 72.77 252.59 73.0933 252.59 73.52V74.98C252.59 75.4067 252.7 75.73 252.92 75.95C253.147 76.17 253.453 76.28 253.84 76.28ZM257.946 77V71.5H258.826V72.55H259.036L258.746 73.2C258.746 72.6067 258.873 72.16 259.126 71.86C259.386 71.5533 259.769 71.4 260.276 71.4C260.856 71.4 261.316 71.5833 261.656 71.95C262.003 72.31 262.176 72.8 262.176 73.42V73.75H261.276V73.5C261.276 73.0667 261.169 72.7367 260.956 72.51C260.749 72.2767 260.453 72.16 260.066 72.16C259.686 72.16 259.386 72.2767 259.166 72.51C258.953 72.7433 258.846 73.0733 258.846 73.5V77H257.946ZM265.832 77.1C265.399 77.1 265.019 77.0133 264.692 76.84C264.372 76.6667 264.122 76.4233 263.942 76.11C263.769 75.79 263.682 75.42 263.682 75V73.5C263.682 73.0733 263.769 72.7033 263.942 72.39C264.122 72.0767 264.372 71.8333 264.692 71.66C265.019 71.4867 265.399 71.4 265.832 71.4C266.265 71.4 266.642 71.4867 266.962 71.66C267.289 71.8333 267.539 72.0767 267.712 72.39C267.892 72.7033 267.982 73.0733 267.982 73.5V74.47H264.562V75C264.562 75.4333 264.672 75.7667 264.892 76C265.112 76.2267 265.425 76.34 265.832 76.34C266.179 76.34 266.459 76.28 266.672 76.16C266.885 76.0333 267.015 75.8467 267.062 75.6H267.962C267.902 76.06 267.675 76.4267 267.282 76.7C266.895 76.9667 266.412 77.1 265.832 77.1ZM267.102 73.87V73.5C267.102 73.0667 266.992 72.7333 266.772 72.5C266.559 72.2667 266.245 72.15 265.832 72.15C265.425 72.15 265.112 72.2667 264.892 72.5C264.672 72.7333 264.562 73.0667 264.562 73.5V73.79H267.172L267.102 73.87ZM271.978 72.35L272.778 69.24H274.078L272.778 72.35H271.978ZM269.678 72.35L270.478 69.24H271.778L270.478 72.35H269.678ZM80.0031 85.35L81.3031 82.24H82.1031L81.3031 85.35H80.0031ZM77.7031 85.35L79.0031 82.24H79.8031L79.0031 85.35H77.7031ZM83.4492 90L85.3492 82.7H86.5592L88.4492 90H87.5392L87.0592 88.06H84.8492L84.3692 90H83.4492ZM85.0292 87.3H86.8692L86.3092 85.05C86.2026 84.6233 86.1192 84.2667 86.0592 83.98C85.9992 83.6933 85.9626 83.5067 85.9492 83.42C85.9359 83.5067 85.8992 83.6933 85.8392 83.98C85.7792 84.2667 85.6959 84.62 85.5892 85.04L85.0292 87.3ZM89.8653 91.8V84.5H90.7653V85.55H90.9453L90.7653 85.76C90.7653 85.34 90.902 85.01 91.1753 84.77C91.4553 84.5233 91.822 84.4 92.2753 84.4C92.8286 84.4 93.2686 84.5833 93.5953 84.95C93.9286 85.31 94.0953 85.8067 94.0953 86.44V88.05C94.0953 88.47 94.0186 88.8333 93.8653 89.14C93.7186 89.4467 93.5086 89.6833 93.2353 89.85C92.9686 90.0167 92.6486 90.1 92.2753 90.1C91.8286 90.1 91.4653 89.9767 91.1853 89.73C90.9053 89.4833 90.7653 89.1533 90.7653 88.74L90.9453 88.95H90.7453L90.7653 90.2V91.8H89.8653ZM91.9753 89.32C92.3553 89.32 92.652 89.2067 92.8653 88.98C93.0853 88.7533 93.1953 88.4267 93.1953 88V86.5C93.1953 86.0733 93.0853 85.7467 92.8653 85.52C92.652 85.2933 92.3553 85.18 91.9753 85.18C91.6086 85.18 91.3153 85.2967 91.0953 85.53C90.8753 85.7633 90.7653 86.0867 90.7653 86.5V88C90.7653 88.4133 90.8753 88.7367 91.0953 88.97C91.3153 89.2033 91.6086 89.32 91.9753 89.32ZM95.8614 91.8V84.5H96.7614V85.55H96.9414L96.7614 85.76C96.7614 85.34 96.8981 85.01 97.1714 84.77C97.4514 84.5233 97.8181 84.4 98.2714 84.4C98.8247 84.4 99.2647 84.5833 99.5914 84.95C99.9247 85.31 100.091 85.8067 100.091 86.44V88.05C100.091 88.47 100.015 88.8333 99.8614 89.14C99.7147 89.4467 99.5047 89.6833 99.2314 89.85C98.9647 90.0167 98.6447 90.1 98.2714 90.1C97.8247 90.1 97.4614 89.9767 97.1814 89.73C96.9014 89.4833 96.7614 89.1533 96.7614 88.74L96.9414 88.95H96.7414L96.7614 90.2V91.8H95.8614ZM97.9714 89.32C98.3514 89.32 98.6481 89.2067 98.8614 88.98C99.0814 88.7533 99.1914 88.4267 99.1914 88V86.5C99.1914 86.0733 99.0814 85.7467 98.8614 85.52C98.6481 85.2933 98.3514 85.18 97.9714 85.18C97.6047 85.18 97.3114 85.2967 97.0914 85.53C96.8714 85.7633 96.7614 86.0867 96.7614 86.5V88C96.7614 88.4133 96.8714 88.7367 97.0914 88.97C97.3114 89.2033 97.6047 89.32 97.9714 89.32ZM103.938 90.1C103.684 90.1 103.481 90.0267 103.328 89.88C103.181 89.7333 103.108 89.5367 103.108 89.29C103.108 89.03 103.181 88.8233 103.328 88.67C103.481 88.5167 103.684 88.44 103.938 88.44C104.191 88.44 104.391 88.5167 104.538 88.67C104.691 88.8233 104.768 89.03 104.768 89.29C104.768 89.5367 104.691 89.7333 104.538 89.88C104.391 90.0267 104.191 90.1 103.938 90.1ZM109.324 90L107.484 84.5H108.404L109.624 88.2C109.697 88.42 109.764 88.6333 109.824 88.84C109.884 89.04 109.927 89.1967 109.954 89.31C109.987 89.1967 110.034 89.04 110.094 88.84C110.154 88.6333 110.217 88.42 110.284 88.2L111.474 84.5H112.384L110.544 90H109.324ZM115.92 90.1C115.286 90.1 114.78 89.9133 114.4 89.54C114.02 89.16 113.83 88.6467 113.83 88V84.5H114.73V88C114.73 88.4133 114.836 88.7367 115.05 88.97C115.263 89.1967 115.553 89.31 115.92 89.31C116.293 89.31 116.586 89.1967 116.8 88.97C117.02 88.7367 117.13 88.4133 117.13 88V84.5H118.03V88C118.03 88.6467 117.836 89.16 117.45 89.54C117.063 89.9133 116.553 90.1 115.92 90.1ZM121.926 90.1C121.492 90.1 121.112 90.0133 120.786 89.84C120.466 89.6667 120.216 89.4233 120.036 89.11C119.862 88.79 119.776 88.42 119.776 88V86.5C119.776 86.0733 119.862 85.7033 120.036 85.39C120.216 85.0767 120.466 84.8333 120.786 84.66C121.112 84.4867 121.492 84.4 121.926 84.4C122.359 84.4 122.736 84.4867 123.056 84.66C123.382 84.8333 123.632 85.0767 123.806 85.39C123.986 85.7033 124.076 86.0733 124.076 86.5V87.47H120.656V88C120.656 88.4333 120.766 88.7667 120.986 89C121.206 89.2267 121.519 89.34 121.926 89.34C122.272 89.34 122.552 89.28 122.766 89.16C122.979 89.0333 123.109 88.8467 123.156 88.6H124.056C123.996 89.06 123.769 89.4267 123.376 89.7C122.989 89.9667 122.506 90.1 121.926 90.1ZM123.196 86.87V86.5C123.196 86.0667 123.086 85.7333 122.866 85.5C122.652 85.2667 122.339 85.15 121.926 85.15C121.519 85.15 121.206 85.2667 120.986 85.5C120.766 85.7333 120.656 86.0667 120.656 86.5V86.79H123.266L123.196 86.87ZM127.482 89.05V87.1H125.572V86.3H127.482V84.35H128.362V86.3H130.272V87.1H128.362V89.05H127.482ZM131.578 90V84.5H132.368V85.16H132.548L132.408 85.4C132.408 85.0933 132.488 84.85 132.648 84.67C132.815 84.49 133.038 84.4 133.318 84.4C133.625 84.4 133.861 84.5133 134.028 84.74C134.195 84.9667 134.278 85.2867 134.278 85.7L134.008 85.16H134.428L134.238 85.4C134.238 85.0933 134.321 84.85 134.488 84.67C134.661 84.49 134.888 84.4 135.168 84.4C135.515 84.4 135.781 84.53 135.968 84.79C136.161 85.05 136.258 85.3933 136.258 85.82V90H135.428V85.81C135.428 85.5833 135.378 85.4067 135.278 85.28C135.185 85.1533 135.045 85.09 134.858 85.09C134.678 85.09 134.535 85.1533 134.428 85.28C134.328 85.4 134.278 85.5733 134.278 85.8V90H133.558V85.81C133.558 85.5767 133.505 85.4 133.398 85.28C133.298 85.1533 133.155 85.09 132.968 85.09C132.781 85.09 132.641 85.1533 132.548 85.28C132.455 85.4 132.408 85.5733 132.408 85.8V90H131.578ZM139.434 90.1C138.854 90.1 138.397 89.9533 138.064 89.66C137.731 89.36 137.564 88.9567 137.564 88.45C137.564 87.9367 137.731 87.5333 138.064 87.24C138.397 86.9467 138.847 86.8 139.414 86.8H141.114V86.25C141.114 85.91 141.011 85.65 140.804 85.47C140.604 85.2833 140.317 85.19 139.944 85.19C139.617 85.19 139.344 85.26 139.124 85.4C138.904 85.5333 138.777 85.7167 138.744 85.95H137.844C137.904 85.4767 138.127 85.1 138.514 84.82C138.901 84.54 139.384 84.4 139.964 84.4C140.597 84.4 141.097 84.5633 141.464 84.89C141.831 85.2167 142.014 85.66 142.014 86.22V90H141.134V88.95H140.984L141.134 88.8C141.134 89.2 140.977 89.5167 140.664 89.75C140.357 89.9833 139.947 90.1 139.434 90.1ZM139.654 89.39C140.081 89.39 140.431 89.2833 140.704 89.07C140.977 88.8567 141.114 88.5833 141.114 88.25V87.47H139.434C139.134 87.47 138.897 87.5533 138.724 87.72C138.551 87.8867 138.464 88.1133 138.464 88.4C138.464 88.7067 138.567 88.95 138.774 89.13C138.987 89.3033 139.281 89.39 139.654 89.39ZM143.76 90V89.18H145.71V85.32H144.01V84.5H146.61V89.18H148.46V90H143.76ZM146.06 83.51C145.84 83.51 145.667 83.4533 145.54 83.34C145.413 83.2267 145.35 83.0733 145.35 82.88C145.35 82.68 145.413 82.5233 145.54 82.41C145.667 82.29 145.84 82.23 146.06 82.23C146.28 82.23 146.453 82.29 146.58 82.41C146.707 82.5233 146.77 82.68 146.77 82.88C146.77 83.0733 146.707 83.2267 146.58 83.34C146.453 83.4533 146.28 83.51 146.06 83.51ZM149.826 90V84.5H150.726V85.55H150.916L150.726 85.76C150.726 85.3267 150.856 84.9933 151.116 84.76C151.376 84.52 151.736 84.4 152.196 84.4C152.75 84.4 153.19 84.57 153.516 84.91C153.843 85.25 154.006 85.7133 154.006 86.3V90H153.106V86.4C153.106 86.0067 153 85.7067 152.786 85.5C152.58 85.2867 152.296 85.18 151.936 85.18C151.563 85.18 151.266 85.2933 151.046 85.52C150.833 85.7467 150.726 86.0733 150.726 86.5V90H149.826ZM157.902 90.1C157.649 90.1 157.446 90.0267 157.292 89.88C157.146 89.7333 157.072 89.5367 157.072 89.29C157.072 89.03 157.146 88.8233 157.292 88.67C157.446 88.5167 157.649 88.44 157.902 88.44C158.156 88.44 158.356 88.5167 158.502 88.67C158.656 88.8233 158.732 89.03 158.732 89.29C158.732 89.5367 158.656 89.7333 158.502 89.88C158.356 90.0267 158.156 90.1 157.902 90.1ZM164.498 90C164.025 90 163.655 89.8733 163.388 89.62C163.128 89.3667 162.998 89.01 162.998 88.55V85.32H161.448V84.5H162.998V82.95H163.898V84.5H166.098V85.32H163.898V88.55C163.898 88.97 164.098 89.18 164.498 89.18H165.998V90H164.498ZM169.725 90.08C169.351 90.08 169.025 90.0233 168.745 89.91C168.471 89.79 168.251 89.6233 168.085 89.41C167.925 89.1967 167.828 88.9433 167.795 88.65H168.695C168.735 88.8433 168.841 88.9967 169.015 89.11C169.195 89.2233 169.431 89.28 169.725 89.28H170.145C170.498 89.28 170.761 89.21 170.935 89.07C171.108 88.9233 171.195 88.73 171.195 88.49C171.195 88.2567 171.115 88.0733 170.955 87.94C170.801 87.8 170.571 87.7067 170.265 87.66L169.525 87.54C168.985 87.4467 168.581 87.28 168.315 87.04C168.055 86.7933 167.925 86.4367 167.925 85.97C167.925 85.4767 168.081 85.0967 168.395 84.83C168.708 84.5567 169.178 84.42 169.805 84.42H170.185C170.711 84.42 171.135 84.5433 171.455 84.79C171.775 85.0367 171.968 85.37 172.035 85.79H171.135C171.095 85.6167 170.995 85.48 170.835 85.38C170.675 85.2733 170.458 85.22 170.185 85.22H169.805C169.465 85.22 169.215 85.2833 169.055 85.41C168.901 85.5367 168.825 85.7267 168.825 85.98C168.825 86.2067 168.891 86.3733 169.025 86.48C169.158 86.5867 169.368 86.6633 169.655 86.71L170.395 86.83C170.988 86.9233 171.418 87.0967 171.685 87.35C171.958 87.6033 172.095 87.97 172.095 88.45C172.095 88.9567 171.931 89.3567 171.605 89.65C171.285 89.9367 170.798 90.08 170.145 90.08H169.725ZM176.041 85.35L176.841 82.24H178.141L176.841 85.35H176.041ZM173.741 85.35L174.541 82.24H175.841L174.541 85.35H173.741Z" fill="#9BFF8E"/>
</g>
<defs>
<clipPath id="clip0_90_80">
<rect width="331" height="231" fill="white"/>
</clipPath>
</defs>
</svg>
